<svg xmlns="http://www.w3.org/2000/svg" viewBox="0 0 22.437 38.045">
    <defs>
        <style>
            .cls-1{fill:#fff}
        </style>
    </defs>
    <path id="arrow" d="M2.644 12.42l7.1-7.158V36.5a1.527 1.527 0 1 0 3.054 0V5.262l7.1 7.158a1.528 1.528 0 0 0 1.074.456 1.448 1.448 0 0 0 1.074-.456 1.559 1.559 0 0 0 0-2.182L12.343.456A1.538 1.538 0 0 0 11.268 0a1.457 1.457 0 0 0-1.074.456L.5 10.238a1.559 1.559 0 0 0 0 2.182 1.51 1.51 0 0 0 2.149 0zm0 0" class="cls-1" transform="rotate(180 11.243 19.023)"/>
</svg>
