<svg id="icon-americanexpress" xmlns="http://www.w3.org/2000/svg" xmlns:xlink="http://www.w3.org/1999/xlink" viewBox="0 0 84 29">
  <defs>
    <style>
      .cls-1, .cls-2 {
        fill: none;
      }

      .cls-1 {
        clip-rule: evenodd;
      }

      .cls-3 {
        clip-path: url(#clip-path);
      }

      .cls-4 {
        clip-path: url(#clip-path-2);
      }

      .cls-5 {
        clip-path: url(#clip-path-3);
      }

      .cls-6 {
        clip-path: url(#clip-path-4);
      }

      .cls-7 {
        fill: #2c78bb;
      }

      .cls-8 {
        clip-path: url(#clip-path-5);
      }

      .cls-9 {
        clip-path: url(#clip-path-6);
      }

      .cls-10 {
        clip-path: url(#clip-path-7);
      }

      .cls-11 {
        clip-path: url(#clip-path-8);
      }
    </style>
    <clipPath id="clip-path">
      <path id="Path_2204" data-name="Path 2204" class="cls-1" d="M977.313-282.257H899v13.082h78.313Z" transform="translate(-899 282.257)"/>
    </clipPath>
    <clipPath id="clip-path-2">
      <rect id="Rectangle_796" data-name="Rectangle 796" class="cls-2" width="79.326" height="14.633"/>
    </clipPath>
    <clipPath id="clip-path-3">
      <path id="Path_2203" data-name="Path 2203" class="cls-1" d="M902.082-269.181h3.789l.855-2.083h1.912l.852,2.083h7.456v-1.592l.666,1.6h3.87l.665-1.622v1.616h18.529l-.009-3.419h.359c.252.009.324.033.324.452v2.967h9.583v-.8a7.529,7.529,0,0,0,3.559.8h4.031l.863-2.083H961.3l.844,2.083h7.769v-1.979l1.177,1.979h6.226v-13.076h-6.162v1.545l-.862-1.545h-6.323v1.545l-.791-1.545h-8.54a7.609,7.609,0,0,0-3.7.764v-.764H945.04v.764a3.625,3.625,0,0,0-2.5-.764H921.005l-1.445,3.377-1.484-3.377h-6.782v1.545l-.745-1.545h-5.782l-2.687,6.217L899-269.181Zm73.255-1.842h-3.144l-4.2-7.037v7.037h-4.517l-.862-2.091H958l-.838,2.091h-2.6a4.631,4.631,0,0,1-3.216-1.038,4.745,4.745,0,0,1-1.185-3.579,5.012,5.012,0,0,1,1.2-3.665,4.47,4.47,0,0,1,3.368-1.094h2.146v2.009h-2.1a2.12,2.12,0,0,0-1.706.556,3.121,3.121,0,0,0-.638,2.124,3.271,3.271,0,0,0,.611,2.2,2.12,2.12,0,0,0,1.545.484h1l3.126-7.373h3.323l3.755,8.868V-280.4h3.377l3.9,6.529V-280.4h2.271Zm-28.515,0h2.263V-280.4h-2.263Zm-1.287-6.85a2.639,2.639,0,0,1-1.563,2.5,2.57,2.57,0,0,1,1.1.791,2.708,2.708,0,0,1,.368,1.718v1.842H943.2l-.009-1.182a2.841,2.841,0,0,0-.35-1.827c-.324-.329-.818-.4-1.617-.4h-2.382v3.411h-2.218V-280.4h5.1a5.172,5.172,0,0,1,2.685.449A2.194,2.194,0,0,1,945.535-277.872Zm-10.446,6.85H927.68V-280.4h7.409v1.953H929.9v1.69h5.066v1.922H929.9v1.87h5.19Zm-9.062,0h-2.274l-.008-7.344-3.216,7.344h-1.948l-3.223-7.35v7.35h-4.511l-.852-2.091h-4.617l-.861,2.091h-2.408l3.971-9.376h3.3l3.771,8.877V-280.4h3.619l2.9,6.36,2.666-6.36h3.694Zm35.828-4.045-1.534-3.738-1.526,3.738Zm-19.22-1.489a2.03,2.03,0,0,1-1.1.194h-2.7v-2.082h2.731a2.254,2.254,0,0,1,1.052.168.863.863,0,0,1,.465.83A.961.961,0,0,1,942.635-276.557Zm-33.441,1.489-1.519-3.738-1.51,3.738Z" transform="translate(-899 282.257)"/>
    </clipPath>
    <clipPath id="clip-path-4">
      <path id="Path_2202" data-name="Path 2202" class="cls-2" d="M899-268.367h79.326V-283H899Z" transform="translate(-899 283)"/>
    </clipPath>
    <clipPath id="clip-path-5">
      <path id="Path_2208" data-name="Path 2208" class="cls-1" d="M943.189-259.384h32.7v-13.082H910.486v13.082Z" transform="translate(-910.486 272.466)"/>
    </clipPath>
    <clipPath id="clip-path-6">
      <rect id="Rectangle_797" data-name="Rectangle 797" class="cls-2" width="66.375" height="14.633"/>
    </clipPath>
    <clipPath id="clip-path-7">
      <path id="Path_2207" data-name="Path 2207" class="cls-1" d="M945.317-267.652a1.013,1.013,0,0,1-.46.9,2.109,2.109,0,0,1-1.095.193h-2.7v-2.1H943.8a2.168,2.168,0,0,1,1.059.169A.89.89,0,0,1,945.317-267.652Zm-9.9.136c0,.813-.531,1.238-1.384,1.238h-2.867v-2.386h2.894C934.857-268.664,935.414-268.336,935.414-267.516Zm-9.868,1.614,3.407-3.695v7.513Zm-5.284-2.763,2.428,2.731-2.535,2.749H914.7v-1.865h4.872v-1.912H914.7v-1.7Zm53.215,6.528a3.757,3.757,0,0,1-2.757.905h-4.286v-2.01H970.7a1.247,1.247,0,0,0,.9-.233.825.825,0,0,0,.262-.61.774.774,0,0,0-.271-.621,1.114,1.114,0,0,0-.782-.208c-2.084-.07-4.683.064-4.683-2.9,0-1.359.854-2.79,3.184-2.79h4.335v1.994h-3.959a1.536,1.536,0,0,0-.9.169.731.731,0,0,0-.324.674.707.707,0,0,0,.485.7,2.5,2.5,0,0,0,.855.107l1.2.033a3.477,3.477,0,0,1,2.517.754,1.251,1.251,0,0,1,.207.231l-.076-.1a3.067,3.067,0,0,1,.615,1.844A3.068,3.068,0,0,1,973.477-262.136Zm-11.42.905h-4.322v-2.01h4.306a1.288,1.288,0,0,0,.907-.233.837.837,0,0,0,.262-.61.81.81,0,0,0-.271-.621,1.156,1.156,0,0,0-.79-.208c-2.075-.07-4.674.064-4.674-2.9,0-1.359.847-2.79,3.172-2.79H965.1v1.995h-4.07a1.5,1.5,0,0,0-.89.168.724.724,0,0,0-.333.675.721.721,0,0,0,.485.7,2.562,2.562,0,0,0,.864.105l1.2.034a3.554,3.554,0,0,1,2.534.753,2.615,2.615,0,0,1,.663,1.984C965.543-262.173,964.3-261.231,962.057-261.231Zm-5.65-7.433h-5.2v1.7h5.07v1.912h-5.07v1.865l5.2.009v1.944H949V-270.6h7.406Zm-9.122,3.864a2.75,2.75,0,0,1,.368,1.711v1.858h-2.227V-262.4a2.794,2.794,0,0,0-.36-1.835c-.325-.335-.817-.417-1.628-.417h-2.372v3.424h-2.229V-270.6h5.123a5.442,5.442,0,0,1,2.67.443,2.2,2.2,0,0,1,1.141,2.08,2.624,2.624,0,0,1-1.573,2.493A2.417,2.417,0,0,1,947.285-264.8Zm-13.353.425h-2.769v3.143H926.85l-2.733-3.1-2.839,3.1h-8.79V-270.6h8.925l2.729,3.071,2.823-3.071h7.09c1.76,0,3.738.492,3.738,3.087S935.871-264.375,933.932-264.375Zm41.249-2.092v-6h-5.556a4.6,4.6,0,0,0-2.778.764v-.764h-6.073a4.17,4.17,0,0,0-2.65.764v-.764H947.276v.764a5.732,5.732,0,0,0-2.992-.764h-7.155v.764c-.683-.667-2.2-.764-3.127-.764H926l-1.832,2-1.716-2H910.486v13.075h11.735l1.888-2.033,1.778,2.033,7.235.007v-3.077h.711a7.463,7.463,0,0,0,3.09-.459v3.528h5.967V-262.8h.289c.367,0,.4.016.4.386v3.023h18.125a5.147,5.147,0,0,0,3.022-.836v.836h5.748a7.641,7.641,0,0,0,3.254-.6v-.014a4.705,4.705,0,0,0,2.162-3.967A4.677,4.677,0,0,0,975.181-266.467Z" transform="translate(-910.486 272.466)"/>
    </clipPath>
    <clipPath id="clip-path-8">
      <path id="Path_2206" data-name="Path 2206" class="cls-2" d="M910-258.367h66.375V-273H910Z" transform="translate(-910 273)"/>
    </clipPath>
  </defs>
  <g id="Group_1804" data-name="Group 1804" class="cls-3" transform="translate(0 0)">
    <g id="Group_1803" data-name="Group 1803" class="cls-4" transform="translate(0 -1.208)">
      <g id="Group_1802" data-name="Group 1802" class="cls-5" transform="translate(0 1.208)">
        <g id="Group_1801" data-name="Group 1801" class="cls-6" transform="translate(0 -1.208)">
          <path id="Path_2201" data-name="Path 2201" class="cls-7" d="M894-257.916h94.5v-29.341H894Z" transform="translate(-902.095 280.336)"/>
        </g>
      </g>
    </g>
  </g>
  <g id="Group_1808" data-name="Group 1808" class="cls-8" transform="translate(18.594 15.918)">
    <g id="Group_1807" data-name="Group 1807" class="cls-9" transform="translate(-0.786 -0.868)">
      <g id="Group_1806" data-name="Group 1806" class="cls-10" transform="translate(0.786 0.868)">
        <g id="Group_1805" data-name="Group 1805" class="cls-11" transform="translate(-0.786 -0.868)">
          <path id="Path_2205" data-name="Path 2205" class="cls-7" d="M905.486-248.126h81.6v-29.341h-81.6Z" transform="translate(-912.794 270.205)"/>
        </g>
      </g>
    </g>
  </g>
</svg>
