<svg id="icon-mastercard" xmlns="http://www.w3.org/2000/svg" xmlns:xlink="http://www.w3.org/1999/xlink" viewBox="0 0 55 43">
  <defs>
    <style>
      .cls-1 {
        fill: none;
      }

      .cls-2 {
        clip-path: url(#clip-path);
      }

      .cls-3 {
        fill: #221e20;
      }

      .cls-4 {
        clip-path: url(#clip-path-2);
      }

      .cls-5 {
        fill: #f79410;
      }

      .cls-6 {
        clip-path: url(#clip-path-3);
      }

      .cls-7 {
        fill: #ff5e00;
      }

      .cls-8 {
        clip-path: url(#clip-path-4);
      }

      .cls-9 {
        fill: #ea001b;
      }

      .cls-10 {
        clip-path: url(#clip-path-5);
      }

      .cls-11 {
        fill: #f79d1b;
      }
    </style>
    <clipPath id="clip-path">
      <path id="Path_2219" data-name="Path 2219" class="cls-1" d="M485.884-256.9v.112h.1a.107.107,0,0,0,.056-.014.049.049,0,0,0,.021-.042.048.048,0,0,0-.021-.041.1.1,0,0,0-.056-.014Zm.1-.078a.19.19,0,0,1,.123.036.119.119,0,0,1,.043.1.112.112,0,0,1-.035.086.168.168,0,0,1-.1.041l.136.158h-.106l-.126-.156h-.041v.156H485.8v-.418Zm-.027.563a.327.327,0,0,0,.135-.028.355.355,0,0,0,.11-.075.352.352,0,0,0,.075-.112.362.362,0,0,0,.027-.137.363.363,0,0,0-.027-.137.363.363,0,0,0-.075-.112.359.359,0,0,0-.11-.075.347.347,0,0,0-.135-.026.362.362,0,0,0-.137.026.355.355,0,0,0-.112.075.343.343,0,0,0-.074.112.341.341,0,0,0-.027.137.34.34,0,0,0,.027.137.333.333,0,0,0,.074.112.352.352,0,0,0,.112.075A.341.341,0,0,0,485.961-256.418Zm0-.8a.447.447,0,0,1,.178.036.454.454,0,0,1,.145.1.443.443,0,0,1,.1.143.433.433,0,0,1,.036.175.433.433,0,0,1-.036.175.466.466,0,0,1-.1.143.492.492,0,0,1-.145.1.447.447,0,0,1-.178.036.455.455,0,0,1-.181-.036.471.471,0,0,1-.146-.1.464.464,0,0,1-.1-.143.433.433,0,0,1-.036-.175.434.434,0,0,1,.036-.175.441.441,0,0,1,.1-.143.437.437,0,0,1,.146-.1A.455.455,0,0,1,485.961-257.221Zm-42.116-1.611a1.358,1.358,0,0,1,1.37-1.452,1.357,1.357,0,0,1,1.36,1.452,1.357,1.357,0,0,1-1.36,1.452A1.359,1.359,0,0,1,443.845-258.832Zm3.655,0V-261.1h-.982v.551a1.708,1.708,0,0,0-1.426-.665,2.269,2.269,0,0,0-2.258,2.382,2.268,2.268,0,0,0,2.258,2.382,1.708,1.708,0,0,0,1.426-.665v.551h.982Zm33.169,0a1.359,1.359,0,0,1,1.37-1.452,1.357,1.357,0,0,1,1.36,1.452,1.357,1.357,0,0,1-1.36,1.452A1.359,1.359,0,0,1,480.668-258.832Zm3.656,0v-4.09h-.983v2.372a1.708,1.708,0,0,0-1.426-.665,2.269,2.269,0,0,0-2.258,2.382,2.268,2.268,0,0,0,2.258,2.382,1.708,1.708,0,0,0,1.426-.665v.551h.983Zm-24.641-1.5a1.123,1.123,0,0,1,1.142,1.1h-2.342A1.164,1.164,0,0,1,459.683-260.331Zm.019-.883a2.212,2.212,0,0,0-2.249,2.382,2.232,2.232,0,0,0,2.314,2.382,2.735,2.735,0,0,0,1.851-.635l-.481-.731a2.152,2.152,0,0,1-1.313.475,1.255,1.255,0,0,1-1.35-1.111h3.352c.01-.123.019-.247.019-.379A2.171,2.171,0,0,0,459.7-261.214Zm11.852,2.382a1.359,1.359,0,0,1,1.37-1.452,1.357,1.357,0,0,1,1.36,1.452,1.357,1.357,0,0,1-1.36,1.452A1.359,1.359,0,0,1,471.555-258.832Zm3.655,0V-261.1h-.982v.551a1.709,1.709,0,0,0-1.426-.665,2.269,2.269,0,0,0-2.258,2.382,2.268,2.268,0,0,0,2.258,2.382,1.709,1.709,0,0,0,1.426-.665v.551h.982Zm-9.2,0a2.286,2.286,0,0,0,2.408,2.382,2.355,2.355,0,0,0,1.624-.541l-.471-.8a1.978,1.978,0,0,1-1.181.408,1.352,1.352,0,0,1-1.36-1.452,1.352,1.352,0,0,1,1.36-1.452,1.978,1.978,0,0,1,1.181.408l.471-.8a2.356,2.356,0,0,0-1.624-.541A2.286,2.286,0,0,0,466.011-258.832Zm12.655-2.382a1.331,1.331,0,0,0-1.19.665v-.551H476.5v4.536h.983v-2.543c0-.751.321-1.168.963-1.168a1.586,1.586,0,0,1,.614.114l.3-.93A2.082,2.082,0,0,0,478.666-261.214Zm-26.312.475a3.364,3.364,0,0,0-1.841-.475c-1.144,0-1.88.551-1.88,1.452,0,.74.548,1.2,1.558,1.338l.464.066c.538.076.792.218.792.475,0,.351-.359.551-1.029.551a2.4,2.4,0,0,1-1.5-.475l-.463.768a3.245,3.245,0,0,0,1.954.589c1.3,0,2.059-.617,2.059-1.48,0-.8-.595-1.214-1.577-1.357l-.463-.067c-.425-.056-.765-.141-.765-.445,0-.332.321-.531.859-.531a2.9,2.9,0,0,1,1.407.389Zm12.665-.475a1.328,1.328,0,0,0-1.189.665v-.551h-.973v4.536h.981v-2.543c0-.751.321-1.168.963-1.168a1.585,1.585,0,0,1,.614.114l.3-.93A2.081,2.081,0,0,0,465.019-261.214Zm-8.376.114h-1.605v-1.376h-.992v1.376h-.916v.9h.916v2.069c0,1.053.407,1.679,1.567,1.679a2.3,2.3,0,0,0,1.228-.351l-.283-.845a1.809,1.809,0,0,1-.869.256c-.491,0-.651-.3-.651-.759v-2.05h1.605Zm-14.676,4.536v-2.847a1.685,1.685,0,0,0-1.776-1.8,1.745,1.745,0,0,0-1.587.807,1.655,1.655,0,0,0-1.492-.807,1.49,1.49,0,0,0-1.322.673v-.559h-.983v4.536h.991v-2.515a1.059,1.059,0,0,1,1.106-1.206c.652,0,.981.427.981,1.2v2.524h.992v-2.515a1.068,1.068,0,0,1,1.1-1.206c.67,0,.991.427.991,1.2v2.524Z" transform="translate(-434.807 262.922)"/>
    </clipPath>
    <clipPath id="clip-path-2">
      <path id="Path_2221" data-name="Path 2221" class="cls-1" d="M469.86-268.511v-.663h-.172l-.2.455-.2-.455h-.173v.663h.122v-.5l.186.431h.127l.186-.432v.5Zm-1.091,0v-.55h.22v-.112h-.562v.112h.22v.55Z" transform="translate(-468.428 269.174)"/>
    </clipPath>
    <clipPath id="clip-path-3">
      <path id="Path_2223" data-name="Path 2223" class="cls-1" d="M461.233-257.857H446.357v-26.865h14.876Z" transform="translate(-446.357 284.722)"/>
    </clipPath>
    <clipPath id="clip-path-4">
      <path id="Path_2225" data-name="Path 2225" class="cls-1" d="M453.948-270.071a17.087,17.087,0,0,1,6.494-13.433,16.877,16.877,0,0,0-10.507-3.653,17.043,17.043,0,0,0-17,17.086,17.043,17.043,0,0,0,17,17.086,16.876,16.876,0,0,0,10.507-3.653,17.086,17.086,0,0,1-6.494-13.432" transform="translate(-432.934 287.156)"/>
    </clipPath>
    <clipPath id="clip-path-5">
      <path id="Path_2227" data-name="Path 2227" class="cls-1" d="M478.837-270.071a17.043,17.043,0,0,1-17,17.086,16.881,16.881,0,0,1-10.508-3.653,17.084,17.084,0,0,0,6.495-13.432,17.084,17.084,0,0,0-6.495-13.433,16.882,16.882,0,0,1,10.508-3.653,17.043,17.043,0,0,1,17,17.086" transform="translate(-451.328 287.156)"/>
    </clipPath>
  </defs>
  <g id="Group_1816" data-name="Group 1816" class="cls-2" transform="translate(2.799 36.398)">
    <path id="Path_2218" data-name="Path 2218" class="cls-3" d="M429.807-246.3h66.556v-21.621H429.807Z" transform="translate(-437.28 260.412)"/>
  </g>
  <g id="Group_1817" data-name="Group 1817" class="cls-4" transform="translate(53.049 27.007)">
    <path id="Path_2220" data-name="Path 2220" class="cls-5" d="M463.428-258.492h16.379v-15.682H463.428Z" transform="translate(-470.901 266.665)"/>
  </g>
  <g id="Group_1818" data-name="Group 1818" class="cls-6" transform="translate(20.061 3.655)">
    <path id="Path_2222" data-name="Path 2222" class="cls-7" d="M441.357-247.838h29.822v-41.884H441.357Z" transform="translate(-448.83 282.213)"/>
  </g>
  <g id="Group_1819" data-name="Group 1819" class="cls-8" transform="translate(0)">
    <path id="Path_2224" data-name="Path 2224" class="cls-9" d="M427.934-242.966h42.454v-49.19H427.934Z" transform="translate(-435.408 284.647)"/>
  </g>
  <g id="Group_1820" data-name="Group 1820" class="cls-10" transform="translate(27.491)">
    <path id="Path_2226" data-name="Path 2226" class="cls-11" d="M446.328-242.966h42.455v-49.19H446.328Z" transform="translate(-453.801 284.647)"/>
  </g>
</svg>
