<svg id="icon-mir" xmlns="http://www.w3.org/2000/svg" xmlns:xlink="http://www.w3.org/1999/xlink" viewBox="0 0 71 20">
  <defs>
    <style>
      .cls-1 {
        fill: none;
        clip-rule: evenodd;
      }

      .cls-2 {
        clip-path: url(#clip-path);
      }

      .cls-3 {
        fill: #4db45e;
      }

      .cls-4 {
        clip-path: url(#clip-path-2);
      }

      .cls-5 {
        clip-path: url(#clip-path-3);
      }

      .cls-6 {
        opacity: 0;
      }

      .cls-7 {
        fill: url(#linear-gradient);
      }

      .cls-8 {
        fill: url(#linear-gradient-2);
      }

      .cls-9 {
        clip-path: url(#clip-path-4);
      }
    </style>
    <clipPath id="clip-path">
      <path id="Path_2210" data-name="Path 2210" class="cls-1" d="M712.924-278.883a3.54,3.54,0,0,0-2.721,2.1l-4.476,9.782H705.2v-11.878h-6.319v20h5.968a3.645,3.645,0,0,0,2.809-2.1l4.388-9.782h.526v11.878h6.319v-20Z" transform="translate(-698.881 278.883)"/>
    </clipPath>
    <clipPath id="clip-path-2">
      <path id="Path_2212" data-name="Path 2212" class="cls-1" d="M712.555-273.433v10.917h6.319v-6.375h6.846a6.835,6.835,0,0,0,6.451-4.542Z" transform="translate(-712.555 273.433)"/>
    </clipPath>
    <clipPath id="clip-path-3">
      <path id="Path_2215" data-name="Path 2215" class="cls-1" d="M711.905-278.883a10.1,10.1,0,0,0,7.353,7.856,10.336,10.336,0,0,0,2.667.349h10.933a6.626,6.626,0,0,0,.142-1.4,6.857,6.857,0,0,0-6.91-6.809Z" transform="translate(-711.905 278.883)"/>
    </clipPath>
    <linearGradient id="linear-gradient" x1="0.468" y1="0.234" x2="0.468" y2="3.047" gradientUnits="objectBoundingBox">
      <stop offset="0"/>
      <stop offset="0" stop-color="#00b4e6"/>
      <stop offset="0.1" stop-color="#01b0e3"/>
      <stop offset="0.2" stop-color="#02ace1"/>
      <stop offset="0.3" stop-color="#02a8de"/>
      <stop offset="0.4" stop-color="#03a4db"/>
      <stop offset="0.5" stop-color="#04a0d9"/>
      <stop offset="0.6" stop-color="#059cd6"/>
      <stop offset="0.7" stop-color="#0698d3"/>
      <stop offset="0.8" stop-color="#0694d0"/>
      <stop offset="0.9" stop-color="#0790ce"/>
      <stop offset="1" stop-color="#088ccb"/>
      <stop offset="1"/>
    </linearGradient>
    <linearGradient id="linear-gradient-2" x1="0.47" y1="0.241" x2="0.476" y2="0.241" gradientUnits="objectBoundingBox">
      <stop offset="0" stop-color="#00b4e6"/>
      <stop offset="0.1" stop-color="#01b0e3"/>
      <stop offset="0.2" stop-color="#02ace1"/>
      <stop offset="0.3" stop-color="#02a8de"/>
      <stop offset="0.4" stop-color="#03a4db"/>
      <stop offset="0.5" stop-color="#04a0d9"/>
      <stop offset="0.6" stop-color="#059cd6"/>
      <stop offset="0.7" stop-color="#0698d3"/>
      <stop offset="0.8" stop-color="#0694d0"/>
      <stop offset="0.9" stop-color="#0790ce"/>
      <stop offset="1" stop-color="#088ccb"/>
    </linearGradient>
    <clipPath id="clip-path-4">
      <path id="Path_2217" data-name="Path 2217" class="cls-1" d="M701.132-278.883v.009a3.708,3.708,0,0,0-3.51,2.62c-.676,2.411-2.58,9.066-2.633,9.249h-.527s-1.948-6.8-2.633-9.258a3.715,3.715,0,0,0-3.511-2.62H682v20h6.319v-11.878h.527l3.686,11.878h4.388l3.686-11.869h.527v11.869h6.319v-20Z" transform="translate(-682 278.883)"/>
    </clipPath>
  </defs>
  <g id="Group_1809" data-name="Group 1809" class="cls-2" transform="translate(28.172 0)">
    <path id="Path_2209" data-name="Path 2209" class="cls-3" d="M693.881-247.216h36.7v-36.667h-36.7Z" transform="translate(-702.225 275.549)"/>
  </g>
  <g id="Group_1810" data-name="Group 1810" class="cls-4" transform="translate(50.99 9.083)">
    <path id="Path_2211" data-name="Path 2211" class="cls-3" d="M707.555-250.849h36.3v-27.584h-36.3Z" transform="translate(-715.899 270.1)"/>
  </g>
  <g id="Group_1814" data-name="Group 1814" class="cls-5" transform="translate(49.906 0)">
    <g id="Group_1812" data-name="Group 1812" class="cls-6" transform="translate(-1188.03 -141.862)">
      <g id="Group_1811" data-name="Group 1811" transform="translate(0 0)">
        <path id="Path_2213" data-name="Path 2213" class="cls-7" d="M-711.905-85.117H1824.678V521.549H-711.905Z" transform="translate(711.905 85.117)"/>
      </g>
    </g>
    <g id="Group_1813" data-name="Group 1813" transform="translate(-1188.03 -141.862)">
      <path id="Path_2214" data-name="Path 2214" class="cls-8" d="M-711.905-85.117H1824.678V521.549H-711.905Z" transform="translate(711.905 85.117)"/>
    </g>
  </g>
  <g id="Group_1815" data-name="Group 1815" class="cls-9" transform="translate(0 0)">
    <path id="Path_2216" data-name="Path 2216" class="cls-3" d="M677-247.216h42.139v-36.667H677Z" transform="translate(-685.344 275.549)"/>
  </g>
</svg>
