<svg xmlns="http://www.w3.org/2000/svg" viewBox="0 0 24.928 33.229">
  <path d="M352.528,157.244V157.2a.247.247,0,0,0-.046-.138v-.023l-.023-.046a.612.612,0,0,0-.115-.138l-.023-.023c-.023-.023-.046-.023-.069-.046l-21.331-12.314c-.023,0-.023-.023-.046-.023a.139.139,0,0,0-.092-.023c-.046,0-.069-.023-.115-.023a.343.343,0,0,0-.208.046l-2.56,1.268-.023.023a.613.613,0,0,0-.138.115l-.023.023-.069.138-.023.023a.392.392,0,0,0-.023.161v18.54a.627.627,0,0,0,.277.484l21.331,12.314c.023.023.046.023.092.046l.046.023a.292.292,0,0,0,.138.023h.023a.542.542,0,0,0,.184-.046l2.537-1.268c.023-.023.046-.023.046-.046a.31.31,0,0,0,.138-.161.455.455,0,0,0,.069-.184c0-.023.023-.046.023-.092Zm-10.216,6.065,6.618-3.39v14.459Zm-4.2.969c.046.046.069.092.115.115.023.023.046.046.069.046.046.046.092.069.138.115l.046.023a1.288,1.288,0,0,0,.184.115c.069.023.115.046.184.069.023,0,.023,0,.069.023.046,0,.092.023.138.023h.254a.543.543,0,0,0,.184-.046c.023,0,.046-.023.069-.023l1.8-.922,7.241,12.107L328.73,164.462v-.092l7.195-3.69,2.006,3.344a.621.621,0,0,0,.161.184Zm.715-.853-9.547-15.935,19.486,11.253-9.662,4.958A1.052,1.052,0,0,1,338.83,163.425Zm-10.123-.3V148.666l6.618,11.069Zm22.115-5.9-1.314.669-20.178-11.645,1.314-.669Zm.623.922v17.318l-1.407.692V158.836Zm-23.614-12.2Z" transform="translate(-327.6 -144.399)" fill="#74be21" />
</svg>
