<svg xmlns="http://www.w3.org/2000/svg" viewBox="0 0 27.88 33.277">
  <g transform="translate(-20.902 -11.209)" fill="#74be21">
    <path d="M131.62,67.866a2.363,2.363,0,0,0-2.444-.3A2.713,2.713,0,0,0,128,70.126a7.681,7.681,0,0,0,3.021,5.88,2.9,2.9,0,0,0,1.545.53h.023a1.662,1.662,0,0,0,.876-.231h0a2.713,2.713,0,0,0,1.176-2.56A7.681,7.681,0,0,0,131.62,67.866Zm1.914,5.88a1.78,1.78,0,0,1-.6,1.591,1.294,1.294,0,0,1-1.314-.254h0a6.53,6.53,0,0,1-2.537-4.958,1.78,1.78,0,0,1,.6-1.591.73.73,0,0,1,.369-.092,1.752,1.752,0,0,1,.945.346A6.492,6.492,0,0,1,133.534,73.746Z" transform="translate(-98.497 -51.789)"/>
    <path d="M118.58,70.611a.542.542,0,0,0-.046-.184l-.023-.023a.611.611,0,0,0-.115-.138.023.023,0,0,1-.023-.023l-8.809-5.765c.231-.784.415-1.591.576-2.4a14.015,14.015,0,0,0,.161-3.8,11.105,11.105,0,0,0-4.981-8.717c-1.545-1.015-2.767-1.291-3.759-.876-.023,0-.046.023-.069.023l-.069.023a.023.023,0,0,0-.023.023h0l-.046.023h0a1,1,0,0,0-.161.092l-2.122,1.222c-.023.023-.069.023-.092.046-.023,0-.023.023-.046.023l-.115.069a4.158,4.158,0,0,0-1.476,3.228,16.334,16.334,0,0,0,.138,3.966,53.013,53.013,0,0,0,1.868,8L91,70.265l-.023.023a.611.611,0,0,0-.138.115l-.023.023a.775.775,0,0,0-.115.323v2.283a.532.532,0,0,0,.254.461L103.5,81.68c.023.023.069.023.092.046l.046.023a.293.293,0,0,0,.138.023h.023a.173.173,0,0,0,.115-.023c.023,0,.023,0,.046-.023.023,0,.046-.023.092-.046L118.3,73.447l.023-.023a.18.18,0,0,0,.092-.092.463.463,0,0,0,.092-.184.232.232,0,0,1,.023-.069c0-.023.023-.046.023-.092V70.657ZM105.6,69.643a18.448,18.448,0,0,0,2.145-6.157,14.015,14.015,0,0,0,.161-3.8,11.105,11.105,0,0,0-4.981-8.717,6.363,6.363,0,0,0-1.683-.83l.669-.392c.623-.277,1.545-.023,2.767.784a10.007,10.007,0,0,1,4.5,7.91,12.739,12.739,0,0,1-.138,3.505C108.249,66.253,106.611,68.582,105.6,69.643Zm1.084-6.365c-.9,4.958-2.929,7.287-3.851,8.117a51.957,51.957,0,0,1-4.243-14.113,14.145,14.145,0,0,1-.138-3.69,3.307,3.307,0,0,1,.969-2.421l.161-.092c.623-.277,1.545,0,2.767.784a10.007,10.007,0,0,1,4.5,7.91A13.713,13.713,0,0,1,106.681,63.278Zm-7.01,3.251a50.73,50.73,0,0,0,2.306,5.7.888.888,0,0,0,.553.484.393.393,0,0,0,.161.023h0a.819.819,0,0,0,.231-.046c.046,0,.069-.023.115-.046l2.352-1.361.046-.023.023-.023a11.712,11.712,0,0,0,3.759-5.65l7.794,5.073-13.167,7.61L92.337,70.772Zm3.6,12.683v.969L91.83,72.733v-.969ZM117.5,71.649v1.015L104.352,80.25V79.235ZM101.469,48.842Zm-.023.023Z" transform="translate(-69.798 -37.285)"/>
  </g>
</svg>
