<svg xmlns="http://www.w3.org/2000/svg" viewBox="0 0 15.131 33.222">
  <g id="phone_icon" data-name="phone icon" transform="translate(0.018 -0.034)" fill="#74be21">
    <path d="M15.114,8.305A3.021,3.021,0,0,0,14.768,6.9V6.484h-.231a3.711,3.711,0,0,0-1.245-1.291L4.852.327A1.568,1.568,0,0,0,3.1.28L1.024,1.318l-.138.046a1.572,1.572,0,0,0-.9,1.545V24.955a3.972,3.972,0,0,0,1.8,3.113l8.463,4.889a2.073,2.073,0,0,0,.969.3h0a1.361,1.361,0,0,0,.323-.046l.023.023.161-.092.138-.069,2.49-1.245a1.583,1.583,0,0,0,.738-1.476V8.305ZM11.355,32.1c-.092.069-.323.023-.553-.092l-8.44-4.866a2.858,2.858,0,0,1-1.268-2.168V20.619l10.423,6.019v4.981A.6.6,0,0,1,11.355,32.1Zm.161-19.578V25.347l-10.423-6V6.507Zm0-2.952v1.683L1.093,5.238V2.909a.757.757,0,0,1,.138-.484l.092-.046a.632.632,0,0,1,.484.138l8.44,4.889a2.765,2.765,0,0,1,.992,1.13A2.668,2.668,0,0,1,11.516,9.574Zm.715-1.545a3.9,3.9,0,0,0-1.407-1.591l-8.186-4.7,1.015-.507.138-.069V1.134a.734.734,0,0,1,.53.115l8.44,4.866a2.765,2.765,0,0,1,.992,1.13l.046.092a2.283,2.283,0,0,1,.231.945V30.328a.6.6,0,0,1-.161.484l-1.245.623V9.528A4.02,4.02,0,0,0,12.231,8.029Z" transform="translate(0 0)"/>
    <path d="M20.659,104.272a1.7,1.7,0,0,0-1.66-.115,1.6,1.6,0,0,0-.715,1.453,3.936,3.936,0,0,0,1.8,3.113h0a1.815,1.815,0,0,0,.969.277h.023a1.39,1.39,0,0,0,.669-.184,1.6,1.6,0,0,0,.715-1.453A3.87,3.87,0,0,0,20.659,104.272Zm.53,3.62a.623.623,0,0,1-.53-.092,2.835,2.835,0,0,1-1.268-2.191.611.611,0,0,1,.184-.507.208.208,0,0,1,.115-.023.691.691,0,0,1,.415.138,2.835,2.835,0,0,1,1.268,2.191A.543.543,0,0,1,21.189,107.893Z" transform="translate(-14.077 -79.986)"/>
    <path d="M23.136,25.007,20.83,23.669a.588.588,0,0,0-.553,0,.562.562,0,0,0-.277.484.627.627,0,0,0,.277.484l2.306,1.337a.614.614,0,0,0,.277.069.569.569,0,0,0,.484-.277A.578.578,0,0,0,23.136,25.007Z" transform="translate(-15.402 -18.131)"/>
  </g>
</svg>
