<svg xmlns="http://www.w3.org/2000/svg" xmlns:xlink="http://www.w3.org/1999/xlink" viewBox="0 0 168 36.75">
  <defs>
    <style>
      .cls-1 {
        fill: none;
        clip-rule: evenodd;
      }

      .cls-2 {
        clip-path: url(#clip-path);
      }

      .cls-3 {
        fill: #65b444;
      }

      .cls-4 {
        clip-path: url(#clip-path-2);
      }

      .cls-5 {
        clip-path: url(#clip-path-3);
      }

      .cls-6 {
        clip-path: url(#clip-path-4);
      }

      .cls-7 {
        clip-path: url(#clip-path-5);
      }

      .cls-8 {
        fill: #0b8843;
      }

      .cls-9 {
        clip-path: url(#clip-path-6);
      }

      .cls-10 {
        clip-path: url(#clip-path-7);
      }
    </style>
    <clipPath id="clip-path">
      <path id="Path_2152" data-name="Path 2152" class="cls-1" d="M196.443-145.788v13.756H189v-35.125h10.936c9.366,0,14.126,3.4,14.126,10.507,0,4.67-2.278,7.461-6.936,9.492l9.063,15.126h-8.455l-7.494-13.756Zm3.9-5.279c3.9,0,6.025-1.624,6.025-5.583,0-3.6-2.076-5.178-6.582-5.178h-3.341v10.761Z" transform="translate(-189 167.158)"/>
    </clipPath>
    <clipPath id="clip-path-2">
      <path id="Path_2154" data-name="Path 2154" class="cls-1" d="M219.7-131.221c-8.86,0-13.316-5.076-13.316-12.385v-23.552h7.443v23.2c0,4.721,1.823,7.056,5.873,7.056,4.1,0,5.923-2.335,5.923-7.056v-23.2h7.443v23.552c0,7.055-4.506,12.385-13.366,12.385" transform="translate(-206.386 167.158)"/>
    </clipPath>
    <clipPath id="clip-path-3">
      <path id="Path_2156" data-name="Path 2156" class="cls-1" d="M250.815-163.833l-3.746,4.365a9.337,9.337,0,0,0-6.379-2.538c-4.658,0-8.1,3.553-8.1,12.689,0,8.832,3.392,12.537,8.2,12.537,2.937,0,4.962-1.371,6.987-2.944l3.443,4.416a15,15,0,0,1-10.784,4.416c-9.316,0-15.7-6.446-15.7-18.425,0-11.827,6.734-18.324,15.493-18.324a15.072,15.072,0,0,1,10.581,3.807" transform="translate(-224.741 167.641)"/>
    </clipPath>
    <clipPath id="clip-path-4">
      <path id="Path_2158" data-name="Path 2158" class="cls-1" d="M288.511-167.158H262.955c9.367,0,14.126,3.4,14.126,10.507,0,4.67-2.278,7.461-6.936,9.492l9.063,15.126h10.165c8.607,0,17.214-3.553,17.214-17.715C306.586-164.264,297.776-167.158,288.511-167.158Zm1.317,29.643H286.79v-24.161h2.886c5.063,0,9.164,1.878,9.164,11.928C298.84-139.9,294.942-137.515,289.828-137.515Z" transform="translate(-262.955 167.158)"/>
    </clipPath>
    <clipPath id="clip-path-5">
      <path id="Path_2160" data-name="Path 2160" class="cls-1" d="M270.8-158.811c0-3.6-2.075-5.178-6.582-5.178h-3.342v10.761h3.9c3.9,0,6.024-1.624,6.024-5.583" transform="translate(-260.878 163.989)"/>
    </clipPath>
    <clipPath id="clip-path-6">
      <path id="Path_2162" data-name="Path 2162" class="cls-1" d="M260.878-154.451v13.756h11.29l-7.493-13.756h-3.8" transform="translate(-260.878 154.451)"/>
    </clipPath>
    <clipPath id="clip-path-7">
      <path id="Path_2164" data-name="Path 2164" class="cls-1" d="M251.754-167.158,240.97-132.033h7.746l1.975-7.868h10.987l1.975,7.868h3.354v-35.125Zm.355,21.725,4.05-16.192,4.1,16.192Z" transform="translate(-240.97 167.158)"/>
    </clipPath>
  </defs>
  <g id="logo-rucard" transform="translate(-387 -44.359)">
    <g id="Group_1753" data-name="Group 1753" class="cls-2" transform="translate(387 45.171)">
      <path id="Path_2151" data-name="Path 2151" class="cls-3" d="M184-120.216h44.005v-51.942H184Z" transform="translate(-192.409 163.749)"/>
    </g>
    <g id="Group_1754" data-name="Group 1754" class="cls-4" transform="translate(416.237 45.171)">
      <path id="Path_2153" data-name="Path 2153" class="cls-3" d="M201.386-119.4h43.5v-52.754h-43.5Z" transform="translate(-209.794 163.749)"/>
    </g>
    <g id="Group_1755" data-name="Group 1755" class="cls-5" transform="translate(447.104 44.359)">
      <path id="Path_2155" data-name="Path 2155" class="cls-3" d="M219.74-119.074h43.3v-53.566h-43.3Z" transform="translate(-228.149 164.232)"/>
    </g>
    <g id="Group_1756" data-name="Group 1756" class="cls-6" transform="translate(511.369 45.171)">
      <path id="Path_2157" data-name="Path 2157" class="cls-3" d="M257.955-120.216H318.4v-51.942H257.955Z" transform="translate(-266.364 163.749)"/>
    </g>
    <g id="Group_1757" data-name="Group 1757" class="cls-7" transform="translate(507.876 50.501)">
      <path id="Path_2159" data-name="Path 2159" class="cls-8" d="M255.878-141.411h26.74v-27.578h-26.74Z" transform="translate(-264.286 160.58)"/>
    </g>
    <g id="Group_1758" data-name="Group 1758" class="cls-9" transform="translate(507.876 66.541)">
      <path id="Path_2161" data-name="Path 2161" class="cls-8" d="M255.878-128.878h28.107V-159.45H255.878Z" transform="translate(-264.286 151.042)"/>
    </g>
    <g id="Group_1759" data-name="Group 1759" class="cls-10" transform="translate(474.397 45.171)">
      <path id="Path_2163" data-name="Path 2163" class="cls-3" d="M235.97-120.216h42.853v-51.942H235.97Z" transform="translate(-244.378 163.749)"/>
    </g>
  </g>
</svg>
