<svg xmlns="http://www.w3.org/2000/svg" viewBox="0 0 38 22">
    <defs>
        <style>
            .cls-1{fill:#d5d5d5}
        </style>
    </defs>
    <path id="arrow" d="M2.594 12.406l6.959-7.15v31.206a1.5 1.5 0 1 0 2.994 0V5.256l6.959 7.15a1.485 1.485 0 0 0 1.054.456 1.407 1.407 0 0 0 1.054-.456 1.578 1.578 0 0 0 0-2.179L12.1.456A1.5 1.5 0 0 0 11.05 0 1.416 1.416 0 0 0 10 .456l-9.513 9.77a1.578 1.578 0 0 0 0 2.179 1.461 1.461 0 0 0 2.107 0zm0 0" class="cls-1" transform="rotate(90 19.025 18.975)"/>
</svg>
