<svg xmlns="http://www.w3.org/2000/svg" viewBox="0 0 160 160">
    <defs>
        <style>
            .cls-1,.cls-4{fill:none}.cls-1{stroke:#d5d5d5;stroke-width:2px}.cls-2{fill:#74be21}.cls-3{stroke:none}
        </style>
    </defs>
    <g id="icon-04" transform="translate(49 42)">
        <g id="Symbol_2_29" data-name="Symbol 2 – 29" transform="translate(8 -2)">
            <g id="Ellipse_119" class="cls-1" data-name="Ellipse 119" transform="translate(-57 -40)">
                <circle cx="80" cy="80" r="80" class="cls-3"/>
                <circle cx="80" cy="80" r="79" class="cls-4"/>
            </g>
        </g>
        <g id="Group_2293" data-name="Group 2293">
            <path id="Path_2385" d="M184.358 188.408a.894.894 0 0 0-.274-.332l-2.856-2.3-1.291-3.867a1.082 1.082 0 0 0-.919-.723 1.03 1.03 0 0 0-1.017.547l-.959 1.777-2.23-.762a1.028 1.028 0 0 0-1.33.664 1.07 1.07 0 0 0 .1.879l2.054 3.418-.391 3.086a1.041 1.041 0 0 0 .919 1.172.793.793 0 0 0 .215 0l2.132-.156 2.328 2.871a1.059 1.059 0 0 0 1.487.156 1.092 1.092 0 0 0 .391-.937l-.372-3.242 1.585-.82a1.07 1.07 0 0 0 .43-1.426zm-3.658.7a1.067 1.067 0 0 0-.567 1.055l.039.391-.411-.508a1.039 1.039 0 0 0-.822-.391h-.078l-1.389.1.274-2.168a1.059 1.059 0 0 0-.137-.684l-.763-1.25.352.117a1.061 1.061 0 0 0 1.272-.508l.215-.41.606 1.836a1.043 1.043 0 0 0 .333.488l1.839 1.484zm0 0" class="cls-2" data-name="Path 2385" transform="translate(-139.5 -145.791)"/>
            <path id="Path_2386" d="M56.638 114.608a.763.763 0 0 0-.274-.332l-2.856-2.3-1.271-3.876a1.082 1.082 0 0 0-.919-.723 1.03 1.03 0 0 0-1.017.547l-.959 1.777-2.23-.762a1.028 1.028 0 0 0-1.33.664 1.062 1.062 0 0 0 .1.879l2.054 3.418-.411 3.086a1.041 1.041 0 0 0 .919 1.172.794.794 0 0 0 .215 0l2.132-.156 2.328 2.871a1.059 1.059 0 0 0 1.487.156 1.092 1.092 0 0 0 .391-.937l-.372-3.242 1.585-.82a1.07 1.07 0 0 0 .43-1.426zm-3.658.7a1.067 1.067 0 0 0-.567 1.055l.039.391-.411-.508a1.039 1.039 0 0 0-.822-.391h-.078l-1.389.1.274-2.168a1.059 1.059 0 0 0-.137-.684l-.743-1.25.352.117a1.032 1.032 0 0 0 1.272-.508l.215-.41.606 1.836a1.043 1.043 0 0 0 .333.488l1.839 1.484zm0 0" class="cls-2" data-name="Path 2386" transform="translate(-36.782 -86.405)"/>
            <path id="Path_2387" d="M120.458 151.508a.763.763 0 0 0-.274-.332l-2.856-2.3-1.291-3.876a1.082 1.082 0 0 0-.919-.723 1.03 1.03 0 0 0-1.017.547l-.959 1.777-2.23-.762a1.028 1.028 0 0 0-1.33.664 1.07 1.07 0 0 0 .1.879l2.054 3.418-.391 3.086a1.03 1.03 0 0 0 .919 1.172.793.793 0 0 0 .215 0l2.132-.156 2.328 2.871a1.059 1.059 0 0 0 1.487.156 1.092 1.092 0 0 0 .391-.937l-.372-3.242 1.585-.82a1.07 1.07 0 0 0 .43-1.426zm-3.658.7a1.067 1.067 0 0 0-.567 1.055l.039.391-.411-.508a1.039 1.039 0 0 0-.822-.391h-.078l-1.389.1.274-2.168a1.059 1.059 0 0 0-.137-.684l-.763-1.25.352.117a1.061 1.061 0 0 0 1.272-.508l.215-.41.606 1.836a1.043 1.043 0 0 0 .333.488l1.839 1.484zm0 0" class="cls-2" data-name="Path 2387" transform="translate(-88.1 -116.098)"/>
            <path id="Path_2388" d="M173.9 277.445l-8.04-4.629a1.059 1.059 0 1 0-1.056 1.836l8.04 4.629a1.059 1.059 0 1 0 1.056-1.836zm0 0" class="cls-2" data-name="Path 2388" transform="translate(-132.137 -219.417)"/>
            <path id="Path_2389" d="M184.924 304.8l-5.36-3.086a1.059 1.059 0 1 0-1.056 1.836l5.36 3.086a1.059 1.059 0 1 0 1.056-1.836zm0 0" class="cls-2" data-name="Path 2389" transform="translate(-143.157 -242.673)"/>
            <path id="Path_2390" d="M64.447 85.389a6.792 6.792 0 0 1-3.047-5.234 1.065 1.065 0 0 0-.528-.918l-37.5-21.621a1.059 1.059 0 0 0-1.448.391.966.966 0 0 0-.137.527 1.509 1.509 0 0 1-.509 1.367 1.626 1.626 0 0 1-1.487-.254 1.059 1.059 0 0 0-1.448.391.966.966 0 0 0-.137.527V89.2a1.065 1.065 0 0 0 .528.918 6.792 6.792 0 0 1 3.046 5.232 1.065 1.065 0 0 0 .528.918l37.522 21.621a1.059 1.059 0 0 0 1.448-.391.966.966 0 0 0 .137-.527 1.509 1.509 0 0 1 .509-1.367 1.626 1.626 0 0 1 1.487.254 1.059 1.059 0 0 0 1.448-.391 1.012 1.012 0 0 0 .137-.527V86.307a1.129 1.129 0 0 0-.548-.918zm-1.585 28.047a3.155 3.155 0 0 0-2.015.332 3 3 0 0 0-1.272 1.543L23.854 94.725a9.107 9.107 0 0 0-3.541-6.094V62.049a2.879 2.879 0 0 0 3.287-1.875L59.322 80.76a9.107 9.107 0 0 0 3.541 6.094zm0 0" class="cls-2" data-name="Path 2390" transform="translate(-14.64 -46.249)"/>
            <path id="Path_2391" d="M68.9 237.845l-8.04-4.629a1.059 1.059 0 1 0-1.056 1.836l8.04 4.629a1.059 1.059 0 0 0 1.448-.391 1.046 1.046 0 0 0-.391-1.445zm0 0" class="cls-2" data-name="Path 2391" transform="translate(-47.678 -187.552)"/>
            <path id="Path_2392" d="M69.217 217.2l-2.68-3.594a1.051 1.051 0 0 0-1.428-.254c-.88.586-2.172-.84-2.191-.84a1.1 1.1 0 0 0-1.33-.234l-1.78 1.016a1.059 1.059 0 1 0 1.056 1.836l1.1-.625a4.044 4.044 0 0 0 3.384 1.035l2.191 2.93a1.042 1.042 0 0 0 1.467.215 1.064 1.064 0 0 0 .215-1.484zm0 0" class="cls-2" data-name="Path 2392" transform="translate(-47.678 -170.715)"/>
            <path id="Path_2393" d="M59.98 30.859a.117.117 0 0 0-.02-.078 1.828 1.828 0 0 0-.078-.313c0-.02 0-.039-.02-.039l-.02-.02a1.617 1.617 0 0 0-.215-.293.27.27 0 0 0-.078-.059.409.409 0 0 0-.117-.078L7.669.117C7.63.1 7.61.1 7.571.078a.575.575 0 0 0-.2-.059C7.3.02 7.219 0 7.16 0a.877.877 0 0 0-.391.078.177.177 0 0 1-.1.02L.587 3.125l-.02.02c-.02 0-.02 0-.039.02a.878.878 0 0 0-.254.215l-.059.059a.643.643 0 0 0-.137.254c0 .02-.02.039-.02.078A.809.809 0 0 0 0 4.082v45A1.065 1.065 0 0 0 .528 50l51.8 29.863c.059.02.1.039.156.059.039.02.059.039.1.039a1.323 1.323 0 0 0 .274.039 1.068 1.068 0 0 0 .43-.1h.039l6.084-3.027a.518.518 0 0 0 .117-.1 1.076 1.076 0 0 0 .176-.137 3.183 3.183 0 0 0 .215-.332 1.007 1.007 0 0 0 .039-.215c.02-.039.02-.1.039-.156V30.9c-.02-.02-.02-.02-.02-.039zm-8.18 46.25L2.113 48.457V5.879L51.8 34.531zm1.1-44.375L3.287 4.141 7.1 2.227 56.713 30.82zm4.989 42.52l-3.971 1.973V34.59l3.971-1.973zm0 0" class="cls-2" data-name="Path 2393"/>
        </g>
    </g>
</svg>
