<svg xmlns="http://www.w3.org/2000/svg" viewBox="0 0 160 160">
  <defs>
    <style>
      .cls-1, .cls-2, .cls-4 {
        fill: none;
      }

      .cls-1 {
        stroke: #d5d5d5;
      }

      .cls-1, .cls-2 {
        stroke-width: 2px;
      }

      .cls-2 {
        stroke: #74be21;
      }

      .cls-3 {
        stroke: none;
      }
    </style>
  </defs>
  <g id="icon-01" transform="translate(-210 -2540)">
    <g id="Symbol_2_49" data-name="Symbol 2 – 49" transform="translate(267 2580)">
      <g id="Ellipse_119" data-name="Ellipse 119" class="cls-1" transform="translate(-57 -40)">
        <circle class="cls-3" cx="80" cy="80" r="80"/>
        <circle class="cls-4" cx="80" cy="80" r="79"/>
      </g>
    </g>
    <g id="Group_2320" data-name="Group 2320" transform="translate(5.089 4.06)">
      <path id="Path_3127" data-name="Path 3127" class="cls-2" d="M10.947,26.73v4.358a.587.587,0,0,0,.283.515c1.084.609,2.168,1.265,3.252,1.874a.6.6,0,0,0,.9-.515V29.307c1.084.609,2.121,1.218,3.2,1.828a.566.566,0,0,0,.848-.515V26.871a.587.587,0,0,0-.283-.515c-1.272-.75-2.545-1.453-3.817-2.2V19.794a.587.587,0,0,0-.283-.515c-1.084-.609-2.168-1.265-3.252-1.874a.6.6,0,0,0-.9.515v3.655c-1.084-.609-2.121-1.218-3.2-1.828a.6.6,0,0,0-.9.515v3.749a.587.587,0,0,0,.283.515C8.4,25.277,9.675,25.98,10.947,26.73Z" transform="translate(254.432 2565.912)"/>
      <path id="Path_3131" data-name="Path 3131" class="cls-2" d="M51.248,71.323a.594.594,0,0,0,.286.522c3.865,2.23,7.73,4.46,11.595,6.643a.573.573,0,0,0,.859-.522v-3.8a.594.594,0,0,0-.286-.522c-3.865-2.23-7.73-4.46-11.595-6.643a.6.6,0,0,0-.907.522C51.248,68.809,51.248,70.042,51.248,71.323Z" transform="translate(210.032 2553.145)"/>
      <path id="Path_3134" data-name="Path 3134" class="cls-2" d="M51.248,90.229a.594.594,0,0,0,.286.522c3.865,2.23,16.372,8.757,20.237,10.939a.573.573,0,0,0,.859-.522v-22.7a.6.6,0,0,0-.286-.522c-3.865-2.23-16.372-8.757-20.237-10.939a.6.6,0,0,0-.907.522C51.248,68.809,51.248,88.948,51.248,90.229Z" transform="translate(205.711 2541.973)"/>
      <path id="Path_3135" data-name="Path 3135" class="cls-2" d="M51.248,90.229a.594.594,0,0,0,.286.522c3.865,2.23,16.372,8.757,20.237,10.939a.573.573,0,0,0,.859-.522v-22.7a.6.6,0,0,0-.286-.522c-3.865-2.23-16.372-8.757-20.237-10.939a.6.6,0,0,0-.907.522C51.248,68.809,51.248,88.948,51.248,90.229Z" transform="translate(205.711 2506.739)"/>
      <path id="Path_3136" data-name="Path 3136" class="cls-2" d="M51.248,125.463a.594.594,0,0,0,.286.522c3.865,2.23,16.372,8.757,20.237,10.939a.573.573,0,0,0,.859-.522V78.467a.6.6,0,0,0-.286-.522c-3.865-2.23-16.372-8.757-20.237-10.939a.6.6,0,0,0-.907.522C51.248,68.809,51.248,124.182,51.248,125.463Z" transform="translate(235.959 2523.926)"/>
      <path id="Path_3137" data-name="Path 3137" class="cls-2" d="M67.686,138.854C67.677,140,71.621,137,71.765,136.9a.5.5,0,0,0,.286-.522V78.444a.594.594,0,0,0-.286-.522c-3.865-2.23-16.372-8.757-20.237-10.939-.382-.237-.663-.358-1.085,0-.524.386-3.37,2.133-3.509,2.406s17.689,9.224,19.315,10.39,1.439,2.294,1.439,2.294S67.7,137.708,67.686,138.854Z" transform="translate(240.86 2521.371)"/>
      <path id="Path_3138" data-name="Path 3138" class="cls-2" d="M67.686,103.619c-.009,1.146,3.935-1.857,4.078-1.952a.5.5,0,0,0,.286-.522v-22.7a.594.594,0,0,0-.286-.522c-3.865-2.23-16.372-8.757-20.237-10.939-.382-.237-.663-.358-1.085,0-.524.386-3.37,2.133-3.509,2.406s17.689,9.224,19.315,10.39,1.439,2.294,1.439,2.294S67.7,102.473,67.686,103.619Z" transform="translate(210.611 2504.183)"/>
      <path id="Path_3139" data-name="Path 3139" class="cls-2" d="M67.686,103.619c-.009,1.146,3.935-1.857,4.078-1.952a.5.5,0,0,0,.286-.522v-22.7a.594.594,0,0,0-.286-.522c-3.865-2.23-16.372-8.757-20.237-10.939-.382-.237-.663-.358-1.085,0-.524.386-3.37,2.133-3.509,2.406s17.689,9.224,19.315,10.39,1.439,2.294,1.439,2.294S67.7,102.473,67.686,103.619Z" transform="translate(210.611 2539.418)"/>
      <path id="Path_3132" data-name="Path 3132" class="cls-2" d="M51.248,71.323a.594.594,0,0,0,.286.522c3.865,2.23,7.73,4.46,11.595,6.643a.573.573,0,0,0,.859-.522v-3.8a.594.594,0,0,0-.286-.522c-3.865-2.23-7.73-4.46-11.595-6.643a.6.6,0,0,0-.907.522C51.248,68.809,51.248,70.042,51.248,71.323Z" transform="translate(240.281 2548.847)"/>
      <path id="Path_3133" data-name="Path 3133" class="cls-2" d="M51.248,71.323a.594.594,0,0,0,.286.522c3.865,2.23,7.73,4.46,11.595,6.643a.573.573,0,0,0,.859-.522v-3.8a.594.594,0,0,0-.286-.522c-3.865-2.23-7.73-4.46-11.595-6.643a.6.6,0,0,0-.907.522C51.248,68.809,51.248,70.042,51.248,71.323Z" transform="translate(240.281 2558.301)"/>
      <path id="Path_3140" data-name="Path 3140" class="cls-2" d="M9276.771-355.518l4.1-2.423" transform="translate(-8998.376 2940.155)"/>
      <path id="Path_3141" data-name="Path 3141" class="cls-2" d="M9276.771-355.518l4.1-2.423" transform="translate(-8998.376 2975.389)"/>
      <path id="Path_3142" data-name="Path 3142" class="cls-2" d="M9276.771-355.518l4.1-2.423" transform="translate(-8968.127 2957.343)"/>
      <path id="Path_3144" data-name="Path 3144" class="cls-2" d="M9276.771-355.518l4.1-2.423" transform="translate(-9014.797 2980.545)"/>
      <path id="Path_3145" data-name="Path 3145" class="cls-2" d="M9276.771-355.518l4.1-2.423" transform="translate(-8984.547 2976.249)"/>
      <path id="Path_3146" data-name="Path 3146" class="cls-2" d="M9276.771-355.518l4.1-2.423" transform="translate(-8984.547 2985.702)"/>
    </g>
  </g>
</svg>
