<svg xmlns="http://www.w3.org/2000/svg" viewBox="0 0 160 160">
  <defs>
    <style>
      .cls-1, .cls-4 {
        fill: none;
      }

      .cls-1 {
        stroke: #d5d5d5;
        stroke-width: 2px;
      }

      .cls-2 {
        fill: #74be21;
      }

      .cls-3 {
        stroke: none;
      }
    </style>
  </defs>
  <g id="icon-02" transform="translate(56 40)">
    <g id="Symbol_2_77" data-name="Symbol 2 – 77" transform="translate(1)">
      <g id="Ellipse_119" data-name="Ellipse 119" class="cls-1" transform="translate(-57 -40)">
        <circle class="cls-3" cx="80" cy="80" r="80"/>
        <circle class="cls-4" cx="80" cy="80" r="79"/>
      </g>
    </g>
    <g id="icon_list" data-name="icon list" transform="translate(0 -3)">
      <path id="Path_2376" data-name="Path 2376" class="cls-2" d="M49.931,115.642a1.168,1.168,0,0,0-.688.531,1.146,1.146,0,0,0-.1.871,1.185,1.185,0,0,0,.521.7l20.914,12.3a1.074,1.074,0,0,0,1.126,0,1.138,1.138,0,0,0,.563-1,1.163,1.163,0,0,0-.563-1L50.786,115.77a1.013,1.013,0,0,0-.855-.127Zm0,0" transform="translate(-38.88 -91.04)"/>
      <path id="Path_2377" data-name="Path 2377" class="cls-2" d="M49.677,139.7l20.914,12.3a1.117,1.117,0,0,0,1.543-.425,1.161,1.161,0,0,0-.417-1.572L50.8,137.728a1.117,1.117,0,0,0-1.543.425,1.16,1.16,0,0,0,.417,1.551Zm0,0" transform="translate(-38.897 -108.346)"/>
      <path id="Path_2378" data-name="Path 2378" class="cls-2" d="M71.682,171.908l-20.914-12.28a1.117,1.117,0,0,0-1.543.425,1.161,1.161,0,0,0,.417,1.572l20.914,12.3a1.074,1.074,0,0,0,1.126,0,1.138,1.138,0,0,0,.563-1,1.22,1.22,0,0,0-.563-1.02Zm0,0" transform="translate(-38.862 -125.593)"/>
      <path id="Path_2379" data-name="Path 2379" class="cls-2" d="M71.682,193.808l-20.914-12.28a1.117,1.117,0,0,0-1.543.425,1.161,1.161,0,0,0,.417,1.572l20.914,12.3A1.117,1.117,0,0,0,72.1,195.4a1.222,1.222,0,0,0-.417-1.593Zm0,0" transform="translate(-38.862 -142.84)"/>
      <path id="Path_2380" data-name="Path 2380" class="cls-2" d="M71.682,215.708l-20.914-12.28a1.117,1.117,0,0,0-1.543.425,1.161,1.161,0,0,0,.417,1.572l20.914,12.3A1.117,1.117,0,0,0,72.1,217.3a1.222,1.222,0,0,0-.417-1.593Zm0,0" transform="translate(-38.862 -160.088)"/>
      <path id="Path_2381" data-name="Path 2381" class="cls-2" d="M71.682,237.608l-20.914-12.28a1.117,1.117,0,0,0-1.543.425,1.161,1.161,0,0,0,.417,1.572l20.914,12.3A1.117,1.117,0,0,0,72.1,239.2a1.222,1.222,0,0,0-.417-1.593Zm0,0" transform="translate(-38.862 -177.335)"/>
      <path id="Path_2382" data-name="Path 2382" class="cls-2" d="M49.079,18.4a.2.2,0,0,0-.021-.106,1.368,1.368,0,0,0-.125-.382h0a1.2,1.2,0,0,0-.271-.3,1315.108,1315.108,0,0,1-.167-.127L19.012.127c-.042-.021-.083-.021-.125-.042A.919.919,0,0,0,18.47,0a.84.84,0,0,0-.229.021c-.063.021-.146.042-.209.064-.042.021-.083.021-.125.042l-4.9,2.889h0a1301.972,1301.972,0,0,0-.042.042L.6,11.345c-.021.021-.063.042-.083.085a.457.457,0,0,0-.1.085.445.445,0,0,0-.083.127,1.621,1.621,0,0,0-.188.382.537.537,0,0,0-.021.17c0,.042-.021.064-.021.106V61.229a1.163,1.163,0,0,0,.563,1L42.532,86.851h0a1.418,1.418,0,0,0,.167.064.547.547,0,0,0,.25.064c.042,0,.083.021.146.021h0a1.308,1.308,0,0,0,.563-.149l4.9-2.868c.042-.021.063-.064.1-.085a1.2,1.2,0,0,0,.167-.149,1.12,1.12,0,0,0,.209-.382.919.919,0,0,0,.042-.234.274.274,0,0,0,.021-.127V18.484a.13.13,0,0,1-.021-.085ZM12.444,6.119V17.336a.812.812,0,0,1-.021.212c-.063-.021-.146-.064-.209-.085L3.353,12.237Zm29.5,77.758L2.331,60.571V14.277l8.778,5.163a2.509,2.509,0,0,0,.688.3c.083.021.146.021.229.042a1.6,1.6,0,0,0,.459.064h.063a1.793,1.793,0,0,0,.334-.042.567.567,0,0,0,.188-.021,2.4,2.4,0,0,0,.542-.212,2.507,2.507,0,0,0,1.126-2.231V5.991L41.99,22.032V83.877Zm1.126-63.843L15.822,3.994l2.627-1.551,27.273,16.04Zm3.774,62.292L44.2,83.877V22.01l2.648-1.551Zm0,0" transform="translate(-0.1 0)"/>
    </g>
  </g>
</svg>
