<svg xmlns="http://www.w3.org/2000/svg" viewBox="0 0 160 160">
  <defs>
    <style>
      .cls-1, .cls-4 {
        fill: none;
      }

      .cls-1 {
        stroke: #d5d5d5;
        stroke-width: 2px;
      }

      .cls-2 {
        fill: #74be21;
      }

      .cls-3 {
        stroke: none;
      }
    </style>
  </defs>
  <g id="icon-03" transform="translate(46 45)">
    <g id="Symbol_2_79" data-name="Symbol 2 – 79" transform="translate(11 -5)">
      <g id="Ellipse_119" data-name="Ellipse 119" class="cls-1" transform="translate(-57 -40)">
        <circle class="cls-3" cx="80" cy="80" r="80"/>
        <circle class="cls-4" cx="80" cy="80" r="79"/>
      </g>
    </g>
    <g id="icon_date" data-name="icon date" transform="translate(0 -8)">
      <path id="Path_2383" data-name="Path 2383" class="cls-2" d="M42.563,150.609a1.138,1.138,0,0,0-.563,1v23.264a1.163,1.163,0,0,0,.563,1l23.9,14.043a1.074,1.074,0,0,0,1.126,0,1.138,1.138,0,0,0,.563-1V165.651a1.163,1.163,0,0,0-.563-1L43.668,150.609a1.038,1.038,0,0,0-1.105,0Zm11.364,29.3-3.732-2.188v-3.166l3.732,2.188Zm0-5.821L50.194,171.9v-3.166l3.732,2.188Zm0-8.668v2.868l-3.711-2.21V162.91l3.774,2.231c-.021.085-.042.17-.063.276Zm5.984,17.995-3.732-2.188v-3.166l3.732,2.188Zm0-5.821L56.179,175.4v-3.166l3.732,2.188Zm0-8.668v2.868L56.179,169.6v-3.166l3.774,2.231a.806.806,0,0,0-.042.255Zm5.963,18.016-3.732-2.188v-3.166l3.732,2.188Zm0-5.821-3.732-2.188v-3.166l3.732,2.188Zm0-5.821-3.732-2.188v-3.166l3.294,1.933a.76.76,0,0,0,.438.127V175.3ZM44.231,153.584,65.874,166.31v3.166L44.231,156.749Zm0,5.821,3.795,2.21c-.021.085-.042.191-.063.276v2.868l-3.732-2.188V159.4Zm0,5.8,3.732,2.188v3.166l-3.732-2.188V165.2Zm0,5.821,3.732,2.188v3.166l-3.732-2.188v-3.166Zm0,0" transform="translate(-23.263 -118.486)"/>
      <path id="Path_2384" data-name="Path 2384" class="cls-2" d="M49.079,18.4a.2.2,0,0,0-.021-.106,1.368,1.368,0,0,0-.125-.382h0a1.7,1.7,0,0,0-.25-.3,2378.356,2378.356,0,0,1-.167-.127L19.012.127a.293.293,0,0,0-.125-.042A.738.738,0,0,0,18.657,0h-.209a.7.7,0,0,0-.209.021,1,1,0,0,0-.229.085c-.042.021-.083.021-.125.042L13.007,3.017h0a522.686,522.686,0,0,0-.042.042L.6,11.345c-.021.021-.063.042-.083.085a.457.457,0,0,0-.1.085.445.445,0,0,0-.083.127,1.592,1.592,0,0,0-.146.255.689.689,0,0,0-.063.3c0,.042-.021.064-.021.106V61.229a1.163,1.163,0,0,0,.563,1L42.532,86.851h0a1.416,1.416,0,0,0,.167.064.547.547,0,0,0,.25.064c.042,0,.083.021.146.021h0a1.308,1.308,0,0,0,.563-.149l4.9-2.868c.042-.021.063-.064.1-.085a1.2,1.2,0,0,0,.167-.149,1.121,1.121,0,0,0,.209-.382.919.919,0,0,0,.042-.234.274.274,0,0,0,.021-.127V18.484a.13.13,0,0,1-.021-.085ZM12.444,6.119V17.336a.812.812,0,0,1-.021.212c-.063-.021-.146-.064-.209-.085L3.353,12.237Zm29.5,77.758L2.331,60.571V14.277l8.778,5.163a2.509,2.509,0,0,0,.688.3c.063.021.146.021.209.042a1.707,1.707,0,0,0,.459.064h.063a1.581,1.581,0,0,0,.313-.042.768.768,0,0,0,.209-.021,2.4,2.4,0,0,0,.542-.212,2.507,2.507,0,0,0,1.126-2.231V5.991l27.252,16.04Zm1.126-63.843L15.822,3.994l2.627-1.551,27.273,16.04Zm3.774,62.292L44.2,83.877V22.01l2.648-1.551Zm0,0" transform="translate(9.9)"/>
    </g>
  </g>
</svg>
