<svg xmlns="http://www.w3.org/2000/svg" viewBox="0 0 31.25 40">
    <defs>
        <style>
            .cls-1{fill:#74be21}
        </style>
    </defs>
    <g id="icon_server" data-name="icon server" transform="translate(-1026 -5223)">
        <path id="Path_3402" d="M6.609 40.458l10.684 6.231a.46.46 0 0 0 .309.062.553.553 0 0 0 .309-.062.636.636 0 0 0 .309-.5v-6.417a.555.555 0 0 0-.309-.5L7.226 33.043a.557.557 0 0 0-.618 0 .636.636 0 0 0-.309.5V39.9a.656.656 0 0 0 .31.558zm.926-.872V34.6l.926.561v4.984zm2.1 1.246v-4.985l.926.561v4.984zm2.165 1.246v-4.985l.926.561v4.984zm2.1 1.246v-4.985l.926.561v4.984zm2.162 1.246v-4.985l.926.561v4.984z" class="cls-1" data-name="Path 3402" transform="translate(1023.591 5210.58)"/>
        <path id="Path_3403" d="M27.259 47.993a1.741 1.741 0 0 0 .8.249 1.79 1.79 0 0 0 .556-.125 1.353 1.353 0 0 0 .618-1.184 2.954 2.954 0 0 0-1.359-2.368 1.332 1.332 0 0 0-1.359-.062 1.353 1.353 0 0 0-.618 1.184 2.937 2.937 0 0 0 1.362 2.306zm-.185-2.368V45.5c.062 0 .124 0 .124.062a1.971 1.971 0 0 1 .8 1.371v.125c-.062 0-.124 0-.124-.062a1.971 1.971 0 0 1-.801-1.37z" class="cls-1" data-name="Path 3403" transform="translate(1016.096 5206.284)"/>
        <path id="Path_3404" d="M3.718 38.962a.622.622 0 0 0 .618-.623v-6.916a.622.622 0 0 0-.618-.623.586.586 0 0 0-.618.623v6.916a.622.622 0 0 0 .618.623z" class="cls-1" data-name="Path 3404" transform="translate(1024.815 5211.39)"/>
        <path id="Path_3405" d="M28.747 51.953l-1.42-.81a.557.557 0 0 0-.618 0 .636.636 0 0 0-.309.5.555.555 0 0 0 .309.5l1.42.81a.609.609 0 0 0 .8-.249c.25-.19.127-.564-.182-.751z" class="cls-1" data-name="Path 3405" transform="translate(1015.904 5203.757)"/>
        <path id="Path_3406" d="M28.769 55.957l-1.42-.81a.543.543 0 0 0-.8.249.552.552 0 0 0 .247.81l1.42.81a.6.6 0 0 0 .556-1.059z" class="cls-1" data-name="Path 3406" transform="translate(1015.882 5202.246)"/>
        <path id="Path_3407" d="M6.609 23.3l10.684 6.231a.46.46 0 0 0 .309.062.553.553 0 0 0 .309-.062.636.636 0 0 0 .309-.5v-6.359a.555.555 0 0 0-.309-.5L7.226 15.943a.557.557 0 0 0-.618 0 .636.636 0 0 0-.309.5V22.8a.555.555 0 0 0 .31.5zm.926-.872v-4.989l.927.561v4.984zm2.1 1.246v-4.989l.926.561v4.984zm2.165 1.241v-4.984l.926.561v4.984zm2.1 1.246v-4.984l.926.561v4.984zm2.162 1.246v-4.984l.926.561v4.984z" class="cls-1" data-name="Path 3407" transform="translate(1023.591 5217.025)"/>
        <path id="Path_3408" d="M27.259 30.893a1.741 1.741 0 0 0 .8.249 1.79 1.79 0 0 0 .556-.125 1.353 1.353 0 0 0 .618-1.184 2.954 2.954 0 0 0-1.359-2.368 1.332 1.332 0 0 0-1.359-.062 1.353 1.353 0 0 0-.618 1.184 3.143 3.143 0 0 0 1.362 2.306zm-.185-2.43v-.125c.062 0 .124 0 .124.062a1.971 1.971 0 0 1 .8 1.371v.129c-.062 0-.124 0-.124-.062a1.971 1.971 0 0 1-.801-1.375z" class="cls-1" data-name="Path 3408" transform="translate(1016.096 5212.73)"/>
        <path id="Path_3409" d="M3.718 21.762a.622.622 0 0 0 .618-.623v-6.916a.568.568 0 0 0-.185-.436.593.593 0 0 0-.865 0 .568.568 0 0 0-.185.436v6.916a.622.622 0 0 0 .617.623z" class="cls-1" data-name="Path 3409" transform="translate(1024.815 5217.874)"/>
        <path id="Path_3410" d="M28.769 34.757l-1.42-.81a.543.543 0 0 0-.8.249.552.552 0 0 0 .247.81l1.42.81a.459.459 0 0 0 .309.062.553.553 0 0 0 .309-.062.636.636 0 0 0 .309-.5.908.908 0 0 0-.374-.559z" class="cls-1" data-name="Path 3410" transform="translate(1015.882 5210.237)"/>
        <path id="Path_3411" d="M28.769 38.757l-1.42-.81a.538.538 0 0 0-.432-.062c-.124.062-.309.125-.371.312a.552.552 0 0 0 .247.81l1.42.81a.609.609 0 0 0 .8-.249.577.577 0 0 0-.244-.811z" class="cls-1" data-name="Path 3411" transform="translate(1015.882 5208.729)"/>
        <path id="Path_3412" d="M31.126 12.523a.23.23 0 0 0-.062-.187c-.062-.062-.062-.125-.124-.125a.061.061 0 0 1-.062-.062L10.19.062h-.062c-.062 0-.062 0-.124-.062h-.246C9.7 0 9.7 0 9.634.062h-.061L.309 5.483c-.062.062-.124.062-.185.125v.062c-.062.062-.062.125-.124.187v21.557a.555.555 0 0 0 .309.5l20.627 12.024c.062 0 .062.062.124.062h.247a.553.553 0 0 0 .309-.062l9.326-5.421.058-.062.185-.187a.218.218 0 0 0 .062-.125V12.586c-.124 0-.124 0-.124-.062zm-10.5 5.857v9.283L1.173 16.386V7.04zm0 10.716v9.284L1.173 27.04v-9.283zm8.708-16.511l-8.09 4.735L1.791 6.044l8.09-4.735zm.618 1.059v9.283l-8.09 4.735V18.38zm0 10.716v9.283l-8.09 4.735V29.1z" class="cls-1" data-name="Path 3412" transform="translate(1026 5223)"/>
    </g>
</svg>
