<svg xmlns="http://www.w3.org/2000/svg" viewBox="0 0 33.231 40">
    <defs>
        <style>
            .cls-1{fill:#74be21}
        </style>
    </defs>
    <g id="icon_settings" data-name="icon settings" transform="translate(0 .175)">
        <path id="Path_3428" d="M26.172 29.759c-.979-3.391-3.731-6.227-6.239-6.474a2.869 2.869 0 0 0-2.569.987c-.918 1.11-1.1 3.021-.489 5.056.979 3.391 3.731 6.227 6.239 6.474h.428a2.686 2.686 0 0 0 2.141-1.048c.917-1.048 1.1-2.96.489-4.995zm-6.3-1.911A9.952 9.952 0 0 0 24.7 33.89l-.061.062a1.377 1.377 0 0 1-1.407.493c-1.9-.185-4.282-2.713-5.077-5.549a4.226 4.226 0 0 1 .245-3.761 1.483 1.483 0 0 1 1.1-.555h.061a8.391 8.391 0 0 0 .31 3.268zm1.04-2.9a8.709 8.709 0 0 1 3.976 5.179 5.674 5.674 0 0 1 .245 2.466 9.025 9.025 0 0 1-4.037-5.179 6.543 6.543 0 0 1-.185-2.464z" class="cls-1" data-name="Path 3428" transform="translate(-6.414 -8.986)"/>
        <path id="Path_3429" d="M33.093 24.842a.373.373 0 0 0-.061-.247c0-.062-.061-.062-.061-.123l-.061-.062-.122-.123h-.122a.06.06 0 0 1-.061-.062c-1.223-.37-2.63-2.22-3.242-4.254a3.746 3.746 0 0 1 .061-3.083l.673-.308a.65.65 0 0 0 .306-.863 37.239 37.239 0 0 0-3.12-5.487.641.641 0 0 0-.551-.308.548.548 0 0 0-.306.062l-.918.432A4.372 4.372 0 0 1 23 8.935c-1.468-1.542-2.324-3.7-2.019-4.935v-.429c0-.062-.061-.062-.061-.123v-.062a.06.06 0 0 0-.061-.062l-.059-.062A22.344 22.344 0 0 0 16.271.611a.842.842 0 0 0-.551 0l-3 1.48h-.061a.06.06 0 0 0-.061.062l-.061.062-.061.062a.06.06 0 0 1-.061.062c0 .062 0 .062-.061.123v.432A5.382 5.382 0 0 1 10.215.241a.554.554 0 0 0-.367-.37.842.842 0 0 0-.551 0L6.729 1.166l-.367.185A8.534 8.534 0 0 0 3 3.386a.744.744 0 0 0-.061.925A6.161 6.161 0 0 1 4.16 7.64a.836.836 0 0 0-.673-.062l-3 1.48-.059.062-.183.18a.216.216 0 0 0-.061.123v.247a18.8 18.8 0 0 0 0 5.241.75.75 0 0 0 .489.555c1.223.37 2.63 2.22 3.242 4.254a4.173 4.173 0 0 1 0 3.021.623.623 0 0 1-.489.308.608.608 0 0 0-.489.37.564.564 0 0 0 0 .617 37.239 37.239 0 0 0 3.12 5.487.641.641 0 0 0 .551.308.662.662 0 0 0 .551-.247.594.594 0 0 1 .551-.247 4.274 4.274 0 0 1 2.63 1.541c1.468 1.541 2.324 3.7 2.019 4.933a.687.687 0 0 0 .245.678 22.344 22.344 0 0 0 4.527 2.651c.061 0 .122.062.184.062h.061a.224.224 0 0 0 .184-.062l3-1.541a.7.7 0 0 0 .367-.74v-.123a5.382 5.382 0 0 1 2.141 2.651.737.737 0 0 0 .612.432h.184a6.52 6.52 0 0 0 1.9-.8.06.06 0 0 0 .061-.062L28.2 37.79a9.193 9.193 0 0 0 2.019-1.418.664.664 0 0 0 .061-.863 6.179 6.179 0 0 1-1.223-3.391.465.465 0 0 0 .306.123h.122a.224.224 0 0 0 .184-.062h.061l3-1.48a.958.958 0 0 0 .367-.493 26.17 26.17 0 0 0-.004-5.364zm-9.665-13.38c-.061.062-.184.123-.184.185a.594.594 0 0 1-.551.247 3.993 3.993 0 0 1-2.63-1.541 2.411 2.411 0 0 1-.489-.617c0-.062-.061-.062-.061-.123l-.061-.062c-.122-.123-.184-.308-.306-.432-.061-.061-.061-.119-.122-.119l-.061-.123-.184-.37a.228.228 0 0 1-.061-.185l-.061-.062-.184-.37c0-.062-.061-.123-.061-.185V7.64c-.061-.123-.061-.247-.122-.37 0-.062-.061-.185-.061-.247v-.061a2.689 2.689 0 0 0-.061-.308.373.373 0 0 0-.061-.247V5.79l1.468-.863a8.777 8.777 0 0 0 2.446 4.933 7.825 7.825 0 0 0 1.779 1.418zM17.372 4.5c-.122-.062-.245-.185-.367-.247l-.305-.189c-.061-.062-.122-.123-.184-.123-.367-.247-.734-.432-1.04-.617-.184-.123-.428-.247-.612-.37l-.184-.123c-.061-.062-.122-.062-.184-.123l1.468-.74a29.411 29.411 0 0 1 3.059 1.665zm8.564 9.865l-.061-.062c-.245-.37-.489-.8-.734-1.171-.061-.062-.122-.185-.184-.247l-.184-.308a.321.321 0 0 1-.122-.247l1.162-.555a2.155 2.155 0 0 0 .673-.185 34.022 34.022 0 0 1 2.324 4.131l-1.774.925c-.061-.123-.122-.185-.122-.308l-.184-.37c-.061-.062-.061-.185-.122-.247a6.982 6.982 0 0 0-.672-1.36zm3.181 11.1c-.061 0-.061-.062-.122-.062s-.061-.062-.122-.062-.061-.062-.122-.062-.061-.062-.122-.123l-.122-.123-.122-.123-.122-.123-.122-.123a.192.192 0 0 0-.061-.123l-.122-.123-.122-.123-.122-.123c-.061-.062-.061-.123-.122-.185 0-.062-.061-.062-.061-.123-.061-.062-.061-.123-.122-.185l-.122-.123c0-.062-.061-.062-.061-.123v-.062c0-.062-.061-.123-.061-.185s-.061-.123-.122-.185l-.061-.185a.216.216 0 0 0-.061-.123l-.122-.185a.216.216 0 0 0-.061-.123l-.061-.185c0-.062-.061-.123-.061-.247l-.061-.123c-.061-.123-.061-.247-.122-.37a4.173 4.173 0 0 1 0-3.021.623.623 0 0 1 .489-.308c.061 0 .122-.062.245-.062l.673-.308a6.579 6.579 0 0 0 .306 2.651 9.183 9.183 0 0 0 2.936 4.5l-1.59.8h-.122c-.061 0-.061-.062-.122-.062-.07-.129-.131-.129-.131-.191zM12.112 4.5a.74.74 0 0 1-.306.308l.122.123-.122-.062c-.061 0-.061.062-.122.062a.06.06 0 0 0-.061.062.213.213 0 0 0-.122.062h-.551a1.43 1.43 0 0 1-.489-.123.06.06 0 0 1-.061-.062h-.061c-.306 0-.367 0-.489-.062-.061 0-.061-.062-.122-.062l-.063-.066c-.122-.062-.184-.123-.306-.185-.061-.062-.122-.062-.122-.123l-.061-.062a.845.845 0 0 1-.245-.185C8.87 4.064 8.809 4 8.747 4l-.061-.062-.245-.247-.184-.185a1.343 1.343 0 0 1-.244-.306c-.061-.062-.122-.185-.184-.247-.061-.123-.122-.185-.184-.308a.469.469 0 0 1-.121-.245L9.3 1.536A6.887 6.887 0 0 0 12.112 4.5zM3.059 9.86h-.551a.459.459 0 0 0-.245-.06l-.063.121v-.185L3.731 9c.061.062.122.062.184.123a1.45 1.45 0 0 1-.856.737zm13.763 26.512a1.919 1.919 0 0 0-.122.493v.37a17.817 17.817 0 0 1-2.936-1.788c.184-1.665-.856-4.008-2.447-5.734A5.112 5.112 0 0 0 7.646 27.8a1.4 1.4 0 0 0-.856.247 33.241 33.241 0 0 1-2.324-4.069 2.912 2.912 0 0 0 .612-.617 5.171 5.171 0 0 0 .184-4.131 8.487 8.487 0 0 0-3.731-4.994 20.933 20.933 0 0 1-.061-3.391c.122.062.184.062.306.123h.061a1.43 1.43 0 0 0 .489.123h.061a2.941 2.941 0 0 0 1.04 0 2.865 2.865 0 0 0 1.834-1.54 2.22 2.22 0 0 0 .245-.678 7.152 7.152 0 0 0-.979-4.994 6.769 6.769 0 0 1 1.835-1.048v.062l.061.062a.216.216 0 0 0 .061.123c0 .062.061.123.122.185s.061.123.122.185.061.123.122.185.061.123.122.185.061.123.122.185.061.123.122.185.061.123.122.123c.061.062.122.123.122.185.061.062.061.123.122.123l.122.123.122.123c.061.062.122.123.184.123.061.062.122.062.122.123.061.062.122.062.184.123l.122.123a.321.321 0 0 0 .122.247c.061 0 .061.062.122.062.061.062.122.062.184.123.061 0 .061.062.122.062s.122.062.184.123l.122.062c.061 0 .122.062.184.062h.061c.061 0 .061 0 .122.062.061 0 .122.062.184.062h.122c.061 0 .122.062.245.062h.122c.122 0 .245.062.367.062h.673a.548.548 0 0 0 .306-.062c.061 0 .122-.062.184-.062a.462.462 0 0 0 .245-.123c.061 0 .122-.062.184-.062.061-.062.184-.123.245-.185.061 0 .061-.062.122-.062l.184-.185.061-.062.122-.123c.061-.062.122-.185.184-.247l.061-.062c0-.062.061-.062.061-.123.061-.123.122-.185.122-.308v-.061c0-.062.061-.062.061-.123A1.46 1.46 0 0 0 13.641 4v-.059c0-.123.061-.247.061-.37l.245.123c.367.185.673.37.979.555s.612.37.979.617c.061.062.122.062.184.123l.122.062c.122.123.306.185.428.308v.555c0 .247.061.432.061.678v.062c.061.247.122.432.184.678v.062a4.708 4.708 0 0 0 .245.678l.061.123c.122.247.184.432.306.678l.06.127c.122.247.245.432.367.678l.061.062c.184.247.306.432.489.678l.061.062a5.544 5.544 0 0 0 .551.617 2.837 2.837 0 0 0 .428.432l.122.062c.122.123.245.185.367.308l.122.062c.122.062.245.185.367.247l.061.062h.061a1.335 1.335 0 0 1 .306.185c.061 0 .061.062.122.062h.059c.122.062.184.123.306.123.061 0 .061.062.122.062h.061c.061 0 .184.062.245.062a.224.224 0 0 1 .184.062h.061a.224.224 0 0 1 .184.062h.489c.184 0 .306-.062.489-.062.061 0 .061 0 .122-.062h.061a.462.462 0 0 0 .245-.123c.122.123.184.308.306.432l.061.123a.321.321 0 0 1 .122.247c.306.432.489.863.734 1.233s.428.8.673 1.233c.061.062.061.185.122.247l.061.123A1.549 1.549 0 0 0 26 16.7c-.061.062-.122.123-.184.123h-.061l-.061.062a1.632 1.632 0 0 0-.306.37 5.171 5.171 0 0 0-.188 4.135 1.15 1.15 0 0 1 .122.432l.061.185c.061.123.061.185.122.308l.061.185c0 .062.061.123.122.185a.216.216 0 0 0 .061.123v.062c.061.062.061.123.122.185l.122.185c.061.062.061.123.122.185s.061.123.122.185.061.123.122.185.061.123.122.185.061.123.122.185l.122.185c.061.062.061.123.122.185s.061.123.122.185l.184.185.122.123.184.185.122.123.184.185c.061.062.061.062.122.062.061.062.122.123.184.123h.061l.061.062c.061.062.122.123.184.123l.122.062c.122.062.184.123.306.185.061.062.122.062.184.123a4.7 4.7 0 0 1 .061.925c0 .37.061.678.061 1.11v1.418a.06.06 0 0 1-.061-.062 2.6 2.6 0 0 0-2.141-.185 2.442 2.442 0 0 0-1.529 1.48 6.316 6.316 0 0 0 .8 5.611 5.1 5.1 0 0 1-.734.493l-.061.062a7.934 7.934 0 0 1-1.04.493 6.828 6.828 0 0 0-3.545-3.268 2.438 2.438 0 0 0-.918-.185h-.367a1.337 1.337 0 0 0-.489.062h-.061c-.122.062-.306.062-.428.123-.061 0-.061 0-.122.062l-.367.185-.061.062c-.122.123-.245.185-.367.308s-.184.247-.306.37c0 .062-.061.062-.061.123-.37.678-.431.801-.431.924zm9.3-2.9v-.308a.788.788 0 0 1 .061-.37v-.185c.061-.185.122-.308.184-.493.061-.062.061-.185.122-.247l.061-.062c.061-.062.061-.123.184-.185.061-.062.122-.123.184-.123h.061a.224.224 0 0 1 .184-.062l-.061-.123.122.123c.061 0 .122-.062.245-.062v-.123l.061.123h.367a6.919 6.919 0 0 0 1.1 4.378 8.394 8.394 0 0 1-1.223.8l-.428.247c0-.062-.061-.062-.061-.123l-.122-.123c-.061-.062-.061-.123-.122-.185-.061-.123-.122-.185-.122-.308l-.061-.185c0-.062-.061-.123-.061-.185-.061-.123-.061-.185-.122-.308l-.061-.185c0-.062-.061-.123-.061-.185a.56.56 0 0 1-.061-.308l-.061-.185a.228.228 0 0 0-.061-.185.56.56 0 0 0-.061-.308v-.308a.23.23 0 0 1-.189-.245zm-8.136 3.7c.061-.123.061-.247.122-.37a.06.06 0 0 1 .061-.062c.061-.123.122-.185.184-.308l.184-.185h.122c.061 0 .122-.062.184-.062s.061 0 .122-.062a.224.224 0 0 0 .184-.062h.551v.439l-1.652.8c-.125-.065-.064-.065-.064-.126zm11.253-11.466zM16.944 36.5zm13.213-9.742l1.713-.863a17.476 17.476 0 0 1-.061 3.576l-1.59.8V28.85a12.012 12.012 0 0 0-.062-2.096zm-9.42-23.249zM.367 9.49zm25.386 29.225z" class="cls-1" data-name="Path 3429"/>
        <path id="Path_3430" d="M22.852 37.712h.122a4.628 4.628 0 0 0 3.609-1.726c1.59-1.911 1.9-5.3.8-8.94C25.544 21 20.528 15.7 16.123 15.269a4.805 4.805 0 0 0-4.343 1.665c-1.59 1.911-1.9 5.3-.8 8.94 1.774 6.042 6.851 11.345 11.255 11.776a1.871 1.871 0 0 0 .617.062zM12.27 25.5c-.979-3.206-.734-6.1.551-7.707a3.236 3.236 0 0 1 2.569-1.233H16c3.854.432 8.38 5.3 10.032 10.852.979 3.206.734 6.1-.551 7.707a3.443 3.443 0 0 1-3.181 1.175c-3.852-.37-8.379-5.241-10.03-10.794z" class="cls-1" data-name="Path 3430" transform="translate(-4.012 -5.902)"/>
    </g>
</svg>
