<svg xmlns="http://www.w3.org/2000/svg" viewBox="0 0 28 42">
    <defs>
        <style>
            .cls-1{fill:#74be21}
        </style>
    </defs>
    <g id="smartphone_2_" data-name="smartphone (2)" transform="translate(-86.337 .001)">
        <path id="Path_2506" d="M169.969 395.685l-.882-.506a.883.883 0 0 0-.9-.027.987.987 0 0 0-.458.9v.812a1.766 1.766 0 0 0 .8 1.465l.882.506a.977.977 0 0 0 .486.137.814.814 0 0 0 .411-.11.987.987 0 0 0 .458-.9v-.812a1.766 1.766 0 0 0-.797-1.465zm-.317 2.007l-.564-.324a.72.72 0 0 1-.241-.507v-.542l.564.324a.718.718 0 0 1 .242.507zm.039.661l.278-.479z" class="cls-1" data-name="Path 2506" transform="translate(-74.674 -362.626)"/>
        <path id="Path_2507" d="M114.334 33.333V23.006a2.555 2.555 0 0 0-1.123-2.087l-7.62-4.371v-6.2a3.65 3.65 0 0 0-1.7-2.911L91.37.252a1.651 1.651 0 0 0-1.3-.2.556.556 0 0 0-.136.041C89.927.1 89.915.1 89.9.1c-.015.007-.032.007-.047.016l-2.778 1.601a.534.534 0 0 0-.093.082 1.515 1.515 0 0 0-.641 1.334v28.5a3.658 3.658 0 0 0 1.7 2.911l12.521 7.187a1.835 1.835 0 0 0 .91.265 1.383 1.383 0 0 0 .449-.082.556.556 0 0 0 .053-.018c.024-.009.05-.014.074-.024s.039-.024.058-.035l2.649-1.523.115-.066c.012-.008.018-.02.029-.029a1.519 1.519 0 0 0 .7-1.367v-5.14l4.171 2.394a1.23 1.23 0 0 0 .611.174 1 1 0 0 0 .511-.143l2.827-1.625.033-.016a.529.529 0 0 0 .056-.032 1.28 1.28 0 0 0 .526-1.131zM90.357 1.111h.018a.567.567 0 0 1 .443.1L103.34 8.4a2.562 2.562 0 0 1 1.139 1.953v5.557l-1.663-.954V11.95a3.664 3.664 0 0 0-1.7-2.916L88.834 1.985zm-2.9 4.643l3 1.724a.559.559 0 0 0 .556 0 .551.551 0 0 0 0-.958l-3.56-2.043V3.133c0-.22.056-.389.149-.432.062-.029.213-.021.435.1l12.522 7.187a2.577 2.577 0 0 1 1.141 1.962v2.368l-3.845-2.206a1.069 1.069 0 0 0-1.143-.015L93.9 13.711l-.05.027-.04.023a1.3 1.3 0 0 0-.52 1.123v10.328a2.556 2.556 0 0 0 1.127 2.088l7.286 4.181v3.613l-14.25-8.178zM101.57 40.87l-.022.012a.573.573 0 0 1-.434-.105l-12.522-7.188a2.569 2.569 0 0 1-1.139-1.953v-3.443L101.7 36.37v4.078a.545.545 0 0 1-.13.422zm2.909-2.014c0 .248-.074.395-.148.429-.013.006-.022.018-.034.025h-.012l-1.469.843v-3.785l1.663-.954zm-1.663-3.764v-2.973l1.663.954v1.063zm7.514-.1a.735.735 0 0 1-.015.154l-15.339-8.8a1.48 1.48 0 0 1-.57-1.131v-7.06l15.924 9.138zM94.405 16.875v-1.989a.6.6 0 0 1 .017-.154l15.338 8.8a1.48 1.48 0 0 1 .569 1.13v1.348zm18.816 6.131v10.327c0 .133-.027.194-.015.2l-.016.008-1.747 1v-9.876a2.555 2.555 0 0 0-1.123-2.087L95.5 14.072l1.754-1 .022-.014.029.015 15.35 8.806a1.48 1.48 0 0 1 .569 1.131z" class="cls-1" data-name="Path 2507"/>
        <path id="Path_2508" d="M322.591 361.059l1.5.863a.559.559 0 0 0 .556 0 .551.551 0 0 0 0-.958l-1.5-.863a.559.559 0 0 0-.556 0 .551.551 0 0 0 0 .958z" class="cls-1" data-name="Path 2508" transform="translate(-216.493 -330.484)"/>
        <path id="Path_2509" d="M261.887 326.014l2 1.151a.559.559 0 0 0 .556 0 .551.551 0 0 0 0-.958l-2-1.151a.558.558 0 0 0-.76.2.551.551 0 0 0 .204.758z" class="cls-1" data-name="Path 2509" transform="translate(-160.801 -298.315)"/>
        <path id="Path_2510" d="M207.257 294.474l1.5.863a.559.559 0 0 0 .556 0 .551.551 0 0 0 0-.958l-1.5-.863a.558.558 0 0 0-.76.2.551.551 0 0 0 .204.758z" class="cls-1" data-name="Path 2510" transform="translate(-110.681 -269.363)"/>
    </g>
</svg>
