<svg xmlns="http://www.w3.org/2000/svg" viewBox="0 0 65 64">
  <path d="M64.627,18.426,52.064,7.505a1.072,1.072,0,0,0-1.226-.125L48.226,8.895l-1.013-.588,1.546-.891a1.1,1.1,0,0,0,.533-1.033,1.081,1.081,0,0,0-.711-.909L32.855.023a1.013,1.013,0,0,0-.906.107S.48,18.355.444,18.373a1.265,1.265,0,0,0-.338.41.929.929,0,0,0-.089.481L0,44.686a1.07,1.07,0,0,0,.533.926L31.967,63.82a1.068,1.068,0,0,0,1.066,0L64.467,45.63A1.07,1.07,0,0,0,65,44.7V19.246a1.076,1.076,0,0,0-.373-.82ZM46.076,10.142,19.386,25.588a1.083,1.083,0,0,0-.533.82,1.1,1.1,0,0,0,.355.909L23.331,30.9,11.266,23.913l5.153,1.782a1.043,1.043,0,0,0,.888-.089L45.063,9.536ZM32.607,2.214l13.06,4.525-29,16.782L3.607,19ZM31.434,61.041,2.132,44.08v-23l29.3,16.96Zm1.191-24.924L21.75,26.675,51.229,9.607,62.1,19.05ZM62.868,44.1l-29.3,16.96v-23l29.3-16.96Zm0,0" transform="translate(0 0.037)" fill="#74be21"/>
</svg>
