<svg xmlns="http://www.w3.org/2000/svg" viewBox="0 0 61 65">
  <g transform="translate(0 0.004)" fill="#74be21">
    <path d="M172.367,275.46l-6.943-4.044a.987.987,0,0,0-1.016,0,1.026,1.026,0,0,0-.508.887v8.071a1.026,1.026,0,0,0,.508.887l6.943,4.044a1.013,1.013,0,0,0,1.016,0,1.026,1.026,0,0,0,.508-.887v-8.071a1.041,1.041,0,0,0-.508-.887Zm-1.524,7.184-4.911-2.85v-5.716l4.911,2.85Zm0,0" transform="translate(-136.144 -224.985)"/>
    <path d="M57.595,18.314,27.908,1.045A7.835,7.835,0,0,0,20.186.96L19,1.608a3.116,3.116,0,0,0-1.626,2.747V19.321l-6.842-3.993a7.835,7.835,0,0,0-7.722-.085s-1.236.683-1.27.7A3.086,3.086,0,0,0,0,18.638V40.822a5.289,5.289,0,0,0,2.625,4.573L35.563,64.558a3.181,3.181,0,0,0,1.541.427,3.088,3.088,0,0,0,1.49-.392l2.642-1.45a4.707,4.707,0,0,0,2.4-4.112V44.883l9.28,5.392a3.181,3.181,0,0,0,1.541.427,3.088,3.088,0,0,0,1.49-.392l2.642-1.45A4.707,4.707,0,0,0,61,44.747V24.338a6.837,6.837,0,0,0-3.4-6.024ZM19.424,6.54,55.546,27.563v5.7L19.424,12.239Zm0-2.355a1.063,1.063,0,0,1,.542-.768l.017-.017A1.073,1.073,0,0,1,21,3.417L53.937,22.58a3.238,3.238,0,0,1,1.592,2.594ZM2.032,20.823,38.171,41.846v5.716L2.032,26.539Zm.017-2.355a1.033,1.033,0,0,1,.525-.751,1.073,1.073,0,0,1,1.067,0L36.579,36.88a3.238,3.238,0,0,1,1.592,2.594Zm35.58,44.316a1.073,1.073,0,0,1-1.067,0L3.641,43.62a3.28,3.28,0,0,1-1.609-2.8V28.894L38.171,49.917V61.862a1.034,1.034,0,0,1-.542.921Zm4-3.771a2.652,2.652,0,0,1-1.355,2.321l-.068.034V39.678a5.289,5.289,0,0,0-2.625-4.573L5.47,16.437A5.835,5.835,0,0,1,9.5,17.1L39.187,34.372a4.9,4.9,0,0,1,2.439,4.249ZM55.021,48.5a1.074,1.074,0,0,1-1.067,0l-10.3-5.99V38.638A6.99,6.99,0,0,0,40.2,32.614l-20.8-12.1v-5.9L55.546,35.634V47.579a1.086,1.086,0,0,1-.525.921Zm4-3.771a2.652,2.652,0,0,1-1.355,2.321l-.085.034V25.4a5.289,5.289,0,0,0-2.625-4.573L22.862,2.137a5.835,5.835,0,0,1,4.03.666L56.579,20.072a4.9,4.9,0,0,1,2.439,4.249Zm0,0" transform="translate(0 0.012)"/>
    <path d="M274.967,191.76l-6.943-4.044a.987.987,0,0,0-1.016,0,1.026,1.026,0,0,0-.508.887v8.071a1.026,1.026,0,0,0,.508.887l6.943,4.044a1.014,1.014,0,0,0,1.016,0,1.025,1.025,0,0,0,.508-.887v-8.071a.986.986,0,0,0-.508-.887Zm-1.524,7.184-4.911-2.85v-5.717l4.911,2.85Zm0,0" transform="translate(-221.369 -155.568)"/>
  </g>
</svg>
