<svg xmlns="http://www.w3.org/2000/svg" viewBox="0 0 55 65">
  <path d="M0,28.058v10.8a1.051,1.051,0,0,0,.514.864l7.822,4.536L3.613,47.031a1.034,1.034,0,0,0-.5.864,1,1,0,0,0,.5.864l.58.332c-.017.216-.033.432-.033.665,0,2.442,1.359,4.353,3.1,4.353a2.932,2.932,0,0,0,2.519-1.794l12.544,7.261a1.06,1.06,0,0,0,.5.133h.017a5.518,5.518,0,0,0-.066.914c0,2.442,1.359,4.353,3.1,4.353s3.1-1.911,3.1-4.353a5.085,5.085,0,0,0-1.293-3.572l10.771-6.23a6.057,6.057,0,0,0-.05.8c0,2.442,1.359,4.353,3.1,4.353s3.1-1.911,3.1-4.353a5.061,5.061,0,0,0-1.309-3.589l1.873-1.08a1,1,0,0,0,.5-.864V35.351l3.066-15.983,2.9-5.034L54.5,12.656a1,1,0,0,0,0-1.728L35.794.112a.97.97,0,0,0-.994,0L31.684,1.923a.964.964,0,0,0-.365.366l-3,5.217L.414,27.244A.993.993,0,0,0,0,28.058ZM40.384,51.617c0-1.429.663-2.359,1.11-2.359s1.11.947,1.11,2.359c0,1.429-.663,2.359-1.11,2.359s-1.11-.947-1.11-2.359Zm-19.67-3.672V39.372l13.075-9.254,8.866,5.134ZM45.919,19.1l-12.23,8.656-6.629-3.838L29.779,9.765ZM12.346,33.457l13.605-7.875L31.9,29.021,19.67,37.677Zm33.971-12.2L43.93,33.69l-8.352-4.835ZM18.726,39.439v8.507L3,38.857,10.34,34.6ZM2.005,37.129l-.017-7.344,6.363,3.672Zm.829-9.155L27.624,10.43,25.056,23.788l-14.7,8.507ZM32.546,4.149l16.969,9.819-2.121,3.688L30.425,7.821Zm18.328,8.307-16.7-9.67L35.3,2.139,52,11.809ZM43.649,45.5,32.181,52.149l-7.358-4.27,18.825-10.9ZM24.774,60.622c0-1.429.663-2.359,1.11-2.359s1.11.947,1.11,2.359c0,1.429-.663,2.359-1.11,2.359s-1.11-.947-1.11-2.359ZM8.352,49.175,6.529,48.111c.232-.465.53-.731.762-.731.365,0,.911.7,1.061,1.794ZM6.2,50.221,8.07,51.3c-.232.515-.547.8-.8.8-.381.017-.945-.714-1.077-1.877ZM10.324,45.4l8.882,5.134a1,1,0,0,0,.994,0h0l2.618-1.512,7.358,4.27-7.358,4.27L10.34,50.321c.017-.183.033-.382.033-.582a4.941,4.941,0,0,0-1.326-3.589Zm0,0" transform="translate(0 0.025)" fill="#74be21"/>
</svg>
