<svg xmlns="http://www.w3.org/2000/svg" viewBox="0 0 61 64">
  <g transform="translate(0.2 0.025)" fill="#74be21">
    <path d="M60.8,41.767a1,1,0,0,0-.5-.87l-5.124-2.979V25.45a1,1,0,0,0-.5-.87l-7.918-4.6v-4.2l4.125,2.393a1,1,0,0,0,1,0L54.7,16.53a1,1,0,0,0,.5-.87V9.133a1,1,0,0,0-.5-.87L40.639.113a.971.971,0,0,0-1,0L36.829,1.736h0a1,1,0,0,0-.5.87V9.133a1,1,0,0,0,.5.87l7.918,4.6v4.2L26.582,8.263a.971.971,0,0,0-1,0l-8.417,4.9a.969.969,0,0,0-.366.368h0L8.367,28.212a.963.963,0,0,0-.133.569v2.611L3.11,34.37a1,1,0,0,0-.5.87v2.678L.3,39.257a1,1,0,0,0-.5.87v6.527a1,1,0,0,0,.5.87l28.08,16.317a1,1,0,0,0,1,0L34.5,60.862,36.813,62.2a.971.971,0,0,0,1,0L60.783,48.863c-.183.117,0-.218,0-.586v-6.51ZM52.383,15.56v-4.2l.815-.469v4.2ZM40.14,2.138l12.044,7-.815.469-12.044-7Zm-1.8,2.209,12.044,7v4.2l-12.044-7Zm0,40.951L46.494,31.09l6.687-3.883V41.2L38.326,49.834V45.3ZM26.1,10.3,44.764,21.149V24.7a1,1,0,1,0,2,0V22.321l5.423,3.146L45.762,29.2,19.679,14.037Zm-8.051,5.1L44.4,30.722,36.979,43.658,10.613,28.346Zm-7.8,15.045L36.33,45.6v4.2L10.247,34.655ZM18.431,45l-3.593,2.125-7.4-4.3v-4.2Zm1,4.77-2.6-1.506,2.6-1.523ZM5.439,38.6V41.65L2.828,40.127ZM27.913,61.23,1.829,46.068v-4.2L27.913,57.03Zm1-5.941-7.5-4.351v-4.2L32.521,53.2Zm4.624,3.832L29.909,61.23v-4.2l3.626-2.109Zm2.811.469-.815-.469v-4.2l.815.469Zm1-5.941L5.639,35.24l2.628-1.523V35.24a1,1,0,0,0,.5.87l28.08,16.3a1,1,0,0,0,1,0L54.7,42.621a1,1,0,0,0,.5-.87V40.228l2.628,1.523ZM58.8,47.708,38.326,59.59v-4.2L58.8,43.508Zm0,0" transform="translate(0 0)"/>
    <path d="M105.743,117.719a1,1,0,0,0-.366-1.372L82.57,103.109a.986.986,0,0,0-1.364.368l-5.373,9.372a1.031,1.031,0,0,0-.1.77.989.989,0,0,0,.466.6l22.806,13.238a1.061,1.061,0,0,0,.5.134,1.649,1.649,0,0,0,.266-.033.941.941,0,0,0,.6-.469Zm-3.56,2.192-7.635-4.435,1.331-2.326,7.635,4.435Zm-3.044,5.305L78.062,112.983l4.375-7.631,11.711,6.795-1.83,3.2a1,1,0,0,0,.366,1.372l8.5,4.937Zm0,0" transform="translate(-63.274 -85.759)"/>
    <path d="M125.195,138.473l-5.623-3.263a.986.986,0,0,0-1.364.368,1,1,0,0,0,.366,1.372l5.623,3.263a1.061,1.061,0,0,0,.5.134,1,1,0,0,0,.5-1.874Zm0,0" transform="translate(-98.596 -112.487)"/>
  </g>
</svg>
