<svg xmlns="http://www.w3.org/2000/svg" viewBox="0 0 64 56">
  <g transform="translate(0 0.025)" fill="#74be21">
    <path d="M63.491,25.269,20.143.12a1.022,1.022,0,0,0-1.05,0L.525,10.9A1.056,1.056,0,0,0,0,11.815V29.771a1.056,1.056,0,0,0,.525.915L43.856,55.834a1.05,1.05,0,0,0,1.05,0L63.474,45.054A1.056,1.056,0,0,0,64,44.139V26.183a1.02,1.02,0,0,0-.508-.915ZM15.505,36.929,2.1,29.155V27.995l13.405,7.773Zm0-3.588L2.1,25.568V24.407L15.505,32.18Zm0-3.588L2.1,21.98V20.819l13.405,7.773Zm0-3.588L2.1,18.375V17.214l13.405,7.773Zm0-3.588L2.1,14.787V13.627L15.505,21.4ZM3.15,11.815l16.468-9.55,13.37,7.756-16.52,9.532ZM27.861,44.1,17.605,38.16V22.631l10.255,5.944ZM18.585,20.767l16.52-9.532L45.379,17.2,28.736,26.658ZM43.331,53.091l-13.37-7.756V44.174l13.37,7.756Zm0-3.588-13.37-7.756V40.587l13.37,7.756Zm0-3.605-13.37-7.756V36.982l13.37,7.756Zm0-3.588-13.37-7.756V33.394l13.37,7.756Zm0-3.588-13.37-7.756V29.806l13.37,7.756Zm1.05-2.99L30.836,27.872,47.479,18.41l13.388,7.773Zm17.535,7.791L45.431,53.091V51.93L61.9,42.381v1.143Zm0-3.588-16.468,9.55V48.342l16.468-9.567Zm0-3.588L45.449,45.915V44.755l16.468-9.549Zm0-3.588L45.449,42.31V41.15L61.916,31.6Zm0-3.605L45.449,38.7V37.544l16.468-9.55Zm0,0" transform="translate(0 0)"/>
    <path d="M152.848,80.8a1.1,1.1,0,0,0,.227-1.337,1.036,1.036,0,0,0-1.435-.369l-.648.387a7.434,7.434,0,0,0-6.475.492l-.017.018a2.747,2.747,0,0,0-.91,3.851l-3.85,2.269a.654.654,0,0,1-.14-.4.644.644,0,0,1,.315-.545,1.048,1.048,0,0,0,.385-1.442,1.038,1.038,0,0,0-1.435-.387,2.714,2.714,0,0,0-1.365,2.374,2.664,2.664,0,0,0,.438,1.477,1.059,1.059,0,0,0,.683,1.864,1.117,1.117,0,0,0,.525-.141l.648-.387a7.361,7.361,0,0,0,6.475-.492l.018-.018a2.747,2.747,0,0,0,.91-3.851l3.85-2.269a.8.8,0,0,1,.158.4.644.644,0,0,1-.315.545l-.665.387a1.048,1.048,0,0,0-.385,1.442,1.038,1.038,0,0,0,1.435.387l.665-.387A2.714,2.714,0,0,0,153.3,82.3a2.94,2.94,0,0,0-.455-1.495Zm-7.6,1.548a.661.661,0,0,1,.3-.545l.018-.018a5.148,5.148,0,0,1,2.713-.721l-2.87,1.688a.6.6,0,0,1-.158-.4Zm.28,3.289a.661.661,0,0,1-.3.545l-.017.018a5.149,5.149,0,0,1-2.713.721l2.87-1.688a.6.6,0,0,1,.158.4Zm0,0" transform="translate(-113.437 -65.081)"/>
  </g>
</svg>
