<svg xmlns="http://www.w3.org/2000/svg" viewBox="0 0 66 76">
  <g transform="translate(-30.756)" fill="#74be21">
    <path d="M273.638,136.325h0a1.2,1.2,0,0,0-1.2,1.2,7.442,7.442,0,0,0,3.064,6.051l0,.739a1.2,1.2,0,0,0,1.191,1.209h.008a1.2,1.2,0,0,0,1.159-.9c.055,0,.109.005.164.005a3.006,3.006,0,0,0,2.993-2.986l.007-1.109a6.344,6.344,0,0,0-3.066-5.46l.023-3.664a5.022,5.022,0,0,1,.688,2.562,1.2,1.2,0,0,0,1.191,1.209h.008a1.2,1.2,0,0,0,1.2-1.194,7.442,7.442,0,0,0-3.064-6.051l0-.747a1.2,1.2,0,0,0-1.191-1.209H276.8a1.2,1.2,0,0,0-1.162.91,3,3,0,0,0-3.156,2.979l-.007,1.109a6.344,6.344,0,0,0,3.067,5.463l-.023,3.662a5.036,5.036,0,0,1-.688-2.569v0A1.2,1.2,0,0,0,273.638,136.325Zm4.981,4.189-.007,1.109a.586.586,0,0,1-.3.515.6.6,0,0,1-.406.069l.025-3.933A3.931,3.931,0,0,1,278.619,140.514Zm-3.745-9.526.007-1.109a.586.586,0,0,1,.3-.514.6.6,0,0,1,.407-.069l-.025,3.935A3.929,3.929,0,0,1,274.874,130.988Z" transform="translate(-203.053 -105.796)"/>
    <path d="M96.173,20.876,60.38.161a1.2,1.2,0,0,0-1.2,0L55.2,2.463h0A1.2,1.2,0,0,0,54.6,3.5l0,31.5L31.355,48.456a1.2,1.2,0,0,0-.6,1.04h0v4.6a1.2,1.2,0,0,0,.6,1.041l35.777,20.7a1.2,1.2,0,0,0,1.2,0l27.826-16.1a1.2,1.2,0,0,0,.6-1.041V21.907A1.2,1.2,0,0,0,96.173,20.876ZM59.781,2.589,93.093,21.868l-1.491.8L58.207,3.5ZM57,35,57,5.576,90.384,24.739V54.317Zm-1.2,2.081L89.185,56.4,67.731,68.815,58.2,63.3l2.177-1.259a1.2,1.2,0,0,0,0-2.081l-11.927-6.9a1.2,1.2,0,0,0-1.2,0L43.88,55.011,34.352,49.5Zm0,24.831L46.276,56.4l1.578-.914L57.384,61Zm38.552-3.906-26.627,15.4-34.578-20v-1.83L67.132,71.243a1.2,1.2,0,0,0,1.2,0l23.851-13.8a1.2,1.2,0,0,0,.6-1.04h0V24.761l1.578-.848Z"/>
    <path d="M234.486,73.707,206.66,57.6a1.2,1.2,0,0,0-1.8,1.04v23a1.2,1.2,0,0,0,.6,1.04l27.826,16.1a1.2,1.2,0,0,0,1.8-1.04V74.747A1.2,1.2,0,0,0,234.486,73.707Zm-1.8,21.953L207.259,80.946V60.723l25.429,14.718Z" transform="translate(-146.28 -48.24)"/>
    <path d="M133.781,269.335a1.2,1.2,0,0,0,1.2,0l11.926-6.9a1.2,1.2,0,0,0,0-2.081l-27.826-16.1a1.2,1.2,0,0,0-1.2,0l-11.929,6.9a1.2,1.2,0,0,0,0,2.081Zm4.573-4.728-25.429-14.715,1.578-.913,25.428,14.714ZM118.479,246.68l25.429,14.711-1.581.915L116.9,247.593Zm-7.953,4.6,25.43,14.715-1.577.913-25.432-14.716Z" transform="translate(-62.674 -204.993)"/>
  </g>
</svg>
