<svg xmlns="http://www.w3.org/2000/svg" viewBox="0 0 63 64">
  <g transform="translate(0 0.019)" fill="#74be21">
    <path d="M62.983,19.59a1.023,1.023,0,0,0-.516-.892h0L33.795,2.18a1.261,1.261,0,0,0-.43-.137L8.285-.016h0a1.073,1.073,0,0,0-.6.137,1.029,1.029,0,0,0-.516.892v12.11L.138,25.267a1.049,1.049,0,0,0-.1.789,1.015,1.015,0,0,0,.481.618l6.652,3.842V46.434a1.029,1.029,0,0,0,.516.892L36.356,63.844a1.038,1.038,0,0,0,1.031,0h0l25.1-14.46A1.029,1.029,0,0,0,63,48.492V19.59Zm-5.518-1.407L37.2,16.52,12.7,2.42,32.97,4.084ZM32.248,40.842V59.11l-5.088-2.95V42.026l2.028,1.166a1.1,1.1,0,0,0,.516.137,1.032,1.032,0,0,0,.894-.515l1.272-2.2ZM21.5,48.784l-8.681-5.009V33.758L21.5,38.749ZM14.542,18.235,8.595,28.955,6.24,27.6,12.2,16.9Zm1.788,1.029,2.338,1.355-5.948,10.7-2.338-1.355Zm2.3,15.472,5.948-10.72,2.338,1.355-5.948,10.72Zm-1.788-1.029-2.338-1.355,5.948-10.72,2.338,1.355Zm5.913,3.413L28.707,26.4l2.338,1.355L25.1,38.458Zm6.566,3.774-2.441-1.407,5.948-10.7,2.63,1.509ZM9.231,12.8V2.8L35.84,18.132v10ZM8.578,14.8l1.839,1.063-5.965,10.7L2.424,25.4Zm.653,16.9,1.53.875v11.8a1.029,1.029,0,0,0,.516.892L22.02,51.46a1.038,1.038,0,0,0,1.031,0,1.029,1.029,0,0,0,.516-.892L23.55,39.95l1.53.875V54.959L9.231,45.816Zm25.1,28.594V40.242a1.029,1.029,0,0,0-.516-.892l-.894-.515,2.939-5.077v27.41Zm3.575.875V29.916h0V18.646L60.92,20.533v7.616L59.27,25.3a1.015,1.015,0,0,0-.911-.532.967.967,0,0,0-.533.154L39.932,35.233a1.029,1.029,0,0,0-.516.892V56.777a1.029,1.029,0,0,0,.516.892,1.038,1.038,0,0,0,1.031,0L58.892,47.326a1.029,1.029,0,0,0,.516-.892V34.65l1.513-.875V47.892Zm6.515-20.275-2.544-4.408L58,27.188l2.561,4.425Zm12.927-5.043v10L41.5,54.993V39.967l1.667,2.865a1.023,1.023,0,0,0,1.41.377Zm0,0" transform="translate(0 0)"/>
    <path d="M86.15,49.493a1.029,1.029,0,0,0-.516-.892L64.147,36.217a1.01,1.01,0,0,0-1.031,0,1.029,1.029,0,0,0-.516.892v4.134a1.029,1.029,0,0,0,.516.892l21.5,12.384a1.038,1.038,0,0,0,1.031,0,1.029,1.029,0,0,0,.516-.892V49.493ZM64.663,40.642v-1.75L84.1,50.093v1.75Zm0,0" transform="translate(-51.839 -29.903)"/>
  </g>
</svg>
