<svg xmlns="http://www.w3.org/2000/svg" viewBox="0 0 29 64">
  <g transform="translate(0.033 -0.052)" fill="#74be21">
    <path d="M28.966,15.828a5.583,5.583,0,0,0-2.548-4.44L7.552.433A2.487,2.487,0,0,0,5.6.133a.863.863,0,0,0-.236.075c-.012,0-.012,0-.025.013h0c-.025.013-.05.013-.075.025L1.089,2.659,1.052,2.7c-.012,0-.025.013-.037.013A2.362,2.362,0,0,0-.029,4.823V48.257a5.628,5.628,0,0,0,2.56,4.44L21.373,63.639a2.862,2.862,0,0,0,1.38.413,1.985,1.985,0,0,0,.659-.125.829.829,0,0,0,.224-.088l.037-.025c.012-.013.025-.013.05-.013s.025-.025.037-.025l3.94-2.289.149-.088c.025-.013.025-.038.05-.05a2.33,2.33,0,0,0,1.056-2.089Zm-3.393-2.976a3.949,3.949,0,0,1,1.715,2.976V59.262c0,.375-.112.6-.224.65a.33.33,0,0,0-.075.063c-.025.013-.05.013-.075.025l-2.138,1.251v-43a5.6,5.6,0,0,0-2.56-4.44L3.736,3.072,6.023,1.746c.012,0,.025,0,.025-.013a.868.868,0,0,1,.671.163ZM13.7,54.085c0,.4-.112.613-.211.663s-.348.05-.7-.15a3.993,3.993,0,0,1-1.752-3.039c0-.4.112-.613.211-.663a.329.329,0,0,1,.149-.038,1.148,1.148,0,0,1,.559.188A4.058,4.058,0,0,1,13.7,54.085ZM1.648,41.666V10.8L23.1,23.27V54.135ZM23.1,21.319,1.648,8.85V4.823c0-.388.112-.6.2-.65a.181.181,0,0,1,.137-.025,1.061,1.061,0,0,1,.534.188L21.36,15.278a3.965,3.965,0,0,1,1.728,2.989v3.052ZM3.376,51.246a3.965,3.965,0,0,1-1.728-2.989v-4.64l9.632,5.6a1.973,1.973,0,0,0-.87.238,2.33,2.33,0,0,0-1.044,2.126,5.678,5.678,0,0,0,2.585,4.49,2.777,2.777,0,0,0,1.392.413,2.047,2.047,0,0,0,.982-.25A2.33,2.33,0,0,0,15.37,54.11a5.571,5.571,0,0,0-1.156-3.177l8.874,5.153V61.7c0,.375-.1.575-.186.638l-.037.025a.783.783,0,0,1-.659-.163Z" transform="translate(0 0)"/>
    <path d="M74.672,82.914l-3.617-2.1a.826.826,0,0,0-.833,0,.834.834,0,0,0,0,1.451l3.617,2.1a.825.825,0,0,0,1.143-.313.843.843,0,0,0-.311-1.138Z" transform="translate(-61.154 -70.562)"/>
    <path d="M118.35,108.012l-.721-.425a.825.825,0,0,0-1.143.313.835.835,0,0,0,.311,1.151l.721.425a.825.825,0,0,0,1.143-.313A.843.843,0,0,0,118.35,108.012Z" transform="translate(-101.937 -93.984)"/>
    <path d="M70.407,181.1a.833.833,0,1,0,1.665,0,8.477,8.477,0,0,0-3.753-6.5v-1.763a.833.833,0,1,0-1.665,0v.938a2.778,2.778,0,0,0-2.535.35c-1.4,1.051-.982,3.514.224,5.278l2.312,3.377v5.54a7.244,7.244,0,0,1-2.088-4.64.833.833,0,1,0-1.665,0,9.02,9.02,0,0,0,3.766,6.816v1.451a.833.833,0,1,0,1.665,0v-.638a3.5,3.5,0,0,0,.882.125,2.647,2.647,0,0,0,1.653-.538c1.4-1.051.982-3.514-.224-5.278l-2.312-3.364v-5.5A6.532,6.532,0,0,1,70.407,181.1Zm-1.156,5.478c.945,1.376.932,2.726.6,2.964a1.519,1.519,0,0,1-1.529-.025v-4.3Zm-3.53-8.129c-.945-1.376-.92-2.726-.6-2.964a1.618,1.618,0,0,1,1.529.1v4.227Z" transform="translate(-55.112 -150.444)"/>
  </g>
</svg>
