<svg xmlns="http://www.w3.org/2000/svg" viewBox="0 0 41 64">
  <g fill="#74be21">
	  <path d="M34.794,3.5A28.6,28.6,0,0,0,20.5,0,28.65,28.65,0,0,0,6.206,3.5C2.206,5.881,0,9.091,0,12.543V51.457c0,3.452,2.206,6.662,6.206,9.039A28.6,28.6,0,0,0,20.5,64a28.65,28.65,0,0,0,14.294-3.5c4-2.359,6.206-5.569,6.206-9.039V12.543c0-3.452-2.206-6.662-6.206-9.039Zm4.155,47.935c0,2.689-1.847,5.257-5.2,7.234A26.483,26.483,0,0,1,20.5,61.9,26.483,26.483,0,0,1,7.249,58.674c-3.351-1.978-5.2-4.545-5.2-7.234v-.954a14.917,14.917,0,0,0,4.155,3.5,28.6,28.6,0,0,0,14.294,3.5,28.65,28.65,0,0,0,14.294-3.5,14.674,14.674,0,0,0,4.155-3.5Zm0-6.471c0,2.689-1.847,5.257-5.2,7.234A26.483,26.483,0,0,1,20.5,55.43,26.483,26.483,0,0,1,7.249,52.2c-3.351-1.978-5.2-4.563-5.2-7.234v-.954a14.917,14.917,0,0,0,4.155,3.5,28.6,28.6,0,0,0,14.294,3.5,28.6,28.6,0,0,0,14.294-3.5,14.675,14.675,0,0,0,4.155-3.5Zm0-6.488c0,2.689-1.847,5.257-5.2,7.234A26.483,26.483,0,0,1,20.5,48.941,26.483,26.483,0,0,1,7.249,45.714c-3.351-1.978-5.2-4.545-5.2-7.234v-.954a14.917,14.917,0,0,0,4.155,3.5,28.6,28.6,0,0,0,14.294,3.5,28.65,28.65,0,0,0,14.294-3.5,14.674,14.674,0,0,0,4.155-3.5Zm0-6.488c0,2.689-1.847,5.257-5.2,7.234A26.483,26.483,0,0,1,20.5,42.453,26.483,26.483,0,0,1,7.249,39.226c-3.351-1.978-5.2-4.545-5.2-7.234v-.954a14.917,14.917,0,0,0,4.155,3.5,28.6,28.6,0,0,0,14.294,3.5,28.65,28.65,0,0,0,14.294-3.5,14.675,14.675,0,0,0,4.155-3.5Zm0-6.488c0,2.689-1.847,5.257-5.2,7.234A26.483,26.483,0,0,1,20.5,35.964,26.483,26.483,0,0,1,7.249,32.737c-3.351-1.978-5.2-4.545-5.2-7.234v-.954a14.916,14.916,0,0,0,4.155,3.5,28.6,28.6,0,0,0,14.294,3.5,28.65,28.65,0,0,0,14.294-3.5,14.674,14.674,0,0,0,4.155-3.5Zm0-6.471c0,2.689-1.847,5.257-5.2,7.234A26.483,26.483,0,0,1,20.5,29.493,26.483,26.483,0,0,1,7.249,26.266c-3.351-2-5.2-4.563-5.2-7.234v-.954a14.917,14.917,0,0,0,4.155,3.5,28.6,28.6,0,0,0,14.294,3.5,28.65,28.65,0,0,0,14.294-3.5,14.675,14.675,0,0,0,4.155-3.5Zm-5.181.746A26.483,26.483,0,0,1,20.517,23,26.55,26.55,0,0,1,7.249,19.778c-3.351-1.978-5.2-4.545-5.2-7.234S3.9,7.287,7.249,5.309A26.437,26.437,0,0,1,20.5,2.082,26.437,26.437,0,0,1,33.751,5.309c3.351,1.978,5.2,4.545,5.2,7.234S37.1,17.8,33.768,19.778Zm0,0"/>
	  <path d="M50.45,24.6A25.618,25.618,0,0,0,38.739,22a25.669,25.669,0,0,0-11.712,2.6c-3.2,1.665-5.027,3.9-5.027,6.124s1.829,4.459,5.044,6.124a25.618,25.618,0,0,0,11.712,2.6,25.669,25.669,0,0,0,11.712-2.6c3.2-1.683,5.044-3.9,5.044-6.124-.017-2.221-1.864-4.459-5.061-6.124Zm-.94,10.392a23.68,23.68,0,0,1-10.754,2.359,23.755,23.755,0,0,1-10.771-2.359c-2.428-1.266-3.932-2.915-3.932-4.285s1.5-3.019,3.932-4.285a23.855,23.855,0,0,1,10.754-2.342,23.629,23.629,0,0,1,10.754,2.359c2.428,1.266,3.932,2.915,3.932,4.285.017,1.371-1.5,3-3.915,4.268Zm0,0" transform="translate(-18.239 -18.183)"/>
	</g>
</svg>
