<svg xmlns="http://www.w3.org/2000/svg" viewBox="0 0 43 64">
  <g transform="translate(0 0.025)" fill="#74be21">
    <path d="M21.942,74.767A43.151,43.151,0,0,0,20.236,82.1a1.031,1.031,0,0,0,.48,1.028L31.732,89.6a1.047,1.047,0,0,0,.5.135,1.21,1.21,0,0,0,.414-.084,1,1,0,0,0,.563-.725,46.91,46.91,0,0,1,1.474-5.73,47.49,47.49,0,0,1,5-10.686,1.032,1.032,0,0,0-.331-1.433L28,64.419a.969.969,0,0,0-1.325.32,44.319,44.319,0,0,0-4.737,10.028Zm.364,6.961a43.32,43.32,0,0,1,1.524-6.32,40.867,40.867,0,0,1,4.008-8.747l9.624,5.646a50.065,50.065,0,0,0-4.671,10.247c-.5,1.517-.911,3.051-1.259,4.6Zm0,0" transform="translate(-16.874 -53.467)"/>
    <path d="M39.2,93.669a40.837,40.837,0,0,0-1.292,5.039,1,1,0,0,0,.48,1.062l6.327,3.725a1.047,1.047,0,0,0,.5.135.959.959,0,0,0,.961-.742c.232-.843.48-1.685.745-2.494a50.673,50.673,0,0,1,3.893-8.916,1.017,1.017,0,0,0-.364-1.365L43.67,86.135a1,1,0,0,0-.762-.1.939.939,0,0,0-.6.472A41.528,41.528,0,0,0,39.2,93.669Zm.8,4.736a38.164,38.164,0,0,1,1.093-4.1,39.133,39.133,0,0,1,2.468-5.9l5.035,2.95a52.783,52.783,0,0,0-3.561,8.41c-.149.438-.282.893-.414,1.348Zm0,0" transform="translate(-31.612 -71.526)"/>
    <path d="M35.4,195.09v3.438a1.015,1.015,0,0,0,.5.876l8.8,5.157a.983.983,0,0,0,.994,0,1,1,0,0,0,.5-.876v-3.438a1.015,1.015,0,0,0-.5-.876l-8.8-5.157a.957.957,0,0,0-.994,0,.976.976,0,0,0-.5.876Zm1.988,1.736,6.808,3.994v1.112l-6.808-3.994Zm0,0" transform="translate(-29.536 -161.386)"/>
    <path d="M133.666,127.51l2.071,1.214a1.012,1.012,0,0,1,.364,1.382.991.991,0,0,1-.861.506,1.047,1.047,0,0,1-.5-.135l-2.071-1.214a1.012,1.012,0,0,1-.364-1.382.972.972,0,0,1,1.358-.371Zm0,0" transform="translate(-110.278 -105.924)"/>
    <path d="M42.5,12.165,22,.114a.957.957,0,0,0-.994,0L9.292,7.007h0a1.251,1.251,0,0,0-.315.287A46.316,46.316,0,0,0,2.3,20.373,47.194,47.194,0,0,0,0,34.935V50.913a1.015,1.015,0,0,0,.5.876L21,63.84a.983.983,0,0,0,.994,0h0L42.5,51.789a1.015,1.015,0,0,0,.5-.876V13.041a1,1,0,0,0-.5-.876ZM21.5,2.153,40.018,13.041l-9.74,5.714L11.777,7.884Zm-.994,44.832V61.211L1.988,50.323v-15.4A44.98,44.98,0,0,1,10.054,9.2l18.784,11.04a46.711,46.711,0,0,0-6.029,12.169,47.3,47.3,0,0,0-2.3,14.579Zm20.506,3.337L22.494,61.211V46.986a45.125,45.125,0,0,1,2.2-13.922A44.2,44.2,0,0,1,30.975,20.71l10.054-5.9V50.323Zm0,0" transform="translate(0 0)"/>
    <path d="M178.2,172.765v.017a2.6,2.6,0,0,0,1.309,2.258,2.493,2.493,0,0,0,1.408.337l.033,4.3a.625.625,0,0,1-.4-.067.6.6,0,0,1-.3-.522v-.742a.994.994,0,1,0-1.988,0v.742a2.607,2.607,0,0,0,1.292,2.275,2.516,2.516,0,0,0,1.275.354h.133a1,1,0,0,0,.977.826h0a1.006,1.006,0,0,0,.994-1.011V180.8a7.232,7.232,0,0,0,2.667-5.629v-.017a2.614,2.614,0,0,0-1.292-2.258,2.493,2.493,0,0,0-1.408-.337l-.033-4.3a.625.625,0,0,1,.4.067.6.6,0,0,1,.3.522.994.994,0,1,0,1.988,0,2.607,2.607,0,0,0-1.292-2.275,2.675,2.675,0,0,0-1.424-.354,1,1,0,0,0-.977-.826h0a1.006,1.006,0,0,0-.994,1.011v.725a7.206,7.206,0,0,0-2.667,5.629Zm5.118,1.871a.587.587,0,0,1,.3.506v.017a5.306,5.306,0,0,1-.7,2.612l-.017-3.2a.71.71,0,0,1,.414.067Zm-2.435-4.483.017,3.2a.5.5,0,0,1-.414-.067.587.587,0,0,1-.3-.506v-.017a5.211,5.211,0,0,1,.7-2.612Zm0,0" transform="translate(-148.682 -137.544)"/>
  </g>
</svg>
