<svg xmlns="http://www.w3.org/2000/svg" viewBox="0 0 45.302 80">
    <g fill="#ffffff">
        <path d="M49.868 115.639a1.079 1.079 0 0 0-.636.488 1.048 1.048 0 0 0-.1.8 1.09 1.09 0 0 0 .482.645l19.335 11.311a1 1 0 0 0 1.041 0 1.045 1.045 0 0 0 .52-.918 1.068 1.068 0 0 0-.52-.918l-19.332-11.291a.94.94 0 0 0-.79-.117zm0 0" transform="translate(-39.651 -93.016)"/>
        <path d="M49.635 139.533l19.335 11.311a1.035 1.035 0 0 0 1.427-.391 1.065 1.065 0 0 0-.386-1.446l-19.335-11.291a1.035 1.035 0 0 0-1.427.391 1.064 1.064 0 0 0 .386 1.426zm0 0" transform="translate(-39.669 -110.697)"/>
        <path d="M69.975 170.908L50.64 159.616a1.035 1.035 0 0 0-1.426.391 1.065 1.065 0 0 0 .386 1.446l19.335 11.311a1 1 0 0 0 1.041 0 1.045 1.045 0 0 0 .52-.918 1.12 1.12 0 0 0-.52-.938zm0 0" transform="translate(-39.633 -128.319)"/>
        <path d="M69.975 192.808L50.64 181.516a1.035 1.035 0 0 0-1.426.391 1.065 1.065 0 0 0 .386 1.446l19.335 11.311a1.035 1.035 0 0 0 1.426-.391 1.12 1.12 0 0 0-.386-1.465zm0 0" transform="translate(-39.633 -145.941)"/>
        <path d="M69.975 214.708L50.64 203.416a1.035 1.035 0 0 0-1.426.391 1.065 1.065 0 0 0 .386 1.446l19.335 11.311a1.035 1.035 0 0 0 1.426-.391 1.12 1.12 0 0 0-.386-1.465zm0 0" transform="translate(-39.633 -163.562)"/>
        <path d="M69.975 236.608L50.64 225.316a1.035 1.035 0 0 0-1.426.391 1.065 1.065 0 0 0 .386 1.446l19.335 11.311a1.035 1.035 0 0 0 1.426-.391 1.12 1.12 0 0 0-.386-1.465zm0 0" transform="translate(-39.633 -181.184)"/>
        <path d="M45.382 16.918a.178.178 0 0 0-.019-.1 1.253 1.253 0 0 0-.116-.352A1.109 1.109 0 0 0 45 16.2a2059.13 2059.13 0 0 1-.154-.117L17.584.117C17.546.1 17.507.1 17.469.078A.853.853 0 0 0 17.083 0a.781.781 0 0 0-.212.02c-.058.02-.135.039-.193.059C16.64.1 16.6.1 16.563.117l-4.53 2.657a1109.643 1109.643 0 0 0-.039.039L.563 10.432c-.019.02-.058.039-.077.078a.422.422 0 0 0-.1.078.409.409 0 0 0-.077.117 1.487 1.487 0 0 0-.173.352.492.492 0 0 0-.019.156c0 .039-.019.059-.019.1V56.3a1.068 1.068 0 0 0 .52.918l38.711 22.645a1.315 1.315 0 0 0 .154.059.508.508 0 0 0 .231.059c.039 0 .077.02.135.02a1.215 1.215 0 0 0 .52-.137l4.53-2.637c.039-.02.058-.059.1-.078a1.106 1.106 0 0 0 .154-.137 1.028 1.028 0 0 0 .193-.352.841.841 0 0 0 .039-.215.251.251 0 0 0 .019-.117V17a.119.119 0 0 1-.019-.078zM11.512 5.626v10.315a.742.742 0 0 1-.019.2c-.058-.02-.135-.059-.193-.078l-8.193-4.81zm27.277 71.5L2.163 55.7V13.128l8.116 4.747a2.327 2.327 0 0 0 .636.274c.077.02.135.02.212.039a1.485 1.485 0 0 0 .424.059h.058a1.666 1.666 0 0 0 .308-.039.527.527 0 0 0 .173-.02 2.23 2.23 0 0 0 .5-.2 2.3 2.3 0 0 0 1.041-2.051V5.509l25.2 14.75v56.869zm1.041-58.704l-25.2-14.75 2.429-1.426L42.278 17zM43.319 75.7l-2.448 1.426V20.239l2.448-1.426zm0 0" transform="translate(-.1)"/>
    </g>
</svg>
