<svg xmlns="http://www.w3.org/2000/svg" id="icon_list" data-name="icon list" viewBox="0 0 40 70">
    <defs>
        <style>
            .cls-1{fill:#fff}
        </style>
    </defs>
    <path id="Path_3355" d="M9.2 19.8a1.275 1.275 0 0 0-.7.5.972.972 0 0 0-.1.9 1.275 1.275 0 0 0 .5.7L26 31.8a1.421 1.421 0 0 0 .6.2 1.421 1.421 0 0 0 .6-.2 1.133 1.133 0 0 0 0-2l-17.1-9.9a1.412 1.412 0 0 0-.9-.1z" class="cls-1" data-name="Path 3355"/>
    <path id="Path_3356" d="M8.9 25.7L26 35.6a1.421 1.421 0 0 0 .6.2h.3a1.275 1.275 0 0 0 .7-.5 1.226 1.226 0 0 0-.4-1.6l-17.1-9.9a.972.972 0 0 0-.9-.1 1.275 1.275 0 0 0-.7.5 1.129 1.129 0 0 0 .4 1.5z" class="cls-1" data-name="Path 3356"/>
    <path id="Path_3357" d="M27.2 37.3l-17.1-9.9a.972.972 0 0 0-.9-.1 1.275 1.275 0 0 0-.7.5 1.226 1.226 0 0 0 .4 1.6L26 39.3a1.421 1.421 0 0 0 .6.2 1.421 1.421 0 0 0 .6-.2 1.1 1.1 0 0 0 .6-1 1.326 1.326 0 0 0-.6-1z" class="cls-1" data-name="Path 3357"/>
    <path id="Path_3358" d="M8.9 33.2L26 43.1a1.421 1.421 0 0 0 .6.2h.3a1.275 1.275 0 0 0 .7-.5 1.226 1.226 0 0 0-.4-1.6l-17.1-9.9a1.1 1.1 0 0 0-.9-.3 1.275 1.275 0 0 0-.7.5 1.357 1.357 0 0 0 .4 1.7z" class="cls-1" data-name="Path 3358"/>
    <path id="Path_3359" d="M27.2 44.8l-17.1-9.9a.972.972 0 0 0-.9-.1 1.275 1.275 0 0 0-.7.5 1.226 1.226 0 0 0 .4 1.6L26 46.8a1.421 1.421 0 0 0 .6.2h.3a1.275 1.275 0 0 0 .7-.5 1.324 1.324 0 0 0-.4-1.7z" class="cls-1" data-name="Path 3359"/>
    <path id="Path_3360" d="M27.2 48.5l-17.1-9.9a.972.972 0 0 0-.9-.1 1.275 1.275 0 0 0-.7.5 1.226 1.226 0 0 0 .4 1.6l17.1 10a1.421 1.421 0 0 0 .6.2h.3a1.275 1.275 0 0 0 .7-.5 1.5 1.5 0 0 0-.4-1.8z" class="cls-1" data-name="Path 3360"/>
    <path id="Path_3361" d="M40 14.915c0-.2-.1-.3-.1-.4l-.3-.3a.1.1 0 0 1-.1-.1L15.6.2h-.1a.393.393 0 0 0-.4-.2h-.3c-.1 0-.2 0-.2.1a.3.3 0 0 0-.2.1l-3.931 2.286L.494 9.148l-.1.1-.1.1-.1.1c-.1.1-.1.2-.2.4v39.371a1.1 1.1 0 0 0 .593.994L34.37 69.9h.1a.361.361 0 0 0 .3.1h.2a1.4 1.4 0 0 0 .593-.2l3.951-2.287.1-.1c.1 0 .1-.1.2-.2a.518.518 0 0 0 .2-.4v-51.9zm-.3 0zM3.358 10.043l6.617-4.375v8.252zm6.815 6.364h.494c.2 0 .3-.1.494-.2a2.024 2.024 0 0 0 .988-1.989V5.469L33.58 18v48.92L2.272 48.523V12.131l6.716 3.878.593.3h.2c.194-.002.293.097.392.097zm26.37-1.392l-1.679.994L13.432 3.48l1.679-.994zM37.728 17v48.92l-1.679.994V18z" class="cls-1" data-name="Path 3361"/>
</svg>
