<svg xmlns="http://www.w3.org/2000/svg" viewBox="0 0 46 70">
    <defs>
        <style>
            .cls-1{fill:#fff}
        </style>
    </defs>
    <path id="icon_lock" d="M45.9 51.369V33.645a1.013 1.013 0 0 0-.4-.7.1.1 0 0 1-.1-.1l-6.93-4.005V17.824c0-5.808-4.52-13.218-10.044-16.322C25.41-.2 22.4-.5 20.288.8a.312.312 0 0 0-.2.1l-8.94 5.108c-.1 0-.1 0-.2.1a7.035 7.035 0 0 0-2.712 6.008v1.6L.5 18.124c-.1.1-.2.1-.2.2l-.1.1c0 .1-.1.1-.1.2v30.442a1.051 1.051 0 0 0 .5.9l34.854 19.928c.1 0 .1.1.2.1h.8a.312.312 0 0 0 .2-.1l8.946-5.107.1-.1c.1 0 .1-.1.2-.2s.1-.2.2-.3V51.369zM20.991 2.7a.312.312 0 0 0 .2-.1c1.507-1 3.716-.7 6.127.7 4.921 2.8 9.039 9.413 9.039 14.519v11.12l-6.83 3.905v-9.913c0-5.808-4.52-13.218-10.044-16.322a8.646 8.646 0 0 0-3.013-1.2zm-10.546 9.316c0-2.1.7-3.7 2.009-4.406 1.507-.8 3.616-.6 6.026.8 4.921 2.8 9.039 9.413 9.039 14.519v9.913l-1.205-.7V21.028c0-3.805-3.013-8.511-6.729-10.714-2.109-1.2-4.218-1.4-5.725-.5a4.588 4.588 0 0 0-2.109 4.106v9.913l-1.205-.7V12.016zm11.148 9.713l2.511 1.4v7.81l-9.24-5.307zm-7.834 2.1v-9.91a2.515 2.515 0 0 1 1-2.3 2.029 2.029 0 0 1 1.1-.3 5.593 5.593 0 0 1 2.511.8 11.831 11.831 0 0 1 2.21 1.7v6.008zm8.941-3.902v-3.3a10.528 10.528 0 0 1 1.4 4.101zM8.336 16.021v5.908l-5.223-2.9zM2.109 48.565v-2.1l1.908 3.1zm5.524 3.1l-5.524-9.408v-2.6l4.017 2.3 7.834 13.417zm9.943 5.708L9.742 43.959l6.328 3.6 7.83 13.423zm9.943 5.708l-7.834-13.414 6.328 3.6 7.231 13.017zm7.332 1.9l-5.323-9.713 5.323 3.1zm0-9.012L2.109 37.25V20.828l32.742 18.725v16.422zm1.1-18.325l-5.323-3.1 6.83-3.905 5.323 3.1zm1 20.728l5.122-2.9-5.113 9.215zm6.83 5.007l-5.424 3.1 5.424-9.713zm0-11.315l-6.83 3.905V39.553l6.83-3.905z" class="cls-1" data-name="icon lock" transform="translate(-.1 .006)"/>
</svg>
