<svg xmlns="http://www.w3.org/2000/svg" viewBox="0 0 55 64">
    <defs>
        <style>
            .cls-1{fill:#74be21}
        </style>
    </defs>
    <g id="icon_associate" data-name="icon associate" transform="translate(-1145.188 -5302.163)">
        <path id="Path_3417" d="M160.666 85.087c-3.1-1.8-6.01-2.3-8.513-1.6a19.37 19.37 0 0 0-3.606-2.794c-3-1.8-5.909-2-8.213-.7l-8.113 4.69h-.1c-2.2 1.3-3.405 3.892-3.405 7.284v5.388a25.281 25.281 0 0 0 1.6 8.183h-.4a2.675 2.675 0 0 0-1.2.3h-.1l-8.113 4.69-.1.1a3.128 3.128 0 0 0-1.2 2.694v6.386a.889.889 0 0 0 .5.8l39.262 22.552c.1 0 .1.1.2.1h.4a.906.906 0 0 0 .5-.1l8.113-4.69a.1.1 0 0 0 .1-.1c.1 0 .1-.1.2-.1.1-.1.1-.2.2-.3v-6.686a7.512 7.512 0 0 0-1.9-4.69c-1.9-2.2-3.506-3.991-5.008-5.488a7.33 7.33 0 0 0 3.506-.9h.1l.1-.1h.1l4.507-2.594c2.6-1.6 4.107-4.89 4.107-9.081-.003-8.475-6.113-18.953-13.524-23.244zm-18.529 46.1l-4.607-2.694.5-4.391 3.706 2.1zm-5.909-8.482l-.5 4.79-14.528-8.281v-5.788c0-.4.1-1.2.7-1.2a24.349 24.349 0 0 1 10.016 1.5zm-5.208-15.267h.1c.1.2.2.5.3.7l-.6 2.495v.6a22.862 22.862 0 0 0-5.809-1l4.607-2.694a.369.369 0 0 1 .3-.1h1.1zm10.016-25.845h.2c1.6-.9 3.806-.7 6.21.7a15.74 15.74 0 0 1 2.6 1.9l-4.307 2.495-.1.1a7.316 7.316 0 0 0-1.6 1.4 20.58 20.58 0 0 0-3.706-2.894 9.532 9.532 0 0 0-3.305-1.3l4.006-2.3v-.1zm17.628 49.694a64.417 64.417 0 0 0-10.116-10.178l.1-.1 5.008-2.894a10.163 10.163 0 0 0 1.6 1 13.018 13.018 0 0 0 3.205 1.4 77.227 77.227 0 0 1 6.711 7.284 6.337 6.337 0 0 1 1.4 3.493v5.788l-6.21 3.592v-4.69a6.627 6.627 0 0 0-1.699-4.693zm-7.712-15.467c.4.3.7.7 1.1 1l-3.305 1.9-.3-1.5zm-9.215-19.957c0 5.488 2.6 12.074 6.711 17.263a8.014 8.014 0 0 1-1.9 2.994 5.085 5.085 0 0 1-1.6.9h-.1a.311.311 0 0 0-.2.1c-.3.1-.5.1-.8.2h-1.2c-.2 0-.4-.1-.6-.1h-.2c-.2-.1-.4-.1-.6-.2a.35.35 0 0 1-.2-.1l-.3-.1c-.1-.1-.2-.1-.3-.2l-.9-.6-.1.1v-.1c-.3-.2-.6-.5-.9-.7l-.1.1.1-.1a21.821 21.821 0 0 1-5.008-6.985 14.109 14.109 0 0 1-.8-1.8 24.385 24.385 0 0 1-2-8.781v-5.781c0-2.694.9-4.69 2.5-5.688 1.6-.9 3.806-.7 6.21.7a19.922 19.922 0 0 1 3.606 2.894 12.447 12.447 0 0 0-1.32 5.985zm-8.914 14.968c.2.3.3.6.5.9a8.772 8.772 0 0 1 .6 1c.1.1.1.2.2.3l.2.3c.1.1.1.2.2.3v.1a14.674 14.674 0 0 0 1 1.3l.6.6.1.1.3.3.4.4.3.2c.1.1.3.2.4.3l.2.1a.1.1 0 0 1 .1.1 1.382 1.382 0 0 1 .4.3l.1.1.2.1-1.4 2.794-.7-1.4-3.706-8.183zm5.609 4.191zm3.205 3.892c.3.1.6.1.9.2h.1c.3 0 .6.1.9.1h.6a5.044 5.044 0 0 0 1.2-.2c.1 0 .2-.1.3-.1a5.378 5.378 0 0 0 1.1-.5l.3 1.6-3.906 3.892-1.6-4.989zm5.509 3.592c2.7 2 5.809 5.089 10.016 9.979a6.337 6.337 0 0 1 1.4 3.493v4.69l-14.323-8.282-.6-6.386zm17.327-4.091c-2.2 1.2-5.108.9-8.213-1a22.977 22.977 0 0 1-6.01-5.189c-4.006-4.89-6.61-11.176-6.61-16.365 0-3.592 1.2-6.287 3.305-7.484a5.572 5.572 0 0 1 2.8-.7h.1a11.489 11.489 0 0 1 5.409 1.7c6.911 3.991 12.62 13.671 12.62 21.654 0 3.592-1.2 6.287-3.305 7.484zm-26.041 3.792l1.2-2.495 1.2 3.892zm21.234-35.524c6.911 3.991 12.62 13.671 12.62 21.654 0 3.493-1.1 6.187-3.205 7.484l-.1.1a14.181 14.181 0 0 0 .9-4.989c0-8.582-6.11-18.959-13.521-23.35a13.8 13.8 0 0 0-4.908-1.8l.1-.1c2.103-1.094 5.007-.794 8.112 1.002z" class="cls-1" data-name="Path 3417" transform="translate(1026 5223)"/>
        <path id="Path_3418" d="M165.632 108.864a.817.817 0 0 0-.1-.7L156.517 92.7a1.015 1.015 0 0 0-1.3-.4l-9.017 5.089a1.023 1.023 0 0 0-.5.6.874.874 0 0 0 .1.7l2.4 4.191a1.015 1.015 0 0 0 1.3.4l.2-.1v5.788a.889.889 0 0 0 .5.8l9.816 5.688a.753.753 0 0 0 .5.1.906.906 0 0 0 .5-.1 1.017 1.017 0 0 0 .5-.8v-3.991a.8.8 0 0 0 1.1.1l2.4-1.4c.415-.101.616-.301.616-.501zm-14.323-8.183a.913.913 0 0 0-1 0l-.8.5L148 98.586l7.312-4.191 8.013 13.771-.8.4-1.2-2a.844.844 0 0 0-1.1-.4.959.959 0 0 0-.7.9v5.788l-7.913-4.49v-6.884c.198-.299-.003-.599-.303-.798z" class="cls-1" data-name="Path 3418" transform="translate(1026.042 5222.972)"/>
    </g>
</svg>
