<svg xmlns="http://www.w3.org/2000/svg" viewBox="0 0 35 62">
    <defs>
        <style>
            .cls-1{fill:#74be21}
        </style>
    </defs>
    <path id="icon_person" d="M105.41 37.195c2.529-1.2 3.945-3.885 3.945-7.571 0-6.774-4.855-14.943-10.824-18.43C95.4 9.4 92.361 9.2 90.135 10.5l-3.641 1.79c-2.832 1-4.451 3.786-4.451 7.77a21.861 21.861 0 0 0 3.642 11.157l-1.416.6C80.525 33.011 78.3 36.8 78.3 42.076v12.751a1.014 1.014 0 0 0 .506.8l28.121 15.939a.316.316 0 0 1 .2.1h.4a.616.616 0 0 0 .4-.1l4.855-2.391a1.014 1.014 0 0 0 .506-.8V55.923a32.522 32.522 0 0 0-7.89-18.728zM87.1 14.083v.1a6.523 6.523 0 0 1 .708-.2h.91a1.746 1.746 0 0 1 .708.1h.2c.3.1.607.1.91.2h.2c.3.1.506.2.809.3.1 0 .2.1.3.1a9.458 9.458 0 0 1 1.012.5c5.462 3.088 9.913 10.659 9.913 16.736a7.367 7.367 0 0 1-1.012 4.184l-.1.1a4.032 4.032 0 0 1-1.517 1.395 5.765 5.765 0 0 1-1.214.4 7.532 7.532 0 0 1-5.058-1.2c-.2-.1-.506-.3-.708-.4a7.108 7.108 0 0 0-.91-.6 20.166 20.166 0 0 1-3.844-3.885 3.028 3.028 0 0 1-.506-.7 20.152 20.152 0 0 1-3.936-11.053c0-3.088 1.214-5.379 3.237-6.077zm21.142 43.035v-.4a2.162 2.162 0 0 0-.1-.8v-.6c0-.2-.1-.4-.1-.6a.744.744 0 0 0-.1-.4v-.2c0-.2-.1-.4-.1-.7 0-.1-.1-.3-.1-.4l-.1-.2c-.1-.2-.1-.4-.2-.6 0-.2-.1-.3-.1-.5v-.1c-.1-.2-.1-.5-.2-.7s-.1-.3-.2-.5v-.1a1.826 1.826 0 0 1-.2-.7c-.1-.2-.1-.4-.2-.6s-.2-.5-.3-.7a1.4 1.4 0 0 1-.2-.6c-.1-.2-.2-.5-.3-.7l-.3-.6c-.1-.2-.2-.5-.3-.7l-.3-.6a5.692 5.692 0 0 0-.4-.7l-.1-.1c-.1-.2-.2-.3-.3-.5s-.3-.4-.4-.6l-.1-.1c-.1-.1-.2-.3-.3-.4-.1-.2-.3-.4-.4-.6l-.1-.1c-.1-.1-.2-.3-.3-.4-.1-.2-.3-.4-.4-.6l-.1-.2c-.1-.1-.2-.3-.3-.4-.1-.2-.3-.3-.4-.5l-.2-.2c-.1-.1-.1-.2-.2-.3h.1a.375.375 0 0 0 .3-.1l2.731-1.395c4.552 5.18 7.486 12.154 7.486 17.832v12.023l-2.832 1.395V58.214a1.411 1.411 0 0 1-.385-1.095zM103.994 35.8a2.316 2.316 0 0 0 .2-.8c0-.1 0-.2.1-.2v-.1c.1-.3.1-.6.2-1v-.4c0-.5.1-.9.1-1.395 0-6.774-4.855-14.943-10.824-18.43-.3-.2-.607-.3-.91-.5-.1 0-.1-.1-.2-.1h-.1l-.607-.3a.355.355 0 0 1-.2-.1h-.1c-.2-.1-.4-.1-.607-.2-.1 0-.2 0-.2-.1h.1l.809-.4c1.618-.6 3.642-.3 5.867 1 5.462 3.088 9.913 10.56 9.913 16.736 0 2.889-1.012 4.981-2.832 5.878zm-19.018-1.992a7.811 7.811 0 0 1 2.124-.3l.1.1.1.1a1.378 1.378 0 0 1 .3.4c.1.2.3.3.4.4l.3.3a1.378 1.378 0 0 1 .3.4l.1.1.3.3a1.394 1.394 0 0 0 .4.3l.1.1.3.3.3.3.2.2.2.2c.1.1.3.2.4.3l.2.1.2.2a1.772 1.772 0 0 1 .506.4l.1.1c.1 0 .1.1.2.1.3.2.506.3.809.5.2.1.506.3.708.4a.1.1 0 0 1 .1.1h.1c.2.1.3.2.506.2.1 0 .1 0 .2.1h.1c.2.1.3.1.506.2a.355.355 0 0 1 .2.1.924.924 0 0 0 .506.1h.2c.2 0 .3.1.506.1h.2a5.855 5.855 0 0 0 1.315.1h.708l.3.3a2.18 2.18 0 0 1 .4.5c.1.2.3.4.4.6a1.753 1.753 0 0 0 .4.5c.1.2.3.4.4.6.1.2.2.3.3.5s.2.3.3.5l.1.2a.751.751 0 0 1 .2.4l.3.6.1.1c.1.1.2.3.3.4a2.171 2.171 0 0 0 .3.5l.1.2c.1.1.1.3.2.4l.3.6.1.2c.1.1.1.3.2.4a1.668 1.668 0 0 1 .2.5l.1.3c.1.1.1.3.2.4.1.2.1.3.2.5l.1.3c0 .1.1.2.1.4.1.2.1.3.2.5l.1.3c0 .1.1.3.1.4.1.2.1.4.2.5l.1.3c0 .1.1.3.1.4a4.257 4.257 0 0 0 .1.5l.1.3c0 .1.1.2.1.4s.1.3.1.5l.1.4a.362.362 0 0 0 .1.3c0 .2.1.4.1.6v.6a1.672 1.672 0 0 0 .1.7v12.365l-25.9-14.744V42.375c0-4.383 1.72-7.471 4.552-8.468z" class="cls-1" data-name="icon person" transform="translate(-78.3 -9.663)"/>
</svg>
