<svg xmlns="http://www.w3.org/2000/svg" viewBox="0 0 33 64">
    <defs>
        <style>
            .cls-1{fill:#74be21}
        </style>
    </defs>
    <g id="icon_price" data-name="icon price" transform="translate(-1077.5 -5296.85)">
        <path id="Path_3414" d="M66.921 106.655v-5.18l1.773 1a.865.865 0 0 0 1.281-.4.883.883 0 0 0-.394-1.295l-2.66-1.494V96.2a.993.993 0 0 0-.985-1 .936.936 0 0 0-.985 1v2.291a2.815 2.815 0 0 0-1.773.3 3 3 0 0 0-1.379 2.889 7.867 7.867 0 0 0 3.152 5.977v5.18l-1.773-1a.887.887 0 0 0-.985 0 1.017 1.017 0 0 0-.493.8.888.888 0 0 0 .493.8l2.66 1.594v3.088a.993.993 0 0 0 .985 1 .936.936 0 0 0 .985-1v-2.291h.493a2.7 2.7 0 0 0 1.281-.3 3 3 0 0 0 1.379-2.889 7.215 7.215 0 0 0-3.055-5.984zm.887 7.272a1.068 1.068 0 0 1-.788 0v-4.582a6.758 6.758 0 0 1 1.281 3.387 1.848 1.848 0 0 1-.494 1.195zm-3.546-13.447a1.068 1.068 0 0 1 .788 0v4.582a6.758 6.758 0 0 1-1.281-3.387 1.348 1.348 0 0 1 .492-1.196z" class="cls-1" data-name="Path 3414" transform="translate(1025.848 5222.917)"/>
        <path id="Path_3415" d="M65.557 92.37a4.187 4.187 0 0 0 1.576.5 1.969 1.969 0 0 0 1.084-.3 2.729 2.729 0 0 0 1.183-2.391 6.4 6.4 0 0 0-2.858-4.979 2.8 2.8 0 0 0-2.66-.2 2.729 2.729 0 0 0-1.182 2.39 6.4 6.4 0 0 0 2.857 4.98zm-.591-5.678a1.39 1.39 0 0 1 .591.2 4.357 4.357 0 0 1 1.872 3.287.956.956 0 0 1-.2.7.605.605 0 0 1-.69-.2 4.357 4.357 0 0 1-1.869-3.289 1.452 1.452 0 0 1 .2-.7z" class="cls-1" data-name="Path 3415" transform="translate(1025.833 5222.958)"/>
        <path id="Path_3416" d="M84.4 94.918a.369.369 0 0 0-.1-.3L78 82.666c-.1-.1-.1-.2-.2-.2l-.1-.1h-.1L63.419 74a.887.887 0 0 0-.985 0L58.3 76.39l-6.4 4.582a.909.909 0 0 0-.394.8v39.446a.888.888 0 0 0 .493.8l26.788 15.732c.1 0 .1.1.2.1h.394a.88.88 0 0 0 .493-.1l4.137-2.391a1.017 1.017 0 0 0 .493-.8V95.117c-.1-.1-.1-.1-.1-.2zm-2.266-.2l-2.463 1.494-5.418-10.26 2.463-1.494zm-3.743 2.988v30.182L53.47 113.346V82.367l5.418-3.885 13.5 7.869zm-17.73-20.419l2.266-1.295 12.313 7.172-2.266 1.295zm17.732 52.893v5.08L53.47 120.717v-5.08zm4.137-33.469v29.883l-2.266 1.295V98.006zm0 32.174v5.08l-2.266 1.295v-5.08z" class="cls-1" data-name="Path 3416" transform="translate(1026 5223)"/>
    </g>
</svg>
