<svg xmlns="http://www.w3.org/2000/svg" viewBox="0 0 44 68">
    <defs>
        <style>
            .cls-1{fill:#74be21}
        </style>
    </defs>
    <path id="icon_list" d="M156.992 48.987L190.657 68.6a.1.1 0 0 1 .1.1.342.342 0 0 1 .2.1h.1a.731.731 0 0 0 .492-.1l8.465-4.978.1-.1c.1 0 .1-.1.2-.1.1-.1.1-.2.2-.3V21.21c0-.1-.1-.2-.1-.3-.1-.1-.1-.2-.2-.3l-.1-.1h-.1L166.54.9h-.1c-.1 0-.1-.1-.2-.1h-.394c-.1 0-.1 0-.2.1h-.1l-8.465 4.978c-.1.1-.2.1-.3.2l-.1.1c-.1.1-.1.2-.2.3v41.613a1.048 1.048 0 0 0 .511.896zm2.559-42.214l2.166-1.294 31.6 18.419-2.166 1.294zM194.4 25.69v38.928l-2.166 1.294V26.984zM163.784 4.285l2.166-1.295 31.6 18.419-2.169 1.291zm32.582 59.139V24.5l2.166-1.294v38.923zm-7.284-5.078l-5.02 2.887v-5.774zm1.083 1.792v5.775l-5.02-2.887zm-31.6-21.206v-5.476l3.347 1.892v5.476zm0-7.766V25.69l3.347 1.892v5.476zm0-7.865v-5.377l3.347 1.892v5.476zm4.335 24.691a.992.992 0 0 0 .984-1v-2.485l15.356 8.96a.886.886 0 0 0 .984 0 1.062 1.062 0 0 0 0-1.792l-16.34-9.657v-5.476l26.282 15.332v4.679l-6.6-3.783a.886.886 0 0 0-.984 0 1.048 1.048 0 0 0-.492.9v7.567l-23.523-13.743v-6.173l3.347 1.892V46.9a.964.964 0 0 0 .986 1.092zm0-34.05a.992.992 0 0 0-.984 1v2.489l-3.347-1.892V8.566l31.6 18.419v6.969l-26.286-15.333v-3.683a1.065 1.065 0 0 0-.983-.996zm27.266 22.4v5.476l-26.283-15.431v-5.476zm0 7.766v5.476l-26.283-15.332v-5.475z" class="cls-1" data-name="icon list" transform="translate(-156.5 -.8)"/>
</svg>
