<svg xmlns="http://www.w3.org/2000/svg" viewBox="0 0 50 64">
    <defs>
        <style>
            .cls-1{fill:#74be21}
        </style>
    </defs>
    <g id="icon_server" data-name="icon server" transform="translate(-1026 -5223)">
        <path id="Path_3402" d="M6.794 44.962l17.095 9.969a.735.735 0 0 0 .494.1.884.884 0 0 0 .494-.1 1.018 1.018 0 0 0 .494-.8V43.866a.889.889 0 0 0-.494-.8L7.782 33.1a.891.891 0 0 0-.988 0 1.018 1.018 0 0 0-.494.8v10.165a1.049 1.049 0 0 0 .494.897zm1.482-1.4v-7.97l1.482.9v7.975zm3.36 1.994v-7.971l1.482.9v7.975zm3.458 1.994v-7.971l1.482.9v7.975zm3.36 1.994v-7.971l1.482.9v7.975zm3.458 1.994v-7.971l1.482.9v7.975z" class="cls-1" data-name="Path 3402" transform="translate(1025.925 5222.897)"/>
        <path id="Path_3403" d="M28.074 50.182a2.785 2.785 0 0 0 1.285.4 2.864 2.864 0 0 0 .889-.2 2.164 2.164 0 0 0 .988-1.894 4.727 4.727 0 0 0-2.174-3.788 2.131 2.131 0 0 0-2.174-.1 2.164 2.164 0 0 0-.988 1.894 4.7 4.7 0 0 0 2.174 3.688zm-.3-3.788v-.2c.1 0 .2 0 .2.1a3.153 3.153 0 0 1 1.285 2.193v.2c-.1 0-.2 0-.2-.1a3.153 3.153 0 0 1-1.282-2.193z" class="cls-1" data-name="Path 3403" transform="translate(1025.693 5222.862)"/>
        <path id="Path_3404" d="M4.088 43.859a.994.994 0 0 0 .988-1V31.8a1 1 0 0 0-.988-1 .938.938 0 0 0-.988 1v11.062a.994.994 0 0 0 .988.997z" class="cls-1" data-name="Path 3404" transform="translate(1025.963 5222.904)"/>
        <path id="Path_3405" d="M30.155 52.5l-2.273-1.3a.891.891 0 0 0-.988 0 1.018 1.018 0 0 0-.494.8.889.889 0 0 0 .494.8l2.273 1.3a.975.975 0 0 0 1.285-.4c.395-.307.197-.905-.297-1.2z" class="cls-1" data-name="Path 3405" transform="translate(1025.687 5222.841)"/>
        <path id="Path_3406" d="M30.156 56.5l-2.273-1.3a.869.869 0 0 0-1.285.4.883.883 0 0 0 .4 1.3l2.273 1.3a.957.957 0 0 0 .889-1.695z" class="cls-1" data-name="Path 3406" transform="translate(1025.686 5222.828)"/>
        <path id="Path_3407" d="M6.794 27.763l17.095 9.969a.735.735 0 0 0 .494.1.884.884 0 0 0 .494-.1 1.018 1.018 0 0 0 .494-.8V26.766a.889.889 0 0 0-.494-.8L7.782 16a.891.891 0 0 0-.988 0 1.018 1.018 0 0 0-.494.8v10.165a.889.889 0 0 0 .494.798zm1.482-1.4v-7.971l1.482.9v7.975zm3.36 1.994v-7.971l1.482.9v7.975zm3.458 1.994V22.38l1.482.9v7.975zm3.36 1.994v-7.972l1.482.9v7.975zm3.458 1.994v-7.972l1.482.9v7.975z" class="cls-1" data-name="Path 3407" transform="translate(1025.925 5222.951)"/>
        <path id="Path_3408" d="M28.074 33.082a2.785 2.785 0 0 0 1.285.4 2.864 2.864 0 0 0 .889-.2 2.164 2.164 0 0 0 .988-1.894 4.727 4.727 0 0 0-2.174-3.788 2.131 2.131 0 0 0-2.174-.1 2.164 2.164 0 0 0-.988 1.894 5.029 5.029 0 0 0 2.174 3.688zm-.3-3.888v-.2c.1 0 .2 0 .2.1a3.153 3.153 0 0 1 1.285 2.193v.2c-.1 0-.2 0-.2-.1a3.153 3.153 0 0 1-1.282-2.193z" class="cls-1" data-name="Path 3408" transform="translate(1025.693 5222.915)"/>
        <path id="Path_3409" d="M4.088 26.659a.994.994 0 0 0 .988-1V14.6a.909.909 0 0 0-.3-.7.949.949 0 0 0-1.383 0 .909.909 0 0 0-.3.7v11.062a.994.994 0 0 0 .995.997z" class="cls-1" data-name="Path 3409" transform="translate(1025.963 5222.958)"/>
        <path id="Path_3410" d="M30.156 35.3L27.883 34a.869.869 0 0 0-1.285.4.883.883 0 0 0 .4 1.3l2.273 1.3a.735.735 0 0 0 .494.1.884.884 0 0 0 .494-.1 1.018 1.018 0 0 0 .494-.8 1.452 1.452 0 0 0-.597-.9z" class="cls-1" data-name="Path 3410" transform="translate(1025.686 5222.895)"/>
        <path id="Path_3411" d="M30.156 39.3L27.883 38a.861.861 0 0 0-.692-.1c-.2.1-.494.2-.593.5a.883.883 0 0 0 .4 1.3l2.273 1.3a.975.975 0 0 0 1.285-.4.924.924 0 0 0-.4-1.3z" class="cls-1" data-name="Path 3411" transform="translate(1025.686 5222.882)"/>
        <path id="Path_3412" d="M49.8 20.037a.368.368 0 0 0-.1-.3c-.1-.1-.1-.2-.2-.2a.1.1 0 0 1-.1-.1L16.3.1h-.1c-.1 0-.1 0-.2-.1h-.4c-.1 0-.1 0-.2.1h-.1L.494 8.773c-.1.1-.2.1-.3.2v.1c-.1.1-.1.2-.2.3v34.49a.889.889 0 0 0 .494.8l33 19.24c.1 0 .1.1.2.1h.4a.884.884 0 0 0 .494-.1l14.921-8.673.1-.1.3-.3a.349.349 0 0 0 .1-.2V20.137c-.2 0-.2 0-.2-.1zM33 29.408v14.854L1.877 26.218V11.265zm0 17.146v14.854L1.877 43.265V28.411zm13.937-26.417l-12.945 7.576L2.866 9.67 15.81 2.093zm.988 1.695v14.853L34.98 44.262V29.408zm0 17.146v14.854L34.98 61.408V46.554z" class="cls-1" data-name="Path 3412" transform="translate(1026 5223)"/>
    </g>
</svg>
