<svg xmlns="http://www.w3.org/2000/svg" viewBox="0 0 55 64">
    <defs>
        <style>
            .cls-1{fill:#fff}
        </style>
    </defs>
    <g id="icon_clock" data-name="icon clock" transform="translate(0 -.015)">
        <path id="Path_3352" d="M32.05 3.186C25.423-.6 18.993-1 14.442 1.991L7.914 5.874a6.789 6.789 0 0 0-.791.3l-.1.1C2.473 8.861 0 14.336 0 21.5a34.59 34.59 0 0 0 .791 7.168v.1a41.518 41.518 0 0 0 2.275 7.566.348.348 0 0 0 .1.2A61.164 61.164 0 0 0 6.628 43.8a.1.1 0 0 0 .1.1.1.1 0 0 0 .1.1 59.656 59.656 0 0 0 4.55 6.571c0 .1.1.1.1.2a43.445 43.445 0 0 0 5.54 5.774 32.3 32.3 0 0 0 5.935 4.281 20.917 20.917 0 0 0 10.585 3.186h.2a13.086 13.086 0 0 0 6.133-1.593h.1c.3-.2.495-.3.791-.5l7.221-4.181C52.527 55.154 55 49.679 55 42.511c-.1-14.337-10.387-32.058-22.95-39.325zm8.507 51.67a1.26 1.26 0 0 0-.89.7 1.09 1.09 0 0 0 .2 1.1l1.484 1.792a14.363 14.363 0 0 1-1.781 1.692l-.989-1.792a1.232 1.232 0 0 0-1.978 0 1.084 1.084 0 0 0 0 1.1l1.088 1.792a18.374 18.374 0 0 1-2.176.7l-.89-2.389a1.1 1.1 0 0 0-.89-.7.938.938 0 0 0-.989.4 1.39 1.39 0 0 0-.2 1.1l.692 1.692a15 15 0 0 1-2.968-.3l-.495-2.489a.989.989 0 0 0-1.286-.8 1.145 1.145 0 0 0-.692.5 1.078 1.078 0 0 0-.2.8l.3 1.394a21.828 21.828 0 0 1-3.462-1.593v-3.803a1.088 1.088 0 1 0-2.176 0v2.488a45.761 45.761 0 0 1-3.462-2.588l.4-1.593a1.128 1.128 0 0 0-.3-1.1 1.111 1.111 0 0 0-1.088-.3 1.077 1.077 0 0 0-.791.8l-.1.5c-1.187-1.195-2.374-2.389-3.462-3.684l.692-1a1.074 1.074 0 0 0 .1-1.1.95.95 0 0 0-.89-.6 1 1 0 0 0-.989.5l-.3.4A46.111 46.111 0 0 1 9 43.9l.692-.4a1.326 1.326 0 0 0 .594-.9 1.228 1.228 0 0 0-.495-1 1.066 1.066 0 0 0-1.088 0l-.692.4c-.89-1.593-1.682-3.285-2.374-4.878h.495a.832.832 0 0 0 .692-.4 1.135 1.135 0 0 0 .3-.8 1.232 1.232 0 0 0-.4-.8.577.577 0 0 0-.692-.3l-1.187.1a44.2 44.2 0 0 1-1.484-4.779l.495.1a.989.989 0 0 0 1.286-.8 1.064 1.064 0 0 0-.1-.8c-.1-.3-.4-.4-.692-.5l-1.583-.4a21.053 21.053 0 0 1-.492-4.243l2.176 1.29a1.113 1.113 0 0 0 1.484-.4 1.13 1.13 0 0 0 .1-.8 1.786 1.786 0 0 0-.495-.7l-3.364-1.983a21.9 21.9 0 0 1 .3-3.584l.89.8a1.073 1.073 0 0 0 1.088.2.963.963 0 0 0 .692-.8 1.113 1.113 0 0 0-.3-1l-1.779-1.59c.3-.9.692-1.792 1.088-2.688l1.088 1.295a1.093 1.093 0 0 0 1.484.2 1.009 1.009 0 0 0 .4-.7 1.885 1.885 0 0 0-.2-.8l-1.486-1.787a9.684 9.684 0 0 1 1.78-1.692l1.088 1.792a1.232 1.232 0 0 0 1.978 0 1.084 1.084 0 0 0 0-1.1L9.2 7.666a8.3 8.3 0 0 1 2.374-.7l.89 2.19a1.143 1.143 0 0 0 1.385.6.9.9 0 0 0 .594-.6 1.1 1.1 0 0 0 0-.8l-.594-1.586a13.3 13.3 0 0 1 2.869.4l.495 2.29a.989.989 0 0 0 1.286.8 1.145 1.145 0 0 0 .692-.5 1.078 1.078 0 0 0 .2-.8l-.3-1a23.75 23.75 0 0 1 3.264 1.493v3.783a1.088 1.088 0 1 0 2.176 0v-2.484c1.187.8 2.374 1.692 3.462 2.588l-.4 1.593a1.064 1.064 0 0 0 .1.8c.1.3.4.4.692.5a.989.989 0 0 0 1.286-.8l.1-.5c1.187 1.195 2.374 2.389 3.462 3.684l-.692 1a1.074 1.074 0 0 0-.1 1.1.95.95 0 0 0 .89.6 1 1 0 0 0 .989-.5l.3-.4a46.111 46.111 0 0 1 3.067 4.58l-.692.4c-.3.1-.4.4-.495.7a1.064 1.064 0 0 0 .1.8 1.113 1.113 0 0 0 1.484.4l.692-.4c.89 1.593 1.682 3.285 2.374 4.878h-.495a1.021 1.021 0 0 0-.989 1.1 1.046 1.046 0 0 0 1.187 1l1.187-.1a44.2 44.2 0 0 1 1.484 4.779l-.495-.1a.989.989 0 0 0-1.286.8 1.064 1.064 0 0 0 .1.8c.1.3.4.4.692.5l1.583.4a21.053 21.053 0 0 1 .495 4.281L42.437 43.9a1.113 1.113 0 0 0-1.484.4 1.13 1.13 0 0 0-.1.8 1.785 1.785 0 0 0 .495.7l3.264 1.892a19.862 19.862 0 0 1-.3 3.484l-.791-.5a1.073 1.073 0 0 0-1.088-.2.843.843 0 0 0-.692.8.949.949 0 0 0 .4 1l1.682 1.493c-.3.9-.692 1.792-1.088 2.688l-1.088-1.294a1.41 1.41 0 0 0-1.089-.307zm6.331-7.566a34.59 34.59 0 0 0-.791-7.168v-.1a39.287 39.287 0 0 0-2.275-7.566.348.348 0 0 0-.1-.2 69.576 69.576 0 0 0-3.462-7.268c0-.1-.1-.2-.2-.3a51.507 51.507 0 0 0-4.55-6.571c0-.1-.1-.1-.1-.2a43.445 43.445 0 0 0-5.54-5.774 32.3 32.3 0 0 0-5.935-4.281 22.768 22.768 0 0 0-9.793-3.186l1.286-.8.1-.1c3.858-2.588 9.5-2.19 15.333 1.195C42.83 11.94 52.624 28.765 52.624 42.504c0 6.471-2.077 11.15-6.034 13.44l-1.978 1.1a19.683 19.683 0 0 0 2.276-9.755z" class="cls-1" data-name="Path 3352"/>
        <path id="Path_3353" d="M23 38.112a2.976 2.976 0 0 0 1.583.5 1.985 1.985 0 0 0 1.088-.3 2.617 2.617 0 0 0 1.187-2.389 6.03 6.03 0 0 0-2.275-4.48V19.5a1.088 1.088 0 1 0-2.176 0v10.946a2.119 2.119 0 0 0-1.879 1.1l-4.946-2.887a1.066 1.066 0 0 0-1.088 0 1.19 1.19 0 0 0-.495.9.934.934 0 0 0 .495.9l5.638 3.285A6.782 6.782 0 0 0 23 38.112zm-.692-5.675l.2.2a.753.753 0 0 1 .495.2 4.156 4.156 0 0 1 1.781 3.086 1.214 1.214 0 0 1-.1.5 1.248 1.248 0 0 1-.594-.1 4.156 4.156 0 0 1-1.781-3.086 1.214 1.214 0 0 1 .1-.5z" class="cls-1" data-name="Path 3353" transform="translate(-.151 -.082)"/>
        <path id="Path_3354" d="M24.123 39c-1.781-1-3.561-1.195-4.946-.4S17.1 40.987 17.1 42.978a12.851 12.851 0 0 0 5.935 10.254 5.21 5.21 0 0 0 2.968.9 4.071 4.071 0 0 0 1.879-.5c1.385-.8 2.077-2.389 2.077-4.38A12.368 12.368 0 0 0 24.123 39zm1.286 4.779l-2.275 1.294c-.3.1-.4.4-.495.7a1.064 1.064 0 0 0 .1.8 1 1 0 0 0 .989.5.737.737 0 0 0 .495-.1l2.277-1.307a.993.993 0 0 0 .4-.5 10.825 10.825 0 0 1 1.088 3.982 2.932 2.932 0 0 1-.989 2.489 2.686 2.686 0 0 1-2.77-.4 10.752 10.752 0 0 1-4.847-8.363 2.932 2.932 0 0 1 .989-2.489 2.316 2.316 0 0 1 .791-.2 3.243 3.243 0 0 1 1.879.6 9.935 9.935 0 0 1 2.859 2.89 1.07 1.07 0 0 0-.491.1z" class="cls-1" data-name="Path 3354" transform="translate(-.185 -.169)"/>
    </g>
</svg>
