<svg xmlns="http://www.w3.org/2000/svg" viewBox="0 0 57 64">
    <defs>
        <style>
            .cls-1{fill:#74be21}
        </style>
    </defs>
    <g id="icon_link" data-name="icon link" transform="translate(-1215 -5328.428)">
        <path id="Path_3419" d="M245.9 120.706c0-.2-.1-.3-.1-.4-.1-.1-.1-.2-.2-.3l-.1-.1-23.2-13.406h-1l-5.1 2.5c-.1 0-.1.1-.2.2s-.1.1-.1.2v16.307a.891.891 0 0 0 .5.8l23.2 13.406h.5a.6.6 0 0 0 .4-.1l5.1-2.5a.215.215 0 0 0 .2-.2v-.1c.1-.1.1-.1.1-.2v-.1c0-.1.1-.2.1-.3v-15.707zm-6 1.5L218.7 109.9l3-1.5 21.2 12.306zm1 1.7l3.1-1.6v13.606l-3.1 1.6zm-2-.1v13.606l-21.3-12.306V111.5z" class="cls-1" data-name="Path 3419" transform="translate(1026 5223)"/>
        <path id="Path_3420" d="M231.3 145.818l-31.8-18.408c-4.7-2.7-8.5-9.3-8.5-14.707 0-2.4.8-4.2 2.1-4.9 1.4-.8 3.3-.6 5.4.6l7.1 4.1 3.3 5.7a1.02 1.02 0 0 0 .8.5.9.9 0 0 0 .5-.1l3.4-2a1.025 1.025 0 0 0 .5-.6.822.822 0 0 0-.1-.7l-3.4-5.9a1.011 1.011 0 0 0-1.3-.4l-3 1.7-6.8-3.9c-2.7-1.6-5.4-1.8-7.4-.6s-3.1 3.5-3.1 6.6c0 6 4.3 13.406 9.5 16.407l31.8 18.408c4.7 2.7 8.5 9.3 8.5 14.707 0 2.4-.8 4.2-2.1 4.9-1.4.8-3.3.6-5.4-.6l-12.1-7v-.7l1.3-.8a.962.962 0 0 0-.9-1.7l-.4.2v-9.9a.368.368 0 0 0-.1-.3c-.1-.1-.1-.2-.2-.3l-.1-.1-.1-.1-23.2-13.406h-.1a.1.1 0 0 1-.1-.1h-.8l-5.1 2.5c-.1 0-.1.1-.2.2v.1c0 .1-.1.1-.1.2v16.307a.891.891 0 0 0 .5.8l23.2 13.406h.5a.6.6 0 0 0 .4-.1l4.5-2.3 1.1 1.9a1.02 1.02 0 0 0 .8.5h.1a.752.752 0 0 0 .7-.5.909.909 0 0 0 0-1l-1.6-2.8 11.1 6.4a10.305 10.305 0 0 0 4.5 1.4h.1a6.809 6.809 0 0 0 2.8-.7c2-1.2 3.1-3.5 3.1-6.6 0-5.909-4.3-13.212-9.6-16.314zM207.7 112.1l1.8-1 2.5 4.3-1.8 1zm5.6 36.116L192 136.014l3-1.5 21.2 12.306zm-1 1.7v13.606L191 151.121v-13.607zm1.9 0l3.1-1.6v9.4l-1.1.6a.1.1 0 0 0-.1.1l-.1.1v.1a.1.1 0 0 1-.1.1v.5c0 .1 0 .1.1.2v.1l1.4 2.4-3 1.5V149.92z" class="cls-1" data-name="Path 3420" transform="translate(1026 5223)"/>
    </g>
</svg>
