<svg xmlns="http://www.w3.org/2000/svg" viewBox="0 0 35 75">
    <defs>
        <style>
            .cls-1{fill:#74be21}
        </style>
    </defs>
    <g id="icon_zoom" data-name="icon zoom" transform="translate(-.008 -.985)">
        <path id="Path_3421" d="M24.72 39.8l4.924-2.506a3.011 3.011 0 0 0 .8-.4c.1 0 .1-.1.2-.1 5.728-3.408 5.828-13.634.2-23.358S16.178-1.306 10.25 2L4.522 4.809A8.66 8.66 0 0 0 .5 10.323c-1.3 5.013 0 11.629 3.62 17.844a31.385 31.385 0 0 0 6.733 8.22v10.928l-1 .4h-.1a.216.216 0 0 0-.2.2v.1a.31.31 0 0 0-.1.2v.1c0 .1-.1.2-.1.3v21.456a1.052 1.052 0 0 0 .5.9l8.541 4.912a.312.312 0 0 1 .2.1h.4a.605.605 0 0 0 .4-.1l5.728-2.807.1-.1c.1 0 .1-.1.2-.1.1-.1.1-.2.2-.3V50.824a.368.368 0 0 0-.1-.3v-.1c-.1-.1-.1-.2-.2-.3l-.1-.1-.1-.1-1-.5V40.1zm4.421-25.263c5.024 8.621 5.225 17.844.5 20.651l-.1.1-.6.3h-.1l-.5.3c.2-.5.4-1.1.6-1.6 1.306-5.012 0-11.629-3.618-17.844C21.2 9.521 15.575 5.01 10.551 4.108l.6-.3C15.977 1 24.217 6.012 29.141 14.534zM5.828 27.365c-3.316-5.714-4.622-11.93-3.417-16.34a6.747 6.747 0 0 1 3.015-4.311h.1a6.081 6.081 0 0 1 3.015-.7c4.723 0 10.752 4.511 14.872 11.529 3.316 5.714 4.622 11.93 3.417 16.34a6.747 6.747 0 0 1-3.015 4.311 7.86 7.86 0 0 1-6.029.3c-.1 0-.1 0-.2-.1a15.224 15.224 0 0 1-4.924-2.907.351.351 0 0 0-.2-.1 33.619 33.619 0 0 1-6.634-8.022zM16.379 39.9v11.224l-1.306-.7-2.211-1.3V38.092a23.268 23.268 0 0 0 3.517 1.808zm7.235 31.879L19.9 73.68V54.432l3.718-1.9zM11.355 69.67V50.523l3.115 1.8 1.206.7h.1l1.105.6c.1.1.2.1.3.2l.9.5v19.156zm10.752-20.15l-3.718 1.9V40.5a9.933 9.933 0 0 0 2.412.3 6.65 6.65 0 0 0 1.407-.1v8.82z" class="cls-1" data-name="Path 3421"/>
        <path id="Path_3422" d="M20.782 36.973a5.024 5.024 0 0 0 2.11-.5 5.231 5.231 0 0 0 2.208-3.21c1-3.91-.2-9.724-3.216-14.937C17.566 11.008 11.939 7.7 8.523 7.7a3.034 3.034 0 0 0-2.11.5A5.231 5.231 0 0 0 4.2 11.409c-1 3.91.2 9.824 3.216 14.937 4.222 7.318 9.849 10.627 13.366 10.627zM6.111 11.91a2.976 2.976 0 0 1 1.306-2 2.029 2.029 0 0 1 1.105-.3c2.914 0 8.039 3.408 11.656 9.624 2.814 4.812 4.019 10.025 3.015 13.433a2.976 2.976 0 0 1-1.306 2 2.029 2.029 0 0 1-1.105.3c-2.914 0-8.039-3.408-11.656-9.624-2.814-4.711-3.919-10.024-3.015-13.433z" class="cls-1" data-name="Path 3422" transform="translate(.019 .017)"/>
        <path id="Path_3423" d="M14.528 28.631a1.029 1.029 0 0 0 1-1V24.02l3.216 1.9a.965.965 0 1 0 .9-1.7l-4.22-2.406V17a1 1 0 0 0-2.01 0v3.709l-3.216-1.9a.915.915 0 0 0-1 0 1.061 1.061 0 0 0 0 1.8l4.22 2.406v4.812a.909.909 0 0 0 .3.7c.207.004.509.104.81.104z" class="cls-1" data-name="Path 3423" transform="translate(.042 .037)"/>
    </g>
</svg>
