<svg xmlns="http://www.w3.org/2000/svg" height="95" width="62" viewBox="0 0 62 95">
    <defs>
        <style>
            .cls-1{fill:#74be21}
        </style>
    </defs>
    <g id="icon_smartphone" data-name="icon smartphone" transform="translate(-1253 -5960.998)">
        <path id="Path_2520" d="M171.68 391.372l-1.992-1.15a1.986 1.986 0 0 0-2.025-.061 2.25 2.25 0 0 0-1.034 2.037v1.847a4.018 4.018 0 0 0 1.8 3.331l1.991 1.15a2.2 2.2 0 0 0 1.1.311 1.848 1.848 0 0 0 .929-.249 2.25 2.25 0 0 0 1.034-2.037V394.7a4.02 4.02 0 0 0-1.803-3.328zm-.717 4.563l-1.275-.736a1.641 1.641 0 0 1-.545-1.154l.006-1.232 1.275.736a1.641 1.641 0 0 1 .545 1.154zm.088 1.5l.628-1.089z" class="cls-1" data-name="Path 2520" transform="translate(1101.56 5644.787)"/>
        <path id="Path_2521" d="M134.281 25.127l-.11-.064a4.835 4.835 0 0 0-.493-.26 15.519 15.519 0 0 0-4.5-1.653 8.3 8.3 0 0 0-3.759-6.32L97.5.57a3.633 3.633 0 0 0-2.884-.449 1.226 1.226 0 0 0-.29.089c-.028.012-.06.014-.088.027l-.008.006c-.034.016-.07.016-.1.035l-6.2 3.606a1.2 1.2 0 0 0-.208.185A3.445 3.445 0 0 0 86.3 7.086v64.472a8.3 8.3 0 0 0 3.78 6.585l27.9 16.257a4.046 4.046 0 0 0 2.028.6 3.037 3.037 0 0 0 1-.186q.06-.017.119-.04c.054-.021.111-.031.165-.055s.087-.054.13-.079l5.9-3.445.251-.145c.029-.018.043-.048.07-.068a3.452 3.452 0 0 0 1.551-3.093V60.127a12.84 12.84 0 0 0 4.786 1.049 7.971 7.971 0 0 0 4.061-1.036c.048-.028.089-.066.137-.095l5.989-3.492c.01-.006.015-.016.025-.023 2.639-1.5 4.094-4.506 4.094-8.481.003-8.142-6.275-18.422-14.005-22.922zM95.248 2.514c.012-.005.025 0 .037-.009.142-.07.491-.046.988.237L124.18 19a5.886 5.886 0 0 1 2.5 3.981c-.217.014-.433.027-.643.057a7.106 7.106 0 0 0-3.4 1.28l-.165.1a8.164 8.164 0 0 0-3.249-3.98L91.852 4.491zm-6.474 10.5l6.7 3.9a1.23 1.23 0 0 0 1.24 0 1.256 1.256 0 0 0 0-2.167l-7.935-4.622V7.086c0-.5.125-.879.333-.978.138-.066.476-.046.968.236L117.982 22.6a5.875 5.875 0 0 1 2.3 3.078l-3.2 1.848-.012.007c-.044.024-.092.039-.136.064-2.617 1.524-4.057 4.536-4.057 8.483a23.078 23.078 0 0 0 2.19 9.246c-.292 3.419-1.024 5.014-1.576 5.339a1.255 1.255 0 0 0 .151 2.235 23.6 23.6 0 0 0 6.89 1.662v24.817l-4.832-2.811c-1.4-3.058-2.853-5.918-4.918-7.649l-.189-.156a.727.727 0 0 0-.152-.111 4.929 4.929 0 0 1-.26-.349 3.3 3.3 0 0 1-.487-2.045 8.07 8.07 0 0 0-.028-.488c-.008-.126-.025-.342-.035-.54a7.223 7.223 0 0 0 2.487-3.357 2.161 2.161 0 0 0 1.121-1.992v-2.59a4.819 4.819 0 0 0-.892-2.391v-3.059c0-.274-.143-6.755-7.7-11.151-2.881-1.675-5.176-2.041-6.834-1.089a4.8 4.8 0 0 0-2.116 4v2.7a2.081 2.081 0 0 0-.88 1.7v2.589a4.665 4.665 0 0 0 .959 2.584 26.405 26.405 0 0 0 2.579 6.521c0 .144.01.3.016.451a11.351 11.351 0 0 1-.016 1.592l-.055-.018c-.14-.04-.282-.081-.429-.112a4.465 4.465 0 0 0-3.5.869 10.29 10.29 0 0 0-1.094.826 2.009 2.009 0 0 0-.13.128l-4.374-2.548V13.017zm12.08 47.032c-.01-.248-.019-.485-.019-.695a1.261 1.261 0 0 0-.169-.633 24.11 24.11 0 0 1-2.506-6.3 1.254 1.254 0 0 0-.24-.537 2.544 2.544 0 0 1-.619-1.294v-2.372c.04-.021.092-.048.163-.081A1.253 1.253 0 0 0 98.182 47v-3.38c0-.014.057-1.39.874-1.851.47-.27 1.663-.481 4.358 1.087 6.274 3.651 6.453 8.8 6.458 9v3.413a1.259 1.259 0 0 0 .2.688 4.349 4.349 0 0 1 .687 1.338V59.7a1.246 1.246 0 0 0-.858.917 4.764 4.764 0 0 1-1.965 2.761c-.9.418-.832 1.368-.742 2.571.01.134.019.247.021.3a5.784 5.784 0 0 0 .915 3.451 7.573 7.573 0 0 0 .473.618 4.764 4.764 0 0 0 .441.388l.143.118a12.691 12.691 0 0 1 2.618 3.467l-16.348-9.516c.092-.065.183-.145.273-.2a2.063 2.063 0 0 1 1.616-.519c.091.021.184.048.277.074a4.541 4.541 0 0 0 .581.14 2.176 2.176 0 0 0 .761.028c2.04-.298 1.946-2.771 1.89-4.249zm19.38 32.4l-.049.028a1.265 1.265 0 0 1-.968-.239l-27.9-16.257a5.825 5.825 0 0 1-2.539-4.418v-7.789l31.757 18.5v9.224a1.244 1.244 0 0 1-.3.949zm6.482-4.556c0 .562-.166.893-.331.971-.03.014-.048.041-.076.057-.009 0-.018 0-.027.008l-3.273 1.907v-8.569l3.706-2.158zm0-10.67l-3.706 2.158v-23.2a24.75 24.75 0 0 0 3.706 2.729zm10.221-19.337l-.191.111c-.008 0-.013.014-.021.019-2.138 1.194-5.27.772-8.618-1.179a23.888 23.888 0 0 1-5.4-4.412 1.235 1.235 0 0 0-.9-.4h-.038c-.037 0-.073 0-.11.007a14.635 14.635 0 0 1-5.441-.858 15.687 15.687 0 0 0 1.351-5.979 1.276 1.276 0 0 0-.111-.622 20.78 20.78 0 0 1-2.1-8.494c0-3.015 1-5.258 2.818-6.317 2.14-1.245 5.309-.828 8.695 1.144 7.029 4.097 12.75 13.409 12.75 20.757.001 2.94-.955 5.13-2.683 6.221zm5.984-3.492l-.211.126-1.059.617a13.164 13.164 0 0 0 .451-3.474c0-8.144-6.277-18.424-13.993-22.917a16.293 16.293 0 0 0-4.823-1.917l.621-.359.111-.076.034-.023a4.753 4.753 0 0 1 2.3-.85 10.546 10.546 0 0 1 6.252 1.534 3.426 3.426 0 0 1 .347.186l.11.064c7.033 4.095 12.755 13.4 12.755 20.75-.007 3.048-1.016 5.289-2.895 6.337z" class="cls-1" data-name="Path 2521" transform="translate(1166.711 5961)"/>
        <path id="Path_2522" d="M265.435 179.049l9.763 5.637a1.257 1.257 0 1 0 1.257-2.177l-9.763-5.637a1.257 1.257 0 0 0-1.257 2.177z" class="cls-1" data-name="Path 2522" transform="translate(1021.937 5817.695)"/>
        <path id="Path_2523" d="M279.709 237.051l-13.018-7.516a1.257 1.257 0 0 0-1.257 2.177l13.018 7.516a1.257 1.257 0 1 0 1.257-2.177z" class="cls-1" data-name="Path 2523" transform="translate(1021.937 5774.988)"/>
        <path id="Path_2524" d="M264.975 203.664a1.257 1.257 0 0 0 .46 1.717l15.186 8.769a1.257 1.257 0 1 0 1.257-2.177l-15.187-8.773a1.257 1.257 0 0 0-1.716.464z" class="cls-1" data-name="Path 2524" transform="translate(1021.937 5796.342)"/>
    </g>
</svg>
