<svg xmlns="http://www.w3.org/2000/svg" height="79" width="63" viewBox="0 0 63 79">
    <defs>
        <style>
            .cls-1{fill:#74be21}
        </style>
    </defs>
    <g id="icon_shopping-bag" data-name="icon shopping-bag" transform="translate(-1253 -6260)">
        <path id="Path_2525" d="M114.221 25.3c0-.037-.011-.072-.015-.109a1.3 1.3 0 0 0-.1-.361c-.01-.023-.008-.047-.019-.07s-.02-.022-.027-.035a1.3 1.3 0 0 0-.282-.362c-.021-.018-.045-.029-.067-.046a1.289 1.289 0 0 0-.21-.145l-11.869-5.953c-1.368-7.589-5.272-14.386-9.849-17.05a6.711 6.711 0 0 0-6.655-.523c-2.234 1.123-3.813 3.586-4.551 7.012l-11.7-5.868c-.013-.006-.027 0-.04-.011-.028-.013-.056-.023-.086-.035a1.274 1.274 0 0 0-.224-.05 1.29 1.29 0 0 0-.2-.036c-.013 0-.025-.008-.038-.008s-.025.007-.038.008q-.214.034-.424.086c-.029.011-.057.021-.085.034-.013.006-.027 0-.04.011l-15.75 7.9c-.014.007-.021.02-.034.027s-.047.017-.068.031a1.3 1.3 0 0 0-.286.246c-.021.023-.035.049-.054.074a1.308 1.308 0 0 0-.185.328c-.012.03-.026.058-.035.089a1.3 1.3 0 0 0-.063.383V55.3a1.316 1.316 0 0 0 .726 1.178l44.625 22.383c.018.009.039.005.057.014l.017.007a.993.993 0 0 0 .512.118 1.3 1.3 0 0 0 .314-.04l.027-.007c.03-.008.057-.024.086-.034a1.289 1.289 0 0 0 .159-.058l15.75-7.9.007-.006a1.3 1.3 0 0 0 .311-.226c.019-.018.034-.039.052-.058s.046-.052.068-.08.048-.048.067-.078.026-.074.045-.11a1.277 1.277 0 0 0 .083-.158 1.291 1.291 0 0 0 .037-.135 1.27 1.27 0 0 0 .032-.211c0-.04.023-.075.023-.116V25.349c.002-.017-.004-.032-.004-.049zM86.3 3a4.254 4.254 0 0 1 4.164.448c3.5 2.038 6.679 7.288 8.166 13.266L83.015 8.881C83.522 5.934 84.694 3.809 86.3 3zm-16.7 8.614a4.057 4.057 0 0 1 5.121-.265 17.113 17.113 0 0 1 6.2 7.731 30.072 30.072 0 0 1 1.944 5.52L69.6 17.952v-6.338zm-6.561-4.541L66.977 5.1v5.494a12.232 12.232 0 0 0-2.153 4.964l-1.784-.895zm-2.625 1.316v4.955l-4.94-2.477zm35.438 67.164l-42-21.065V13l42 21.065zm1.312-43.777l-10.732-5.383c-.279-.5-.552-1.016-.809-1.568a32.487 32.487 0 0 0-2.323-6.864 19.667 19.667 0 0 0-7.268-8.893 6.9 6.9 0 0 0-6.432-.593V5.1l40.38 20.249zm1.313 2.524a6.1 6.1 0 0 0 .5-.491l4.755-2.385v32.729l-5.25 8.777zm2.132 40.179l4.848-8.1 4.848 3.242zm10.993-7.16l-5.25-3.511v-33.7l5.25-2.633z" class="cls-1" data-name="Path 2525" transform="translate(1201.773 6260)"/>
    </g>
</svg>
