<svg xmlns="http://www.w3.org/2000/svg" height="99" width="57" viewBox="0 0 57 99">
    <defs>
        <style>
            .cls-1{fill:#74be21}
        </style>
    </defs>
    <g id="icon_file" data-name="icon file" transform="translate(-672 -5959.001)">
        <path id="Path_2514" d="M166.075 207.793l-4.2 4.245a1.3 1.3 0 0 0-.24 1.495l13.892 27.808c.011.023.035.035.047.057a1.273 1.273 0 0 0 .138.2 1.29 1.29 0 0 0 .121.124c.017.016.031.036.049.05s.016.02.027.027a1.33 1.33 0 0 0 .2.108c.031.016.052.043.084.057.013.006.027 0 .04.008a1.294 1.294 0 0 0 .15.043c.019 0 .034.02.054.025a1.3 1.3 0 0 0 .258.026h.026a1.261 1.261 0 0 0 .329-.046h.006c.018-.005.035-.014.053-.02a1.259 1.259 0 0 0 .122-.056 1.293 1.293 0 0 0 .236-.133c.019-.014.04-.023.058-.038l.019-.011 13.894-11.816a1.3 1.3 0 0 0 .338-1.537l-4.2-9.081a1.312 1.312 0 0 0-.534-.583L167.66 207.59a1.311 1.311 0 0 0-1.585.203zm10.862 29.026l-4.818-17 3.924 2.258 5.713 3.287zm3.088-.6l4.013-9.539 4.3 2.472zm7.654-10.453l-4.06-2.336 2.242-1.591zm-3.706-5.785l-1.979 1.4-1.98-3.683zm-5.41.54l-1.213-.7-3.422-1.97 2.317-1.644zm-4.281-6.117l-1.979 1.4-1.979-3.682zm-2.637 13.327l-5.736-11.483 2.966 1.707zm-6.723-15.06l1.768-1.786 2.181 4.058z" class="cls-1" data-name="Path 2514" transform="translate(520.678 5791.707)"/>
        <path id="Path_2515" d="M166.039 20.929c0-.04-.009-.077-.016-.117a1.3 1.3 0 0 0-.145-.431 1.3 1.3 0 0 0-.3-.343c-.03-.025-.058-.047-.09-.069s-.053-.047-.085-.065L131.079.155a1.219 1.219 0 0 0-.15-.055 1.276 1.276 0 0 0-.258-.087 1.8 1.8 0 0 0-.492 0 1.286 1.286 0 0 0-.257.087 1.21 1.21 0 0 0-.151.051L124.1 3.426c-.012.007-.021.018-.034.026s-.022.009-.032.015L109.641 12.9a1.259 1.259 0 0 0-.1.088 1.29 1.29 0 0 0-.126.108 1.3 1.3 0 0 0-.107.139.8.8 0 0 0-.159.3.786.786 0 0 0-.077.338c0 .039-.016.077-.016.117v55.68a1.3 1.3 0 0 0 .653 1.129l48.7 28.026h.006a1.308 1.308 0 0 0 .187.077.613.613 0 0 0 .3.074 1.3 1.3 0 0 0 .159.021 1.3 1.3 0 0 0 .652-.174l5.689-3.272a1.237 1.237 0 0 0 .121-.106 1.256 1.256 0 0 0 .2-.177 1.761 1.761 0 0 0 .246-.424 1.273 1.273 0 0 0 .054-.265 1.217 1.217 0 0 0 .032-.156V21.032c-.002-.032-.013-.068-.016-.103zm-42.6-13.957v12.77a1.145 1.145 0 0 1-.022.234 1.148 1.148 0 0 1-.232-.106l-10.339-5.951zm34.311 88.469L111.667 68.92V16.249l10.215 5.878a3.707 3.707 0 0 0 .794.341c.084.025.165.028.249.046a2.935 2.935 0 0 0 .535.078c.022 0 .045.01.067.01a2.524 2.524 0 0 0 .371-.047c.077-.011.157-.011.232-.029a2.38 2.38 0 0 0 .627-.247 2.8 2.8 0 0 0 1.3-2.537V6.813l31.693 18.241zm1.307-72.641l-31.7-18.242 3.065-1.767 31.7 18.243zm4.381 70.876l-3.075 1.769v-70.39l3.075-1.767z" class="cls-1" data-name="Path 2515" transform="translate(562.947 5959)"/>
    </g>
</svg>
