<svg xmlns="http://www.w3.org/2000/svg" height="83" width="70" viewBox="0 0 70 83">
    <defs>
        <style>
            .cls-1{fill:#74be21}
        </style>
    </defs>
    <g id="icon_offer" data-name="icon offer" transform="translate(-666 -6257)">
        <path id="Path_2516" d="M105.987 53.068l-2.694-3.828 1.5-4.431a1.321 1.321 0 0 0-.323-1.365l-3.32-3.271.777-4.6a1.32 1.32 0 0 0-.522-1.286l-3.756-2.74.134-4.66a1.318 1.318 0 0 0-.689-1.2l-4.086-2.212-.486-4.636a1.316 1.316 0 0 0-.848-1.1L87.32 16.12l-1.161-4.52a1.314 1.314 0 0 0-1.015-.963l-4.574-.909-1.956-4.258a1.3 1.3 0 0 0-1.208-.77l-4.695.062-2.98-3.655A1.308 1.308 0 0 0 68.286.7l-4.5 1.567-4.274-2.13a1.307 1.307 0 0 0-1.242.042L50.682 4.61a1.307 1.307 0 0 0-.348.293l-3.086 3.712-4.748.828a1.315 1.315 0 0 0-1.085 1.215l-.3 4.784-3.6 3.127a1.32 1.32 0 0 0-.369 1.461l1.663 4.418-2.4 4.05a1.321 1.321 0 0 0 .056 1.433l2.693 3.827-1.5 4.432a1.321 1.321 0 0 0 .323 1.365l3.32 3.27-.777 4.6a1.32 1.32 0 0 0 .522 1.286l3.754 2.743-.135 4.659a1.318 1.318 0 0 0 .689 1.2l4.086 2.212.486 4.636a1.316 1.316 0 0 0 .848 1.1l4.358 1.625L56.3 71.4a1.314 1.314 0 0 0 1.016.963l4.575.909 1.955 4.255a1.311 1.311 0 0 0 1.191.765h.017l4.694-.062 2.98 3.655a1.308 1.308 0 0 0 1.445.41l4.5-1.567 4.277 2.131a1.308 1.308 0 0 0 1.59-.335l3.086-3.711 4.745-.828a1.3 1.3 0 0 0 .434-.16l7.588-4.43a1.318 1.318 0 0 0 .65-1.056l.3-4.785 3.6-3.127a1.32 1.32 0 0 0 .369-1.461l-1.662-4.418 2.4-4.051a1.323 1.323 0 0 0-.063-1.429zm-5.022 5.821l1.493 3.969-5.288 3.088-1.115-2.963 2.227-3.757 2.92-1.7-.136.23a1.321 1.321 0 0 0-.102 1.133zm-3.914-9.183l4.131-2.412-.588 1.732a1.322 1.322 0 0 0 .17 1.185l2.253 3.2-5.311 3.1-2-2.843zm4.358-5.592l-5.236 3.058-2.606-2.567.675-3.994 4.634-2.711-.423 2.508a1.32 1.32 0 0 0 .375 1.16zm-3.17-8.885l-5.109 2.983-3.065-2.236.114-3.927 4.921-2.871-.086 2.987a1.319 1.319 0 0 0 .54 1.1zm-4.446-8.337l-4.929 2.878-3.44-1.862-.4-3.789 5.1-2.979.346 3.3a1.317 1.317 0 0 0 .682 1.021zm-5.631-7.65l-4.652 2.716-3.777-1.408-.913-3.556 5.232-3.055.9 3.5a1.315 1.315 0 0 0 .813.906zm-9.694-7.8a1.312 1.312 0 0 0 .936.74l1.824.362-4.158 2.424-4.089-.812-1.455-3.168 5.31-3.1zm-7.387-4.517a1.3 1.3 0 0 0 1.032.483h.333L69.473 9.14l-4.35.057-2.005-2.459 5.291-3.09zm-12.1-4.113l3.044 1.518-1.446.844L56.2 6.7l-2.093-1.044zm31.913 72.759l-4.2.733a1.31 1.31 0 0 0-.782.453l-2.731 3.284-3.843-1.915a1.306 1.306 0 0 0-1.013-.064l-4.152 1.447-2.8-3.434a1.331 1.331 0 0 0-1.032-.483l-4.475.059-1.878-4.089a1.312 1.312 0 0 0-.936-.74l-4.422-.879-1.13-4.386a1.315 1.315 0 0 0-.813-.906l-4.238-1.58-.473-4.515a1.317 1.317 0 0 0-.682-1.021l-3.984-2.156.132-4.542a1.319 1.319 0 0 0-.54-1.1l-3.659-2.669.757-4.481a1.32 1.32 0 0 0-.375-1.16l-3.22-3.172 1.453-4.283a1.322 1.322 0 0 0-.17-1.185L39.1 29.11l2.29-3.86a1.322 1.322 0 0 0 .1-1.139l-1.563-4.152 3.324-2.887a1.319 1.319 0 0 0 .451-.913l.27-4.3 4.2-.733a1.31 1.31 0 0 0 .782-.453l2.731-3.283 3.843 1.91a1.307 1.307 0 0 0 1.013.065l4.152-1.447 2.8 3.434a1.3 1.3 0 0 0 1.032.483L69 11.78l1.878 4.089a1.312 1.312 0 0 0 .936.74l4.422.879 1.126 4.386a1.316 1.316 0 0 0 .813.906l4.238 1.58.473 4.515a1.317 1.317 0 0 0 .682 1.021l3.984 2.156-.131 4.548a1.319 1.319 0 0 0 .54 1.1l3.659 2.669-.756 4.475A1.32 1.32 0 0 0 91.239 46l3.22 3.172-1.453 4.283a1.322 1.322 0 0 0 .17 1.185l2.588 3.678-2.288 3.861a1.322 1.322 0 0 0-.1 1.139l1.563 4.152-3.324 2.887a1.319 1.319 0 0 0-.451.913zm2.706-1.259l.146-2.323 3.508-3.046 1.416-.827-.211 3.36z" class="cls-1" data-name="Path 2516" transform="translate(629.773 6257)"/>
        <path id="Path_2517" d="M182.472 185.381a1.309 1.309 0 0 0-1.833.286l-14.4 19.782a1.32 1.32 0 0 0 .285 1.84 1.308 1.308 0 0 0 1.836-.289l14.4-19.782a1.32 1.32 0 0 0-.288-1.837z" class="cls-1" data-name="Path 2517" transform="translate(522.707 6104.38)"/>
        <path id="Path_2518" d="M147.86 148.319a4.087 4.087 0 0 0 2.075-.546 5.074 5.074 0 0 0 2.252-4.644 13.165 13.165 0 0 0-6.038-10.5 5.03 5.03 0 0 0-5.132-.364c-2.786 1.615-3.01 6.286-.51 10.634a12.214 12.214 0 0 0 4.3 4.51 6.189 6.189 0 0 0 3.053.91zm-5.081-6.737c-1.486-2.583-1.994-6.141-.45-7.036a1.512 1.512 0 0 1 .767-.187 3.646 3.646 0 0 1 1.75.556 10.564 10.564 0 0 1 4.719 8.206 2.053 2.053 0 0 1-3.457 2 9.706 9.706 0 0 1-3.329-3.539z" class="cls-1" data-name="Path 2518" transform="translate(545.166 6148.411)"/>
        <path id="Path_2519" d="M221.19 272.561a4.6 4.6 0 0 0-7.384 4.28 13.165 13.165 0 0 0 6.038 10.5 6.19 6.19 0 0 0 3.057.91 4.087 4.087 0 0 0 2.075-.546 5.074 5.074 0 0 0 2.252-4.644 13.166 13.166 0 0 0-6.038-10.5zm2.474 12.863a2.632 2.632 0 0 1-2.516-.368 10.565 10.565 0 0 1-4.719-8.206 2.655 2.655 0 0 1 .94-2.372 1.513 1.513 0 0 1 .767-.187 3.645 3.645 0 0 1 1.75.556 10.564 10.564 0 0 1 4.719 8.206 2.654 2.654 0 0 1-.94 2.371z" class="cls-1" data-name="Path 2519" transform="translate(483.254 6033.05)"/>
    </g>
</svg>
