<svg xmlns="http://www.w3.org/2000/svg" viewBox="0 0 16 14.513">
    <defs>
        <style>
            .cls-1{fill:#fff}
        </style>
    </defs>
    <path id="arrow" d="M2.959 8.141l4.224-4.268v10.994a1.124 1.124 0 1 0 2.247 0V3.873l4.223 4.268a1.125 1.125 0 0 0 .791.336 1.066 1.066 0 0 0 .791-.336 1.147 1.147 0 0 0 0-1.606L9.1.336A1.132 1.132 0 0 0 8.306 0a1.072 1.072 0 0 0-.791.336l-6.138 6.2a1.147 1.147 0 0 0 0 1.606 1.111 1.111 0 0 0 1.582 0zm0 0" class="cls-1" transform="rotate(90 8.525 7.476)"/>
</svg>
