<svg xmlns="http://www.w3.org/2000/svg" viewBox="0 0 64 64">
  <g transform="translate(523 1398) rotate(180)">
    <path d="M32,0A32,32,0,1,1,0,32,32,32,0,0,1,32,0Z" transform="translate(459 1334)" fill="#ffffff" />
    <path d="M2.594,12.539,9.553,5.312c.491-.431,1.491-1.432,1.5-1.418-.036,0,.631.614,1.5,1.418l6.959,7.227A1.477,1.477,0,0,0,20.56,13a1.4,1.4,0,0,0,1.054-.461,1.607,1.607,0,0,0,0-2.2L12.1.461A1.488,1.488,0,0,0,11.05,0,1.409,1.409,0,0,0,10,.461L.487,10.337a1.607,1.607,0,0,0,0,2.2,1.451,1.451,0,0,0,2.107,0Zm0,0" transform="translate(499 1354.95) rotate(90)" fill="#74be21" />
  </g>
</svg>
